SplineFontDB: 3.0
FontName: Estedad
FullName: Estedad
FamilyName: Estedad
Weight: Regular
Copyright: Copyright (c) 2017, Amin Abedi (aminabedi68@gmail.com---www.instagram.com/aminabedi68),\nwith Reserved Font Name Estedad.\n\nThis Font Software is licensed under the SIL Open Font License, Version 1.1.\n---Thank to "Saber Rastikerdar" for sharing his skill with me.---
Version: 0.3(Beta13)
ItalicAngle: 15
UnderlinePosition: 0
UnderlineWidth: 0
Ascent: 1638
Descent: 410
InvalidEm: 0
LayerCount: 2
Layer: 0 0 "Back" 1
Layer: 1 0 "Fore" 0
XUID: [1021 291 -65432716 1530]
FSType: 0
OS2Version: 0
OS2_WeightWidthSlopeOnly: 0
OS2_UseTypoMetrics: 0
CreationTime: 1490702618
ModificationTime: 1490881718
PfmFamily: 17
TTFWeight: 400
TTFWidth: 5
LineGap: 184
VLineGap: 184
OS2TypoAscent: 0
OS2TypoAOffset: 1
OS2TypoDescent: 0
OS2TypoDOffset: 1
OS2TypoLinegap: 184
OS2WinAscent: 0
OS2WinAOffset: 1
OS2WinDescent: 0
OS2WinDOffset: 1
HheadAscent: 0
HheadAOffset: 1
HheadDescent: 0
HheadDOffset: 1
OS2Vendor: 'PfEd'
Lookup: 4 0 1 "'rlig' Required Ligatures lookup 44" { "'rlig' Required Ligatures lookup 44-1"  } ['rlig' ('DFLT' <'dflt' > 'arab' <'KUR ' 'SND ' 'URD ' 'dflt' > 'cyrl' <'MKD ' 'SRB ' 'dflt' > 'grek' <'dflt' > 'latn' <'ISM ' 'KSM ' 'LSM ' 'MOL ' 'NSM ' 'ROM ' 'SKS ' 'SSM ' 'TRK ' 'dflt' > ) ]
Lookup: 1 0 0 "'fina' Terminal Forms in Arabic lookup 4" { "'fina' Terminal Forms in Arabic lookup 4-1"  } ['fina' ('DFLT' <'dflt' > 'arab' <'dflt' > ) ]
Lookup: 1 0 0 "'medi' Medial Forms in Arabic lookup 3" { "'medi' Medial Forms in Arabic lookup 3-1"  } ['medi' ('DFLT' <'dflt' > 'arab' <'dflt' > ) ]
Lookup: 1 0 0 "'init' Initial Forms in Arabic lookup 2" { "'init' Initial Forms in Arabic lookup 2-1"  } ['init' ('DFLT' <'dflt' > 'arab' <'dflt' > ) ]
Lookup: 4 0 1 "'rlig' Required Ligatures in Arabic lookup 5" { "'rlig' Required Ligatures in Arabic lookup 5-1"  } ['rlig' ('DFLT' <'dflt' > 'arab' <'dflt' > ) ]

StartChar: "+BiIA"
Encoding: 194 1570 0
Width: 288
Flags: HW
HStem: 1488 128<39.797 389.31> 1536 128<-71.496 182.336>
AnchorPoint: "Anchor-5" 152 1878 basechar 0
AnchorPoint: "Anchor-3" 143 299 basechar 0
LayerCount: 2
Fore
SplineSet
455 1715 m 1x80
 395 1659 340 1616 242 1616 c 0x80
 144 1616 79 1664 5 1664 c 0
 -99 1664 -163 1585 -230 1518 c 1
 -139 1427 l 1
 -95 1467 -43 1536 8 1536 c 0x40
 71 1536 95 1488 244 1488 c 0
 376 1488 446 1540 537 1615 c 1
 455 1715 l 1x80
80 1394 m 1
 80 448 l 1
 208 448 l 1
 208 1394 l 1
 80 1394 l 1
EndSplineSet
Validated: 521
PairPos2: "'kern' Horizontal Kerning lookup 2" ﻻ dx=240 dy=0 dh=240 dv=0 dx=0 dy=0 dh=0 dv=0
PairPos2: "'kern' Horizontal Kerning lookup 2" ﻹ dx=240 dy=0 dh=240 dv=0 dx=0 dy=0 dh=0 dv=0
PairPos2: "'kern' Horizontal Kerning lookup 2" ﻷ dx=240 dy=0 dh=240 dv=0 dx=0 dy=0 dh=0 dv=0
PairPos2: "'kern' Horizontal Kerning lookup 2" ﻵ dx=240 dy=0 dh=240 dv=0 dx=0 dy=0 dh=0 dv=0
PairPos2: "'kern' Horizontal Kerning lookup 2" ﻟ dx=222 dy=0 dh=222 dv=0 dx=0 dy=0 dh=0 dv=0
PairPos2: "'kern' Horizontal Kerning lookup 2" ل dx=242 dy=0 dh=242 dv=0 dx=0 dy=0 dh=0 dv=0
PairPos2: "'kern' Horizontal Kerning lookup 2" أ dx=132 dy=0 dh=132 dv=0 dx=0 dy=0 dh=0 dv=0
PairPos2: "'kern' Horizontal Kerning lookup 2" آ dx=475 dy=0 dh=475 dv=0 dx=0 dy=0 dh=0 dv=0
PairPos2: "'kern' Horizontal Kerning lookup 2" إ dx=163 dy=0 dh=163 dv=0 dx=0 dy=0 dh=0 dv=0
PairPos2: "'kern' Horizontal Kerning lookup 2" ﮔ dx=-20 dy=0 dh=-20 dv=0 dx=0 dy=0 dh=0 dv=0
PairPos2: "'kern' Horizontal Kerning lookup 2" گ dx=-20 dy=0 dh=-20 dv=0 dx=0 dy=0 dh=0 dv=0
PairPos2: "'kern' Horizontal Kerning lookup 2" ک dx=-20 dy=0 dh=-20 dv=0 dx=0 dy=0 dh=0 dv=0
PairPos2: "'kern' Horizontal Kerning lookup 2" ﻛ dx=-20 dy=0 dh=-20 dv=0 dx=0 dy=0 dh=0 dv=0
LCarets2: 1 0
Ligature2: "'liga' Standard Ligatures in Arabic lookup 0 subtable" ا ٓ
Substitution2: "'fina' Terminal Forms in Arabic lookup 4-1" ﺂ
EndChar

StartChar: "+BicA"
Encoding: 199 1575 1
Width: 288
Flags: HW
VStem: 80 129
AnchorPoint: "Anchor-5" 145 1776 basechar 0
AnchorPoint: "Anchor-3" 150 340 basechar 0
LayerCount: 2
Fore
SplineSet
80 1665 m 1
 80 448 l 1
 209 448 l 1
 209 1665 l 1
 80 1665 l 1
EndSplineSet
Validated: 521
Substitution2: "'fina' Terminal Forms in Arabic lookup 4-1" ﺎ
EndChar

StartChar: "+BiMA"
Encoding: 195 1571 2
Width: 546
Flags: W
HStem: 1890 73<156.395 268.09> 2153 74<212.79 347>
VStem: 80 70<1977.69 2096.9>
AnchorPoint: "Anchor-5" 260 2314 basechar 0
AnchorPoint: "Anchor-3" 275 322 basechar 0
LayerCount: 2
Fore
SplineSet
311 2227 m 0
 259 2227 209 2208 170 2179 c 0
 118 2140 80 2084 80 2022 c 0
 80 1984 99 1950 127 1930 c 0
 155 1910 189 1899 226 1894 c 0
 240 1892 255 1890 270 1890 c 2
 124 1806 l 1
 159 1746 l 1
 468 1924 l 1
 438 1987 l 1
 375 1964 295 1955 236 1963 c 0
 206 1967 183 1976 169 1986 c 0
 155 1996 150 2005 150 2022 c 0
 150 2053 173 2094 211 2122 c 0
 249 2150 299 2165 347 2153 c 1
 364 2221 l 1
 346 2225 328 2227 311 2227 c 0
209 1665 m 1
 209 448 l 1
 338 448 l 1
 338 1665 l 1
 209 1665 l 1
EndSplineSet
Validated: 553
LCarets2: 1 0
Ligature2: "'liga' Standard Ligatures in Arabic lookup 0 subtable" ا ٔ
Substitution2: "'fina' Terminal Forms in Arabic lookup 4-1" ﺄ
EndChar

StartChar: "+BiUA"
Encoding: 197 1573 3
Width: 546
Flags: HW
HStem: 16 70<156.395 268.09> 275 75<212.79 347>
VStem: 80 70<100.189 220.601>
AnchorPoint: "Anchor-5" 279 1801 basechar 0
AnchorPoint: "Anchor-3" 269 -147 basechar 0
LayerCount: 2
Fore
SplineSet
209 1665 m 1
 209 448 l 1
 338 448 l 1
 338 1665 l 1
 209 1665 l 1
311 350 m 0
 259 350 209 330 170 301 c 0
 118 262 80 206 80 144 c 0
 80 106 99 72 127 52 c 0
 155 32 189 21 226 16 c 0
 240 14 255 13 270 13 c 2
 124 -71 l 1
 159 -132 l 1
 468 46 l 1
 438 110 l 1
 375 87 295 78 236 86 c 0
 206 90 183 99 169 109 c 0
 155 119 150 127 150 144 c 0
 150 175 173 217 211 245 c 0
 249 273 299 287 347 275 c 1
 364 343 l 1
 346 347 328 350 311 350 c 0
EndSplineSet
Validated: 553
LCarets2: 1 0
Ligature2: "'liga' Standard Ligatures in Arabic lookup 0 subtable" ا ٕ
Substitution2: "'fina' Terminal Forms in Arabic lookup 4-1" ﺈ
EndChar

StartChar: "+BiEA"
Encoding: 193 1569 4
Width: 648
Flags: HW
AnchorPoint: "Anchor-5" 311 1313 basechar 0
AnchorPoint: "Anchor-3" 327 360 basechar 0
LayerCount: 2
Fore
SplineSet
183 1036 m 0
 118 984 80 903 80 813 c 0
 80 760 104 710 140 678 c 0
 166 654 198 638 231 628 c 1
 112 560 l 1
 176 448 l 1
 568 672 l 1
 504 784 l 1
 469 763 393 744 328 744 c 0
 264 744 209 762 209 813 c 0
 209 867 231 909 264 935 c 0
 297 961 341 974 399 958 c 1
 433 1082 l 1
 404 1089 378 1093 352 1093 c 0
 288 1093 229 1072 183 1036 c 0
EndSplineSet
Validated: 549
EndChar

StartChar: "+BigA"
Encoding: 200 1576 5
Width: 1882
Flags: W
HStem: 448 129<475.783 1407.02>
VStem: 80 128<685.548 950.88> 1674 129<685.548 950.88>
AnchorPoint: "Anchor-5" 946 1190 basechar 0
AnchorPoint: "Anchor-3" 944 -76 basechar 0
LayerCount: 2
Fore
SplineSet
114 976 m 1
 97 911 80 863 80 794 c 0
 80 654 153 561 314 504 c 0
 479 445 702 448 941 448 c 0
 1180 448 1404 445 1569 504 c 0
 1730 561 1803 654 1803 794 c 0
 1803 863 1786 911 1769 976 c 1
 1644 943 l 1
 1657 894 1674 841 1674 793 c 0
 1674 701 1615 657 1528 627 c 0
 1397 583 1179 577 941 577 c 0
 703 577 486 583 355 627 c 0
 268 657 208 701 208 793 c 0
 208 841 225 894 238 943 c 1
 114 976 l 1
851 268 m 1
 851 88 l 1
 1031 88 l 1
 1031 268 l 1
 851 268 l 1
EndSplineSet
Validated: 553
Substitution2: "'fina' Terminal Forms in Arabic lookup 4-1" ﺐ
Substitution2: "'medi' Medial Forms in Arabic lookup 3-1" ﺒ
Substitution2: "'init' Initial Forms in Arabic lookup 2-1" ﺑ
EndChar

StartChar: "+Bn4A"
Encoding: 256 1662 6
Width: 1882
Flags: HW
AnchorPoint: "Anchor-5" 932 1138 basechar 0
AnchorPoint: "Anchor-3" 948 -246 basechar 0
LayerCount: 2
Fore
SplineSet
114 976 m 1
 97 911 80 863 80 794 c 0
 80 654 153 561 314 504 c 0
 479 445 702 448 941 448 c 0
 1180 448 1404 445 1569 504 c 0
 1730 561 1803 654 1803 794 c 0
 1803 863 1786 911 1769 976 c 1
 1644 943 l 1
 1657 894 1674 841 1674 793 c 0
 1674 701 1615 657 1528 627 c 0
 1397 583 1179 577 941 577 c 0
 703 577 486 583 355 627 c 0
 268 657 208 701 208 793 c 0
 208 841 225 894 238 943 c 1
 114 976 l 1
734 308 m 1
 734 168 l 1
 967 168 l 1
 850 -35 l 1
 972 -105 l 1
 1149 203 l 1
 1088 308 l 1
 734 308 l 1
EndSplineSet
Validated: 553
Substitution2: "'fina' Terminal Forms in Arabic lookup 4-1" ﭗ
Substitution2: "'medi' Medial Forms in Arabic lookup 3-1" ﭙ
Substitution2: "'init' Initial Forms in Arabic lookup 2-1" ﭘ
EndChar

StartChar: "+BioA"
Encoding: 202 1578 7
Width: 1882
Flags: HW
AnchorPoint: "Anchor-5" 932 1249 basechar 0
AnchorPoint: "Anchor-3" 943 216 basechar 0
LayerCount: 2
Fore
SplineSet
742 988 m 1
 742 848 l 1
 1141 848 l 1
 1141 988 l 1
 742 988 l 1
114 976 m 1
 97 911 80 863 80 794 c 0
 80 654 153 561 314 504 c 0
 479 445 702 448 941 448 c 0
 1180 448 1404 445 1569 504 c 0
 1730 561 1803 654 1803 794 c 0
 1803 863 1786 911 1769 976 c 1
 1644 943 l 1
 1657 894 1674 841 1674 793 c 0
 1674 701 1615 657 1528 627 c 0
 1397 583 1179 577 941 577 c 0
 703 577 486 583 355 627 c 0
 268 657 208 701 208 793 c 0
 208 841 225 894 238 943 c 1
 114 976 l 1
EndSplineSet
Validated: 553
Substitution2: "'fina' Terminal Forms in Arabic lookup 4-1" ﺖ
Substitution2: "'medi' Medial Forms in Arabic lookup 3-1" ﺘ
Substitution2: "'init' Initial Forms in Arabic lookup 2-1" ﺗ
EndChar

StartChar: "+BisA"
Encoding: 203 1579 8
Width: 1882
Flags: W
HStem: 448 129<475.783 1407.02>
VStem: 80 128<685.548 950.88> 1674 129<685.548 950.88>
AnchorPoint: "Anchor-5" 925 1454 basechar 0
AnchorPoint: "Anchor-3" 938 211 basechar 0
LayerCount: 2
Fore
SplineSet
972 1260 m 1
 850 1190 l 1
 967 988 l 1
 734 988 l 1
 734 848 l 1
 1088 848 l 1
 1149 952 l 1
 972 1260 l 1
114 976 m 1
 97 911 80 863 80 794 c 0
 80 654 153 561 314 504 c 0
 479 445 702 448 941 448 c 0
 1180 448 1404 445 1569 504 c 0
 1730 561 1803 654 1803 794 c 0
 1803 863 1786 911 1769 976 c 1
 1644 943 l 1
 1657 894 1674 841 1674 793 c 0
 1674 701 1615 657 1528 627 c 0
 1397 583 1179 577 941 577 c 0
 703 577 486 583 355 627 c 0
 268 657 208 701 208 793 c 0
 208 841 225 894 238 943 c 1
 114 976 l 1
EndSplineSet
Validated: 553
Substitution2: "'fina' Terminal Forms in Arabic lookup 4-1" ﺚ
Substitution2: "'medi' Medial Forms in Arabic lookup 3-1" ﺜ
Substitution2: "'init' Initial Forms in Arabic lookup 2-1" ﺛ
EndChar

StartChar: "+BiwA"
Encoding: 204 1580 9
Width: 1236
Flags: W
HStem: -422 129<425.067 862.74> 963 129<307.847 690.411>
VStem: 80 128<-105.229 232.879> 134 127<689.899 917.256>
AnchorPoint: "Anchor-5" 431 1310 basechar 0
AnchorPoint: "Anchor-3" 645 -669 basechar 0
LayerCount: 2
Fore
SplineSet
427 1092 m 0xe0
 271 1092 136 981 134 821 c 0
 140 742 163 692 202 633 c 1
 309 704 l 1
 285 739 261 782 261 821 c 0xd0
 261 905 342 963 427 963 c 0
 564 963 718 907 838 882 c 1
 660 792 454 667 300 511 c 0
 174 383 80 226 80 54 c 0
 80 -289 401 -422 646 -422 c 0
 869 -422 1020 -341 1158 -177 c 1
 1059 -94 l 1
 955 -225 816 -293 646 -293 c 0
 427 -293 208 -180 208 57 c 0
 208 186 279 306 392 420 c 0
 603 616 812 730 1057 840 c 1
 1052 960 l 1
 885 993 627 1092 427 1092 c 0xe0
554 317 m 1
 554 137 l 1
 734 137 l 1
 734 317 l 1
 554 317 l 1
EndSplineSet
Validated: 521
Substitution2: "'fina' Terminal Forms in Arabic lookup 4-1" ﺞ
Substitution2: "'medi' Medial Forms in Arabic lookup 3-1" ﺠ
Substitution2: "'init' Initial Forms in Arabic lookup 2-1" ﺟ
EndChar

StartChar: "+BoYA"
Encoding: 257 1670 10
Width: 1236
Flags: HW
AnchorPoint: "Anchor-5" 429 1280 basechar 0
AnchorPoint: "Anchor-3" 639 -675 basechar 0
LayerCount: 2
Fore
SplineSet
427 1092 m 0
 271 1092 136 981 134 821 c 0
 140 742 163 692 202 633 c 1
 309 704 l 1
 285 739 261 782 261 821 c 0
 261 905 342 963 427 963 c 0
 564 963 718 907 838 882 c 1
 660 792 454 667 300 511 c 0
 174 383 80 226 80 54 c 0
 80 -289 401 -422 646 -422 c 0
 869 -422 1020 -341 1158 -177 c 1
 1059 -94 l 1
 955 -225 816 -293 646 -293 c 0
 427 -293 208 -180 208 57 c 0
 208 186 279 306 392 420 c 0
 603 616 812 730 1057 840 c 1
 1052 960 l 1
 885 993 627 1092 427 1092 c 0
463 346 m 1
 463 206 l 1
 696 206 l 1
 579 3 l 1
 700 -67 l 1
 877 241 l 1
 817 346 l 1
 463 346 l 1
EndSplineSet
Validated: 521
Substitution2: "'fina' Terminal Forms in Arabic lookup 4-1" ﭻ
Substitution2: "'medi' Medial Forms in Arabic lookup 3-1" ﭽ
Substitution2: "'init' Initial Forms in Arabic lookup 2-1" ﭼ
EndChar

StartChar: "+Bi0A"
Encoding: 205 1581 11
Width: 1236
Flags: HW
AnchorPoint: "Anchor-5" 425 1304 basechar 0
AnchorPoint: "Anchor-3" 637 -781 basechar 0
LayerCount: 2
Fore
SplineSet
427 1092 m 0
 271 1092 136 981 134 821 c 0
 140 742 163 692 202 633 c 1
 309 704 l 1
 285 739 261 782 261 821 c 0
 261 905 342 963 427 963 c 0
 564 963 718 907 838 882 c 1
 660 792 454 667 300 511 c 0
 174 383 80 226 80 54 c 0
 80 -289 401 -422 646 -422 c 0
 869 -422 1020 -341 1158 -177 c 1
 1059 -94 l 1
 955 -225 816 -293 646 -293 c 0
 427 -293 208 -180 208 57 c 0
 208 186 279 306 392 420 c 0
 603 616 812 730 1057 840 c 1
 1052 960 l 1
 885 993 627 1092 427 1092 c 0
EndSplineSet
Validated: 521
Substitution2: "'fina' Terminal Forms in Arabic lookup 4-1" ﺢ
Substitution2: "'medi' Medial Forms in Arabic lookup 3-1" ﺤ
Substitution2: "'init' Initial Forms in Arabic lookup 2-1" ﺣ
EndChar

StartChar: "+Bi4A"
Encoding: 206 1582 12
Width: 1236
Flags: HW
AnchorPoint: "Anchor-5" 431 1605 basechar 0
AnchorPoint: "Anchor-3" 643 -763 basechar 0
LayerCount: 2
Fore
SplineSet
337 1421 m 1
 337 1241 l 1
 517 1241 l 1
 517 1421 l 1
 337 1421 l 1
427 1092 m 0
 271 1092 136 981 134 821 c 0
 140 742 163 692 202 633 c 1
 309 704 l 1
 285 739 261 782 261 821 c 0
 261 905 342 963 427 963 c 0
 564 963 718 907 838 882 c 1
 660 792 454 667 300 511 c 0
 174 383 80 226 80 54 c 0
 80 -289 401 -422 646 -422 c 0
 869 -422 1020 -341 1158 -177 c 1
 1059 -94 l 1
 955 -225 816 -293 646 -293 c 0
 427 -293 208 -180 208 57 c 0
 208 186 279 306 392 420 c 0
 603 616 812 730 1057 840 c 1
 1052 960 l 1
 885 993 627 1092 427 1092 c 0
EndSplineSet
Validated: 521
Substitution2: "'fina' Terminal Forms in Arabic lookup 4-1" ﺦ
Substitution2: "'medi' Medial Forms in Arabic lookup 3-1" ﺨ
Substitution2: "'init' Initial Forms in Arabic lookup 2-1" ﺧ
EndChar

StartChar: "+Bi8A"
Encoding: 207 1583 13
Width: 784
Flags: HW
AnchorPoint: "Anchor-5" 345 1412 basechar 0
AnchorPoint: "Anchor-3" 380 171 basechar 0
LayerCount: 2
Fore
SplineSet
362 1266 m 1
 270 1176 l 1
 386 1058 470 957 520 875 c 0
 560 809 575 759 575 725 c 0
 575 654 490 628 456 617 c 0
 376 592 250 577 80 577 c 1
 80 448 l 1
 257 448 393 461 495 494 c 0
 615 533 704 605 704 728 c 0
 704 796 675 867 630 942 c 0
 571 1038 482 1144 362 1266 c 1
EndSplineSet
Validated: 521
Substitution2: "'fina' Terminal Forms in Arabic lookup 4-1" ﺪ
EndChar

StartChar: "+BjAA"
Encoding: 208 1584 14
Width: 784
Flags: HW
AnchorPoint: "Anchor-5" 279 1722 basechar 0
AnchorPoint: "Anchor-3" 335 207 basechar 0
LayerCount: 2
Fore
SplineSet
201 1594 m 1
 201 1414 l 1
 381 1414 l 1
 381 1594 l 1
 201 1594 l 1
362 1266 m 1
 270 1176 l 1
 386 1058 470 957 520 875 c 0
 560 809 575 759 575 725 c 0
 575 654 490 628 456 617 c 0
 376 592 250 577 80 577 c 1
 80 448 l 1
 257 448 393 461 495 494 c 0
 615 533 704 605 704 728 c 0
 704 796 675 867 630 942 c 0
 571 1038 482 1144 362 1266 c 1
EndSplineSet
Validated: 521
Substitution2: "'fina' Terminal Forms in Arabic lookup 4-1" ﺬ
EndChar

StartChar: "+BjEA"
Encoding: 209 1585 15
Width: 720
Flags: W
VStem: 513 128<378.642 820.385>
AnchorPoint: "Anchor-5" 470 1140 basechar 0
AnchorPoint: "Anchor-3" 353 -231 basechar 0
LayerCount: 2
Fore
SplineSet
568 923 m 1
 450 872 l 1
 488 774 513 677 513 578 c 0
 513 311 318 151 80 57 c 1
 126 -64 l 1
 437 57 641 273 641 582 c 0
 641 701 610 825 568 923 c 1
EndSplineSet
Validated: 521
PairPos2: "'kern' Horizontal Kerning lookup 1" ـ dx=-196 dy=0 dh=-196 dv=0 dx=0 dy=0 dh=0 dv=0
PairPos2: "'kern' Horizontal Kerning lookup 1" ی dx=-99 dy=0 dh=-99 dv=0 dx=0 dy=0 dh=0 dv=0
PairPos2: "'kern' Horizontal Kerning lookup 1" ۊ dx=-200 dy=0 dh=-200 dv=0 dx=0 dy=0 dh=0 dv=0
PairPos2: "'kern' Horizontal Kerning lookup 1" ۀ dx=-297 dy=0 dh=-297 dv=0 dx=0 dy=0 dh=0 dv=0
PairPos2: "'kern' Horizontal Kerning lookup 1" ﮔ dx=-430 dy=0 dh=-430 dv=0 dx=0 dy=0 dh=0 dv=0
PairPos2: "'kern' Horizontal Kerning lookup 1" گ dx=-430 dy=0 dh=-430 dv=0 dx=0 dy=0 dh=0 dv=0
PairPos2: "'kern' Horizontal Kerning lookup 1" ک dx=-430 dy=0 dh=-430 dv=0 dx=0 dy=0 dh=0 dv=0
PairPos2: "'kern' Horizontal Kerning lookup 1" ژ dx=-250 dy=0 dh=-250 dv=0 dx=0 dy=0 dh=0 dv=0
PairPos2: "'kern' Horizontal Kerning lookup 1" ﭼ dx=-300 dy=0 dh=-300 dv=0 dx=0 dy=0 dh=0 dv=0
PairPos2: "'kern' Horizontal Kerning lookup 1" چ dx=-400 dy=0 dh=-400 dv=0 dx=0 dy=0 dh=0 dv=0
PairPos2: "'kern' Horizontal Kerning lookup 1" پ dx=-300 dy=0 dh=-300 dv=0 dx=0 dy=0 dh=0 dv=0
PairPos2: "'kern' Horizontal Kerning lookup 1" ﻳ dx=-120 dy=0 dh=-120 dv=0 dx=0 dy=0 dh=0 dv=0
PairPos2: "'kern' Horizontal Kerning lookup 1" ي dx=-99 dy=0 dh=-99 dv=0 dx=0 dy=0 dh=0 dv=0
PairPos2: "'kern' Horizontal Kerning lookup 1" ئ dx=-99 dy=0 dh=-99 dv=0 dx=0 dy=0 dh=0 dv=0
PairPos2: "'kern' Horizontal Kerning lookup 1" و dx=-220 dy=0 dh=-220 dv=0 dx=0 dy=0 dh=0 dv=0
PairPos2: "'kern' Horizontal Kerning lookup 1" ؤ dx=-220 dy=0 dh=-220 dv=0 dx=0 dy=0 dh=0 dv=0
PairPos2: "'kern' Horizontal Kerning lookup 1" ﻫ dx=-306 dy=0 dh=-306 dv=0 dx=0 dy=0 dh=0 dv=0
PairPos2: "'kern' Horizontal Kerning lookup 1" ه dx=-297 dy=0 dh=-297 dv=0 dx=0 dy=0 dh=0 dv=0
PairPos2: "'kern' Horizontal Kerning lookup 1" ﻧ dx=-298 dy=0 dh=-298 dv=0 dx=0 dy=0 dh=0 dv=0
PairPos2: "'kern' Horizontal Kerning lookup 1" ن dx=-170 dy=0 dh=-170 dv=0 dx=0 dy=0 dh=0 dv=0
PairPos2: "'kern' Horizontal Kerning lookup 1" ﻣ dx=-298 dy=0 dh=-298 dv=0 dx=0 dy=0 dh=0 dv=0
PairPos2: "'kern' Horizontal Kerning lookup 1" ﻟ dx=-294 dy=0 dh=-294 dv=0 dx=0 dy=0 dh=0 dv=0
PairPos2: "'kern' Horizontal Kerning lookup 1" ل dx=-150 dy=0 dh=-150 dv=0 dx=0 dy=0 dh=0 dv=0
PairPos2: "'kern' Horizontal Kerning lookup 1" ﻛ dx=-450 dy=0 dh=-450 dv=0 dx=0 dy=0 dh=0 dv=0
PairPos2: "'kern' Horizontal Kerning lookup 1" ﻗ dx=-300 dy=0 dh=-300 dv=0 dx=0 dy=0 dh=0 dv=0
PairPos2: "'kern' Horizontal Kerning lookup 1" ق dx=-200 dy=0 dh=-200 dv=0 dx=0 dy=0 dh=0 dv=0
PairPos2: "'kern' Horizontal Kerning lookup 1" ﻓ dx=-300 dy=0 dh=-300 dv=0 dx=0 dy=0 dh=0 dv=0
PairPos2: "'kern' Horizontal Kerning lookup 1" ف dx=-300 dy=0 dh=-300 dv=0 dx=0 dy=0 dh=0 dv=0
PairPos2: "'kern' Horizontal Kerning lookup 1" ﻏ dx=-300 dy=0 dh=-300 dv=0 dx=0 dy=0 dh=0 dv=0
PairPos2: "'kern' Horizontal Kerning lookup 1" غ dx=-550 dy=0 dh=-550 dv=0 dx=0 dy=0 dh=0 dv=0
PairPos2: "'kern' Horizontal Kerning lookup 1" ﻋ dx=-300 dy=0 dh=-300 dv=0 dx=0 dy=0 dh=0 dv=0
PairPos2: "'kern' Horizontal Kerning lookup 1" ع dx=-550 dy=0 dh=-550 dv=0 dx=0 dy=0 dh=0 dv=0
PairPos2: "'kern' Horizontal Kerning lookup 1" ﻇ dx=-300 dy=0 dh=-300 dv=0 dx=0 dy=0 dh=0 dv=0
PairPos2: "'kern' Horizontal Kerning lookup 1" ظ dx=-300 dy=0 dh=-300 dv=0 dx=0 dy=0 dh=0 dv=0
PairPos2: "'kern' Horizontal Kerning lookup 1" ﻃ dx=-300 dy=0 dh=-300 dv=0 dx=0 dy=0 dh=0 dv=0
PairPos2: "'kern' Horizontal Kerning lookup 1" ط dx=-300 dy=0 dh=-300 dv=0 dx=0 dy=0 dh=0 dv=0
PairPos2: "'kern' Horizontal Kerning lookup 1" ﺿ dx=-300 dy=0 dh=-300 dv=0 dx=0 dy=0 dh=0 dv=0
PairPos2: "'kern' Horizontal Kerning lookup 1" ض dx=-300 dy=0 dh=-300 dv=0 dx=0 dy=0 dh=0 dv=0
PairPos2: "'kern' Horizontal Kerning lookup 1" ﺻ dx=-300 dy=0 dh=-300 dv=0 dx=0 dy=0 dh=0 dv=0
PairPos2: "'kern' Horizontal Kerning lookup 1" ص dx=-300 dy=0 dh=-300 dv=0 dx=0 dy=0 dh=0 dv=0
PairPos2: "'kern' Horizontal Kerning lookup 1" ﺷ dx=-300 dy=0 dh=-300 dv=0 dx=0 dy=0 dh=0 dv=0
PairPos2: "'kern' Horizontal Kerning lookup 1" ش dx=-300 dy=0 dh=-300 dv=0 dx=0 dy=0 dh=0 dv=0
PairPos2: "'kern' Horizontal Kerning lookup 1" ﺳ dx=-300 dy=0 dh=-300 dv=0 dx=0 dy=0 dh=0 dv=0
PairPos2: "'kern' Horizontal Kerning lookup 1" س dx=-300 dy=0 dh=-300 dv=0 dx=0 dy=0 dh=0 dv=0
PairPos2: "'kern' Horizontal Kerning lookup 1" ز dx=-200 dy=0 dh=-200 dv=0 dx=0 dy=0 dh=0 dv=0
PairPos2: "'kern' Horizontal Kerning lookup 1" ر dx=-200 dy=0 dh=-200 dv=0 dx=0 dy=0 dh=0 dv=0
PairPos2: "'kern' Horizontal Kerning lookup 1" ذ dx=-300 dy=0 dh=-300 dv=0 dx=0 dy=0 dh=0 dv=0
PairPos2: "'kern' Horizontal Kerning lookup 1" د dx=-300 dy=0 dh=-300 dv=0 dx=0 dy=0 dh=0 dv=0
PairPos2: "'kern' Horizontal Kerning lookup 1" ﺧ dx=-300 dy=0 dh=-300 dv=0 dx=0 dy=0 dh=0 dv=0
PairPos2: "'kern' Horizontal Kerning lookup 1" خ dx=-430 dy=0 dh=-430 dv=0 dx=0 dy=0 dh=0 dv=0
PairPos2: "'kern' Horizontal Kerning lookup 1" ﺣ dx=-300 dy=0 dh=-300 dv=0 dx=0 dy=0 dh=0 dv=0
PairPos2: "'kern' Horizontal Kerning lookup 1" ح dx=-430 dy=0 dh=-430 dv=0 dx=0 dy=0 dh=0 dv=0
PairPos2: "'kern' Horizontal Kerning lookup 1" ﺟ dx=-300 dy=0 dh=-300 dv=0 dx=0 dy=0 dh=0 dv=0
PairPos2: "'kern' Horizontal Kerning lookup 1" ج dx=-430 dy=0 dh=-430 dv=0 dx=0 dy=0 dh=0 dv=0
PairPos2: "'kern' Horizontal Kerning lookup 1" ﺛ dx=-300 dy=0 dh=-300 dv=0 dx=0 dy=0 dh=0 dv=0
PairPos2: "'kern' Horizontal Kerning lookup 1" ث dx=-300 dy=0 dh=-300 dv=0 dx=0 dy=0 dh=0 dv=0
PairPos2: "'kern' Horizontal Kerning lookup 1" ﺗ dx=-300 dy=0 dh=-300 dv=0 dx=0 dy=0 dh=0 dv=0
PairPos2: "'kern' Horizontal Kerning lookup 1" ت dx=-300 dy=0 dh=-300 dv=0 dx=0 dy=0 dh=0 dv=0
PairPos2: "'kern' Horizontal Kerning lookup 1" ﺑ dx=-200 dy=0 dh=-200 dv=0 dx=0 dy=0 dh=0 dv=0
PairPos2: "'kern' Horizontal Kerning lookup 1" ب dx=-300 dy=0 dh=-300 dv=0 dx=0 dy=0 dh=0 dv=0
PairPos2: "'kern' Horizontal Kerning lookup 1" ا dx=-266 dy=0 dh=-266 dv=0 dx=0 dy=0 dh=0 dv=0
PairPos2: "'kern' Horizontal Kerning lookup 1" أ dx=-300 dy=0 dh=-300 dv=0 dx=0 dy=0 dh=0 dv=0
PairPos2: "'kern' Horizontal Kerning lookup 1" آ dx=-250 dy=0 dh=-250 dv=0 dx=0 dy=0 dh=0 dv=0
PairPos2: "'kern' Horizontal Kerning lookup 1" ﺋ dx=-300 dy=0 dh=-300 dv=0 dx=0 dy=0 dh=0 dv=0
PairPos2: "'kern' Horizontal Kerning lookup 1" ء dx=-300 dy=0 dh=-300 dv=0 dx=0 dy=0 dh=0 dv=0
PairPos2: "'kern' Horizontal Kerning lookup 1" ﻙ dx=-302 dy=0 dh=-302 dv=0 dx=0 dy=0 dh=0 dv=0
PairPos2: "'kern' Horizontal Kerning lookup 1" uni0649 dx=-99 dy=0 dh=-99 dv=0 dx=0 dy=0 dh=0 dv=0
PairPos2: "'kern' Horizontal Kerning lookup 1" ﺓ dx=-297 dy=0 dh=-297 dv=0 dx=0 dy=0 dh=0 dv=0
PairPos2: "'kern' Horizontal Kerning lookup 1" uni0629 dx=-297 dy=0 dh=-297 dv=0 dx=0 dy=0 dh=0 dv=0
Substitution2: "'fina' Terminal Forms in Arabic lookup 4-1" ﺮ
EndChar

StartChar: "+BjIA"
Encoding: 210 1586 16
Width: 720
Flags: HW
AnchorPoint: "Anchor-5" 482 1379 basechar 0
AnchorPoint: "Anchor-3" 353 -235 basechar 0
LayerCount: 2
Fore
SplineSet
398 1250 m 1
 398 1070 l 1
 578 1070 l 1
 578 1250 l 1
 398 1250 l 1
568 923 m 1
 450 872 l 1
 488 774 513 677 513 578 c 0
 513 311 318 151 80 57 c 1
 126 -64 l 1
 437 57 641 273 641 582 c 0
 641 701 610 825 568 923 c 1
EndSplineSet
Validated: 521
PairPos2: "'kern' Horizontal Kerning lookup 1" ـ dx=-196 dy=0 dh=-196 dv=0 dx=0 dy=0 dh=0 dv=0
PairPos2: "'kern' Horizontal Kerning lookup 1" ی dx=-99 dy=0 dh=-99 dv=0 dx=0 dy=0 dh=0 dv=0
PairPos2: "'kern' Horizontal Kerning lookup 1" ۊ dx=-200 dy=0 dh=-200 dv=0 dx=0 dy=0 dh=0 dv=0
PairPos2: "'kern' Horizontal Kerning lookup 1" ۀ dx=-297 dy=0 dh=-297 dv=0 dx=0 dy=0 dh=0 dv=0
PairPos2: "'kern' Horizontal Kerning lookup 1" ﮔ dx=-430 dy=0 dh=-430 dv=0 dx=0 dy=0 dh=0 dv=0
PairPos2: "'kern' Horizontal Kerning lookup 1" گ dx=-430 dy=0 dh=-430 dv=0 dx=0 dy=0 dh=0 dv=0
PairPos2: "'kern' Horizontal Kerning lookup 1" ک dx=-430 dy=0 dh=-430 dv=0 dx=0 dy=0 dh=0 dv=0
PairPos2: "'kern' Horizontal Kerning lookup 1" ژ dx=-250 dy=0 dh=-250 dv=0 dx=0 dy=0 dh=0 dv=0
PairPos2: "'kern' Horizontal Kerning lookup 1" ﭼ dx=-300 dy=0 dh=-300 dv=0 dx=0 dy=0 dh=0 dv=0
PairPos2: "'kern' Horizontal Kerning lookup 1" چ dx=-400 dy=0 dh=-400 dv=0 dx=0 dy=0 dh=0 dv=0
PairPos2: "'kern' Horizontal Kerning lookup 1" پ dx=-300 dy=0 dh=-300 dv=0 dx=0 dy=0 dh=0 dv=0
PairPos2: "'kern' Horizontal Kerning lookup 1" ﻳ dx=-120 dy=0 dh=-120 dv=0 dx=0 dy=0 dh=0 dv=0
PairPos2: "'kern' Horizontal Kerning lookup 1" ي dx=-99 dy=0 dh=-99 dv=0 dx=0 dy=0 dh=0 dv=0
PairPos2: "'kern' Horizontal Kerning lookup 1" ئ dx=-99 dy=0 dh=-99 dv=0 dx=0 dy=0 dh=0 dv=0
PairPos2: "'kern' Horizontal Kerning lookup 1" و dx=-220 dy=0 dh=-220 dv=0 dx=0 dy=0 dh=0 dv=0
PairPos2: "'kern' Horizontal Kerning lookup 1" ؤ dx=-220 dy=0 dh=-220 dv=0 dx=0 dy=0 dh=0 dv=0
PairPos2: "'kern' Horizontal Kerning lookup 1" ﻫ dx=-306 dy=0 dh=-306 dv=0 dx=0 dy=0 dh=0 dv=0
PairPos2: "'kern' Horizontal Kerning lookup 1" ه dx=-297 dy=0 dh=-297 dv=0 dx=0 dy=0 dh=0 dv=0
PairPos2: "'kern' Horizontal Kerning lookup 1" ﻧ dx=-298 dy=0 dh=-298 dv=0 dx=0 dy=0 dh=0 dv=0
PairPos2: "'kern' Horizontal Kerning lookup 1" ن dx=-170 dy=0 dh=-170 dv=0 dx=0 dy=0 dh=0 dv=0
PairPos2: "'kern' Horizontal Kerning lookup 1" ﻣ dx=-298 dy=0 dh=-298 dv=0 dx=0 dy=0 dh=0 dv=0
PairPos2: "'kern' Horizontal Kerning lookup 1" ﻟ dx=-294 dy=0 dh=-294 dv=0 dx=0 dy=0 dh=0 dv=0
PairPos2: "'kern' Horizontal Kerning lookup 1" ل dx=-150 dy=0 dh=-150 dv=0 dx=0 dy=0 dh=0 dv=0
PairPos2: "'kern' Horizontal Kerning lookup 1" ﻛ dx=-450 dy=0 dh=-450 dv=0 dx=0 dy=0 dh=0 dv=0
PairPos2: "'kern' Horizontal Kerning lookup 1" ﻗ dx=-300 dy=0 dh=-300 dv=0 dx=0 dy=0 dh=0 dv=0
PairPos2: "'kern' Horizontal Kerning lookup 1" ق dx=-200 dy=0 dh=-200 dv=0 dx=0 dy=0 dh=0 dv=0
PairPos2: "'kern' Horizontal Kerning lookup 1" ﻓ dx=-300 dy=0 dh=-300 dv=0 dx=0 dy=0 dh=0 dv=0
PairPos2: "'kern' Horizontal Kerning lookup 1" ف dx=-300 dy=0 dh=-300 dv=0 dx=0 dy=0 dh=0 dv=0
PairPos2: "'kern' Horizontal Kerning lookup 1" ﻏ dx=-300 dy=0 dh=-300 dv=0 dx=0 dy=0 dh=0 dv=0
PairPos2: "'kern' Horizontal Kerning lookup 1" غ dx=-550 dy=0 dh=-550 dv=0 dx=0 dy=0 dh=0 dv=0
PairPos2: "'kern' Horizontal Kerning lookup 1" ﻋ dx=-300 dy=0 dh=-300 dv=0 dx=0 dy=0 dh=0 dv=0
PairPos2: "'kern' Horizontal Kerning lookup 1" ع dx=-550 dy=0 dh=-550 dv=0 dx=0 dy=0 dh=0 dv=0
PairPos2: "'kern' Horizontal Kerning lookup 1" ﻇ dx=-300 dy=0 dh=-300 dv=0 dx=0 dy=0 dh=0 dv=0
PairPos2: "'kern' Horizontal Kerning lookup 1" ظ dx=-300 dy=0 dh=-300 dv=0 dx=0 dy=0 dh=0 dv=0
PairPos2: "'kern' Horizontal Kerning lookup 1" ﻃ dx=-300 dy=0 dh=-300 dv=0 dx=0 dy=0 dh=0 dv=0
PairPos2: "'kern' Horizontal Kerning lookup 1" ط dx=-300 dy=0 dh=-300 dv=0 dx=0 dy=0 dh=0 dv=0
PairPos2: "'kern' Horizontal Kerning lookup 1" ﺿ dx=-300 dy=0 dh=-300 dv=0 dx=0 dy=0 dh=0 dv=0
PairPos2: "'kern' Horizontal Kerning lookup 1" ض dx=-300 dy=0 dh=-300 dv=0 dx=0 dy=0 dh=0 dv=0
PairPos2: "'kern' Horizontal Kerning lookup 1" ﺻ dx=-300 dy=0 dh=-300 dv=0 dx=0 dy=0 dh=0 dv=0
PairPos2: "'kern' Horizontal Kerning lookup 1" ص dx=-300 dy=0 dh=-300 dv=0 dx=0 dy=0 dh=0 dv=0
PairPos2: "'kern' Horizontal Kerning lookup 1" ﺷ dx=-300 dy=0 dh=-300 dv=0 dx=0 dy=0 dh=0 dv=0
PairPos2: "'kern' Horizontal Kerning lookup 1" ش dx=-300 dy=0 dh=-300 dv=0 dx=0 dy=0 dh=0 dv=0
PairPos2: "'kern' Horizontal Kerning lookup 1" ﺳ dx=-300 dy=0 dh=-300 dv=0 dx=0 dy=0 dh=0 dv=0
PairPos2: "'kern' Horizontal Kerning lookup 1" س dx=-300 dy=0 dh=-300 dv=0 dx=0 dy=0 dh=0 dv=0
PairPos2: "'kern' Horizontal Kerning lookup 1" ز dx=-200 dy=0 dh=-200 dv=0 dx=0 dy=0 dh=0 dv=0
PairPos2: "'kern' Horizontal Kerning lookup 1" ر dx=-200 dy=0 dh=-200 dv=0 dx=0 dy=0 dh=0 dv=0
PairPos2: "'kern' Horizontal Kerning lookup 1" ذ dx=-300 dy=0 dh=-300 dv=0 dx=0 dy=0 dh=0 dv=0
PairPos2: "'kern' Horizontal Kerning lookup 1" د dx=-300 dy=0 dh=-300 dv=0 dx=0 dy=0 dh=0 dv=0
PairPos2: "'kern' Horizontal Kerning lookup 1" ﺧ dx=-300 dy=0 dh=-300 dv=0 dx=0 dy=0 dh=0 dv=0
PairPos2: "'kern' Horizontal Kerning lookup 1" خ dx=-430 dy=0 dh=-430 dv=0 dx=0 dy=0 dh=0 dv=0
PairPos2: "'kern' Horizontal Kerning lookup 1" ﺣ dx=-300 dy=0 dh=-300 dv=0 dx=0 dy=0 dh=0 dv=0
PairPos2: "'kern' Horizontal Kerning lookup 1" ح dx=-430 dy=0 dh=-430 dv=0 dx=0 dy=0 dh=0 dv=0
PairPos2: "'kern' Horizontal Kerning lookup 1" ﺟ dx=-300 dy=0 dh=-300 dv=0 dx=0 dy=0 dh=0 dv=0
PairPos2: "'kern' Horizontal Kerning lookup 1" ج dx=-430 dy=0 dh=-430 dv=0 dx=0 dy=0 dh=0 dv=0
PairPos2: "'kern' Horizontal Kerning lookup 1" ﺛ dx=-300 dy=0 dh=-300 dv=0 dx=0 dy=0 dh=0 dv=0
PairPos2: "'kern' Horizontal Kerning lookup 1" ث dx=-300 dy=0 dh=-300 dv=0 dx=0 dy=0 dh=0 dv=0
PairPos2: "'kern' Horizontal Kerning lookup 1" ﺗ dx=-300 dy=0 dh=-300 dv=0 dx=0 dy=0 dh=0 dv=0
PairPos2: "'kern' Horizontal Kerning lookup 1" ت dx=-300 dy=0 dh=-300 dv=0 dx=0 dy=0 dh=0 dv=0
PairPos2: "'kern' Horizontal Kerning lookup 1" ﺑ dx=-200 dy=0 dh=-200 dv=0 dx=0 dy=0 dh=0 dv=0
PairPos2: "'kern' Horizontal Kerning lookup 1" ب dx=-300 dy=0 dh=-300 dv=0 dx=0 dy=0 dh=0 dv=0
PairPos2: "'kern' Horizontal Kerning lookup 1" ا dx=-266 dy=0 dh=-266 dv=0 dx=0 dy=0 dh=0 dv=0
PairPos2: "'kern' Horizontal Kerning lookup 1" أ dx=-300 dy=0 dh=-300 dv=0 dx=0 dy=0 dh=0 dv=0
PairPos2: "'kern' Horizontal Kerning lookup 1" آ dx=-250 dy=0 dh=-250 dv=0 dx=0 dy=0 dh=0 dv=0
PairPos2: "'kern' Horizontal Kerning lookup 1" ﺋ dx=-300 dy=0 dh=-300 dv=0 dx=0 dy=0 dh=0 dv=0
PairPos2: "'kern' Horizontal Kerning lookup 1" ء dx=-300 dy=0 dh=-300 dv=0 dx=0 dy=0 dh=0 dv=0
PairPos2: "'kern' Horizontal Kerning lookup 1" ﻙ dx=-302 dy=0 dh=-302 dv=0 dx=0 dy=0 dh=0 dv=0
PairPos2: "'kern' Horizontal Kerning lookup 1" uni0649 dx=-99 dy=0 dh=-99 dv=0 dx=0 dy=0 dh=0 dv=0
PairPos2: "'kern' Horizontal Kerning lookup 1" ﺓ dx=-297 dy=0 dh=-297 dv=0 dx=0 dy=0 dh=0 dv=0
PairPos2: "'kern' Horizontal Kerning lookup 1" uni0629 dx=-297 dy=0 dh=-297 dv=0 dx=0 dy=0 dh=0 dv=0
Substitution2: "'fina' Terminal Forms in Arabic lookup 4-1" ﺰ
EndChar

StartChar: "+BpgA"
Encoding: 258 1688 17
Width: 792
Flags: W
VStem: 513 128<378.642 820.385>
AnchorPoint: "Anchor-5" 428 1606 basechar 0
AnchorPoint: "Anchor-3" 399 -248 basechar 0
LayerCount: 2
Fore
SplineSet
536 1500 m 1
 415 1431 l 1
 531 1228 l 1
 298 1228 l 1
 298 1088 l 1
 652 1088 l 1
 713 1193 l 1
 536 1500 l 1
568 923 m 1
 450 872 l 1
 488 774 513 677 513 578 c 0
 513 311 318 151 80 57 c 1
 126 -64 l 1
 437 57 641 273 641 582 c 0
 641 701 610 825 568 923 c 1
EndSplineSet
Validated: 521
PairPos2: "'kern' Horizontal Kerning lookup 1" ی dx=-99 dy=0 dh=-99 dv=0 dx=0 dy=0 dh=0 dv=0
PairPos2: "'kern' Horizontal Kerning lookup 1" ۊ dx=-200 dy=0 dh=-200 dv=0 dx=0 dy=0 dh=0 dv=0
PairPos2: "'kern' Horizontal Kerning lookup 1" ۀ dx=-297 dy=0 dh=-297 dv=0 dx=0 dy=0 dh=0 dv=0
PairPos2: "'kern' Horizontal Kerning lookup 1" ﮔ dx=-430 dy=0 dh=-430 dv=0 dx=0 dy=0 dh=0 dv=0
PairPos2: "'kern' Horizontal Kerning lookup 1" گ dx=-430 dy=0 dh=-430 dv=0 dx=0 dy=0 dh=0 dv=0
PairPos2: "'kern' Horizontal Kerning lookup 1" ک dx=-430 dy=0 dh=-430 dv=0 dx=0 dy=0 dh=0 dv=0
PairPos2: "'kern' Horizontal Kerning lookup 1" ژ dx=-250 dy=0 dh=-250 dv=0 dx=0 dy=0 dh=0 dv=0
PairPos2: "'kern' Horizontal Kerning lookup 1" ﭼ dx=-300 dy=0 dh=-300 dv=0 dx=0 dy=0 dh=0 dv=0
PairPos2: "'kern' Horizontal Kerning lookup 1" چ dx=-400 dy=0 dh=-400 dv=0 dx=0 dy=0 dh=0 dv=0
PairPos2: "'kern' Horizontal Kerning lookup 1" پ dx=-300 dy=0 dh=-300 dv=0 dx=0 dy=0 dh=0 dv=0
PairPos2: "'kern' Horizontal Kerning lookup 1" ﻳ dx=-120 dy=0 dh=-120 dv=0 dx=0 dy=0 dh=0 dv=0
PairPos2: "'kern' Horizontal Kerning lookup 1" ي dx=-99 dy=0 dh=-99 dv=0 dx=0 dy=0 dh=0 dv=0
PairPos2: "'kern' Horizontal Kerning lookup 1" ئ dx=-99 dy=0 dh=-99 dv=0 dx=0 dy=0 dh=0 dv=0
PairPos2: "'kern' Horizontal Kerning lookup 1" و dx=-220 dy=0 dh=-220 dv=0 dx=0 dy=0 dh=0 dv=0
PairPos2: "'kern' Horizontal Kerning lookup 1" ؤ dx=-220 dy=0 dh=-220 dv=0 dx=0 dy=0 dh=0 dv=0
PairPos2: "'kern' Horizontal Kerning lookup 1" ﻫ dx=-306 dy=0 dh=-306 dv=0 dx=0 dy=0 dh=0 dv=0
PairPos2: "'kern' Horizontal Kerning lookup 1" ه dx=-297 dy=0 dh=-297 dv=0 dx=0 dy=0 dh=0 dv=0
PairPos2: "'kern' Horizontal Kerning lookup 1" ﻧ dx=-298 dy=0 dh=-298 dv=0 dx=0 dy=0 dh=0 dv=0
PairPos2: "'kern' Horizontal Kerning lookup 1" ن dx=-170 dy=0 dh=-170 dv=0 dx=0 dy=0 dh=0 dv=0
PairPos2: "'kern' Horizontal Kerning lookup 1" ﻣ dx=-298 dy=0 dh=-298 dv=0 dx=0 dy=0 dh=0 dv=0
PairPos2: "'kern' Horizontal Kerning lookup 1"  dx=0 dy=0 dh=0 dv=0 dx=0 dy=0 dh=0 dv=0
PairPos2: "'kern' Horizontal Kerning lookup 1" ﻟ dx=-294 dy=0 dh=-294 dv=0 dx=0 dy=0 dh=0 dv=0
PairPos2: "'kern' Horizontal Kerning lookup 1" ل dx=-150 dy=0 dh=-150 dv=0 dx=0 dy=0 dh=0 dv=0
PairPos2: "'kern' Horizontal Kerning lookup 1" ﻛ dx=-450 dy=0 dh=-450 dv=0 dx=0 dy=0 dh=0 dv=0
PairPos2: "'kern' Horizontal Kerning lookup 1" ﻗ dx=-300 dy=0 dh=-300 dv=0 dx=0 dy=0 dh=0 dv=0
PairPos2: "'kern' Horizontal Kerning lookup 1" ق dx=-200 dy=0 dh=-200 dv=0 dx=0 dy=0 dh=0 dv=0
PairPos2: "'kern' Horizontal Kerning lookup 1" ﻓ dx=-300 dy=0 dh=-300 dv=0 dx=0 dy=0 dh=0 dv=0
PairPos2: "'kern' Horizontal Kerning lookup 1" ف dx=-300 dy=0 dh=-300 dv=0 dx=0 dy=0 dh=0 dv=0
PairPos2: "'kern' Horizontal Kerning lookup 1" ﻏ dx=-300 dy=0 dh=-300 dv=0 dx=0 dy=0 dh=0 dv=0
PairPos2: "'kern' Horizontal Kerning lookup 1" غ dx=-550 dy=0 dh=-550 dv=0 dx=0 dy=0 dh=0 dv=0
PairPos2: "'kern' Horizontal Kerning lookup 1" ﻋ dx=-300 dy=0 dh=-300 dv=0 dx=0 dy=0 dh=0 dv=0
PairPos2: "'kern' Horizontal Kerning lookup 1" ع dx=-550 dy=0 dh=-550 dv=0 dx=0 dy=0 dh=0 dv=0
PairPos2: "'kern' Horizontal Kerning lookup 1" ﻇ dx=-300 dy=0 dh=-300 dv=0 dx=0 dy=0 dh=0 dv=0
PairPos2: "'kern' Horizontal Kerning lookup 1" ظ dx=-300 dy=0 dh=-300 dv=0 dx=0 dy=0 dh=0 dv=0
PairPos2: "'kern' Horizontal Kerning lookup 1" ﻃ dx=-300 dy=0 dh=-300 dv=0 dx=0 dy=0 dh=0 dv=0
PairPos2: "'kern' Horizontal Kerning lookup 1" ط dx=-300 dy=0 dh=-300 dv=0 dx=0 dy=0 dh=0 dv=0
PairPos2: "'kern' Horizontal Kerning lookup 1" ﺿ dx=-300 dy=0 dh=-300 dv=0 dx=0 dy=0 dh=0 dv=0
PairPos2: "'kern' Horizontal Kerning lookup 1" ض dx=-300 dy=0 dh=-300 dv=0 dx=0 dy=0 dh=0 dv=0
PairPos2: "'kern' Horizontal Kerning lookup 1" ﺻ dx=-300 dy=0 dh=-300 dv=0 dx=0 dy=0 dh=0 dv=0
PairPos2: "'kern' Horizontal Kerning lookup 1" ص dx=-300 dy=0 dh=-300 dv=0 dx=0 dy=0 dh=0 dv=0
PairPos2: "'kern' Horizontal Kerning lookup 1" ﺷ dx=-300 dy=0 dh=-300 dv=0 dx=0 dy=0 dh=0 dv=0
PairPos2: "'kern' Horizontal Kerning lookup 1" ش dx=-300 dy=0 dh=-300 dv=0 dx=0 dy=0 dh=0 dv=0
PairPos2: "'kern' Horizontal Kerning lookup 1" ﺳ dx=-300 dy=0 dh=-300 dv=0 dx=0 dy=0 dh=0 dv=0
PairPos2: "'kern' Horizontal Kerning lookup 1" س dx=-300 dy=0 dh=-300 dv=0 dx=0 dy=0 dh=0 dv=0
PairPos2: "'kern' Horizontal Kerning lookup 1" ز dx=-200 dy=0 dh=-200 dv=0 dx=0 dy=0 dh=0 dv=0
PairPos2: "'kern' Horizontal Kerning lookup 1" ر dx=-200 dy=0 dh=-200 dv=0 dx=0 dy=0 dh=0 dv=0
PairPos2: "'kern' Horizontal Kerning lookup 1" ذ dx=-300 dy=0 dh=-300 dv=0 dx=0 dy=0 dh=0 dv=0
PairPos2: "'kern' Horizontal Kerning lookup 1" د dx=-300 dy=0 dh=-300 dv=0 dx=0 dy=0 dh=0 dv=0
PairPos2: "'kern' Horizontal Kerning lookup 1" ﺧ dx=-300 dy=0 dh=-300 dv=0 dx=0 dy=0 dh=0 dv=0
PairPos2: "'kern' Horizontal Kerning lookup 1" خ dx=-430 dy=0 dh=-430 dv=0 dx=0 dy=0 dh=0 dv=0
PairPos2: "'kern' Horizontal Kerning lookup 1" ﺣ dx=-300 dy=0 dh=-300 dv=0 dx=0 dy=0 dh=0 dv=0
PairPos2: "'kern' Horizontal Kerning lookup 1" ح dx=-430 dy=0 dh=-430 dv=0 dx=0 dy=0 dh=0 dv=0
PairPos2: "'kern' Horizontal Kerning lookup 1" ﺟ dx=-300 dy=0 dh=-300 dv=0 dx=0 dy=0 dh=0 dv=0
PairPos2: "'kern' Horizontal Kerning lookup 1" ج dx=-430 dy=0 dh=-430 dv=0 dx=0 dy=0 dh=0 dv=0
PairPos2: "'kern' Horizontal Kerning lookup 1" ﺛ dx=-300 dy=0 dh=-300 dv=0 dx=0 dy=0 dh=0 dv=0
PairPos2: "'kern' Horizontal Kerning lookup 1" ث dx=-300 dy=0 dh=-300 dv=0 dx=0 dy=0 dh=0 dv=0
PairPos2: "'kern' Horizontal Kerning lookup 1" ﺗ dx=-300 dy=0 dh=-300 dv=0 dx=0 dy=0 dh=0 dv=0
PairPos2: "'kern' Horizontal Kerning lookup 1" ت dx=-300 dy=0 dh=-300 dv=0 dx=0 dy=0 dh=0 dv=0
PairPos2: "'kern' Horizontal Kerning lookup 1" ﺑ dx=-200 dy=0 dh=-200 dv=0 dx=0 dy=0 dh=0 dv=0
PairPos2: "'kern' Horizontal Kerning lookup 1" ب dx=-300 dy=0 dh=-300 dv=0 dx=0 dy=0 dh=0 dv=0
PairPos2: "'kern' Horizontal Kerning lookup 1" ا dx=-266 dy=0 dh=-266 dv=0 dx=0 dy=0 dh=0 dv=0
PairPos2: "'kern' Horizontal Kerning lookup 1" أ dx=-300 dy=0 dh=-300 dv=0 dx=0 dy=0 dh=0 dv=0
PairPos2: "'kern' Horizontal Kerning lookup 1" آ dx=-250 dy=0 dh=-250 dv=0 dx=0 dy=0 dh=0 dv=0
PairPos2: "'kern' Horizontal Kerning lookup 1" ﺋ dx=-300 dy=0 dh=-300 dv=0 dx=0 dy=0 dh=0 dv=0
PairPos2: "'kern' Horizontal Kerning lookup 1" ء dx=-300 dy=0 dh=-300 dv=0 dx=0 dy=0 dh=0 dv=0
PairPos2: "'kern' Horizontal Kerning lookup 1" ﻙ dx=-302 dy=0 dh=-302 dv=0 dx=0 dy=0 dh=0 dv=0
PairPos2: "'kern' Horizontal Kerning lookup 1" uni0649 dx=-99 dy=0 dh=-99 dv=0 dx=0 dy=0 dh=0 dv=0
PairPos2: "'kern' Horizontal Kerning lookup 1" ﺓ dx=-297 dy=0 dh=-297 dv=0 dx=0 dy=0 dh=0 dv=0
PairPos2: "'kern' Horizontal Kerning lookup 1" uni0629 dx=-297 dy=0 dh=-297 dv=0 dx=0 dy=0 dh=0 dv=0
Substitution2: "'fina' Terminal Forms in Arabic lookup 4-1" ﮋ
EndChar

StartChar: "+BjMA"
Encoding: 211 1587 18
Width: 2472
Flags: HW
AnchorPoint: "Anchor-5" 1828 1249 basechar 0
AnchorPoint: "Anchor-3" 671 -417 basechar 0
LayerCount: 2
Fore
SplineSet
2207 924 m 1
 2273 835 2276 750 2248 686 c 0
 2220 622 2162 578 2078 577 c 0
 2023 576 1987 586 1964 599 c 0
 1941 612 1927 628 1916 654 c 0
 1893 705 1890 795 1890 897 c 1
 1761 897 l 1
 1761 795 1758 706 1735 655 c 0
 1724 630 1710 613 1687 600 c 0
 1664 587 1628 577 1572 577 c 0
 1465 577 1438 609 1407 672 c 0
 1388 710 1374 762 1357 817 c 0
 1346 852 1334 888 1319 923 c 1
 1319 924 1319 924 1319 925 c 2
 1201 872 l 1
 1245 769 1266 661 1266 561 c 0
 1266 457 1243 363 1202 291 c 0
 1105 123 869 -3 676 -3 c 0
 406 -3 239 134 213 295 c 0
 211 310 209 325 209 341 c 0
 209 495 330 687 666 839 c 1
 613 956 l 1
 250 792 80 558 80 341 c 0
 80 319 81 296 85 274 c 0
 124 39 361 -132 676 -132 c 0
 921 -132 1188 7 1314 226 c 0
 1360 306 1384 400 1392 500 c 1
 1439 469 1499 448 1572 448 c 0
 1643 448 1702 461 1750 488 c 0
 1782 506 1805 531 1825 559 c 1
 1845 531 1868 505 1901 487 c 0
 1949 460 2009 447 2080 448 c 0
 2211 449 2320 527 2367 635 c 0
 2414 743 2399 881 2310 1001 c 1
 2207 924 l 1
EndSplineSet
Validated: 549
Substitution2: "'fina' Terminal Forms in Arabic lookup 4-1" ﺲ
Substitution2: "'medi' Medial Forms in Arabic lookup 3-1" ﺴ
Substitution2: "'init' Initial Forms in Arabic lookup 2-1" ﺳ
EndChar

StartChar: "+BjQA"
Encoding: 212 1588 19
Width: 2472
Flags: HW
AnchorPoint: "Anchor-5" 1785 1639 basechar 0
AnchorPoint: "Anchor-3" 675 -416 basechar 0
LayerCount: 2
Fore
SplineSet
1864 1503 m 1
 1743 1434 l 1
 1860 1231 l 1
 1627 1231 l 1
 1627 1091 l 1
 1981 1091 l 1
 2041 1196 l 1
 1864 1503 l 1
2310 1001 m 1
 2207 924 l 1
 2273 835 2276 750 2248 686 c 0
 2220 622 2162 578 2078 577 c 0
 2023 576 1987 586 1964 599 c 0
 1941 612 1927 628 1916 654 c 0
 1893 705 1890 795 1890 897 c 1
 1761 897 l 1
 1761 795 1758 706 1735 655 c 0
 1724 630 1710 613 1687 600 c 0
 1664 587 1628 577 1572 577 c 0
 1465 577 1438 609 1407 672 c 0
 1388 710 1374 762 1357 817 c 0
 1346 852 1334 887 1319 923 c 1
 1201 872 l 1
 1245 769 1266 661 1266 561 c 0
 1266 457 1243 362 1202 290 c 0
 1105 122 869 -3 676 -3 c 0
 406 -3 239 134 213 295 c 0
 211 310 209 325 209 341 c 0
 209 495 330 687 666 839 c 1
 613 956 l 1
 250 792 80 558 80 341 c 0
 80 319 81 296 85 274 c 0
 124 39 361 -132 676 -132 c 0
 921 -132 1188 7 1314 226 c 0
 1360 306 1384 399 1392 499 c 1
 1439 468 1499 448 1572 448 c 0
 1643 448 1702 461 1750 488 c 0
 1782 506 1805 531 1825 559 c 1
 1845 531 1868 504 1901 486 c 0
 1949 459 2009 447 2080 448 c 0
 2211 449 2320 526 2367 634 c 0
 2414 742 2399 881 2310 1001 c 1
EndSplineSet
Validated: 553
Substitution2: "'fina' Terminal Forms in Arabic lookup 4-1" ﺶ
Substitution2: "'medi' Medial Forms in Arabic lookup 3-1" ﺸ
Substitution2: "'init' Initial Forms in Arabic lookup 2-1" ﺷ
EndChar

StartChar: "+BjUA"
Encoding: 213 1589 20
Width: 2306
Flags: HW
AnchorPoint: "Anchor-5" 1958 1368 basechar 0
AnchorPoint: "Anchor-3" 669 -401 basechar 0
LayerCount: 2
Fore
SplineSet
1963 1092 m 0
 1746 1092 1558 834 1463 632 c 1
 1438 644 1413 657 1388 672 c 1
 1377 755 1354 841 1319 923 c 1
 1201 872 l 1
 1245 769 1265 661 1265 561 c 0
 1265 457 1243 362 1202 290 c 0
 1105 122 869 -3 676 -3 c 0
 406 -3 239 134 213 295 c 0
 211 310 209 325 209 341 c 0
 209 495 330 687 666 839 c 1
 613 956 l 1
 250 792 80 558 80 341 c 0
 80 318 81 296 85 274 c 0
 124 39 361 -132 676 -132 c 0
 921 -132 1187 7 1313 226 c 0
 1363 312 1390 414 1395 523 c 1
 1483 480 1581 448 1688 448 c 0
 1942 448 2227 590 2227 826 c 0
 2227 960 2118 1092 1963 1092 c 0
1963 963 m 0
 2047 963 2098 894 2098 826 c 0
 2098 685 1893 577 1688 577 c 0
 1655 577 1617 581 1584 589 c 1
 1648 727 1818 963 1963 963 c 0
EndSplineSet
Validated: 521
Substitution2: "'fina' Terminal Forms in Arabic lookup 4-1" ﺺ
Substitution2: "'medi' Medial Forms in Arabic lookup 3-1" ﺼ
Substitution2: "'init' Initial Forms in Arabic lookup 2-1" ﺻ
EndChar

StartChar: "+BjYA"
Encoding: 214 1590 21
Width: 2306
Flags: HW
AnchorPoint: "Anchor-5" 1964 1623 basechar 0
AnchorPoint: "Anchor-3" 675 -404 basechar 0
LayerCount: 2
Fore
SplineSet
1874 1421 m 1
 1874 1241 l 1
 2054 1241 l 1
 2054 1421 l 1
 1874 1421 l 1
1963 1092 m 0
 1746 1092 1558 834 1463 632 c 1
 1438 644 1413 657 1388 672 c 1
 1377 755 1354 841 1319 923 c 1
 1201 872 l 1
 1245 769 1265 661 1265 561 c 0
 1265 457 1243 362 1202 290 c 0
 1105 122 869 -3 676 -3 c 0
 406 -3 239 134 213 295 c 0
 211 310 209 325 209 341 c 0
 209 495 330 687 666 839 c 1
 613 956 l 1
 250 792 80 558 80 341 c 0
 80 318 81 296 85 274 c 0
 124 39 361 -132 676 -132 c 0
 921 -132 1188 7 1314 226 c 0
 1364 312 1390 414 1395 523 c 1
 1483 480 1581 448 1688 448 c 0
 1942 448 2227 590 2227 826 c 0
 2227 960 2118 1092 1963 1092 c 0
1963 963 m 0
 2047 963 2098 894 2098 826 c 0
 2098 685 1893 577 1688 577 c 0
 1655 577 1617 581 1584 589 c 1
 1648 727 1818 963 1963 963 c 0
EndSplineSet
Validated: 521
Substitution2: "'fina' Terminal Forms in Arabic lookup 4-1" ﺾ
Substitution2: "'medi' Medial Forms in Arabic lookup 3-1" ﻀ
Substitution2: "'init' Initial Forms in Arabic lookup 2-1" ﺿ
EndChar

StartChar: "+BjcA"
Encoding: 215 1591 22
Width: 1152
Flags: HW
AnchorPoint: "Anchor-5" 807 1491 basechar 0
AnchorPoint: "Anchor-3" 532 211 basechar 0
LayerCount: 2
Fore
SplineSet
243 1665 m 1
 243 575 l 1
 80 575 l 1
 80 448 l 1
 477 448 l 2
 613 448 800 485 900 549 c 0
 1000 613 1074 710 1074 827 c 0
 1074 962 966 1093 810 1093 c 0
 679 1093 569 1003 480 899 c 0
 439 851 403 800 372 748 c 1
 372 1665 l 1
 243 1665 l 1
810 964 m 0
 894 964 945 895 945 827 c 0
 945 764 906 705 831 657 c 0
 756 609 648 575 535 575 c 2
 429 575 l 1
 464 651 515 742 578 816 c 0
 655 906 743 964 810 964 c 0
EndSplineSet
Validated: 521
Substitution2: "'fina' Terminal Forms in Arabic lookup 4-1" ﻂ
Substitution2: "'medi' Medial Forms in Arabic lookup 3-1" ﻄ
Substitution2: "'init' Initial Forms in Arabic lookup 2-1" ﻃ
EndChar

StartChar: "+BjgA"
Encoding: 216 1592 23
Width: 1152
Flags: HW
AnchorPoint: "Anchor-5" 807 1637 basechar 0
AnchorPoint: "Anchor-3" 540 227 basechar 0
LayerCount: 2
Fore
SplineSet
243 1665 m 1
 243 575 l 1
 80 575 l 1
 80 448 l 1
 477 448 l 2
 613 448 800 485 900 549 c 0
 1000 613 1074 710 1074 827 c 0
 1074 962 966 1093 810 1093 c 0
 679 1093 569 1003 480 899 c 0
 439 851 403 800 372 748 c 1
 372 1665 l 1
 243 1665 l 1
721 1420 m 1
 721 1240 l 1
 901 1240 l 1
 901 1420 l 1
 721 1420 l 1
810 964 m 0
 894 964 945 895 945 827 c 0
 945 764 906 705 831 657 c 0
 756 609 648 575 535 575 c 2
 429 575 l 1
 464 651 515 742 578 816 c 0
 655 906 743 964 810 964 c 0
EndSplineSet
Validated: 521
Substitution2: "'fina' Terminal Forms in Arabic lookup 4-1" ﻆ
Substitution2: "'medi' Medial Forms in Arabic lookup 3-1" ﻈ
Substitution2: "'init' Initial Forms in Arabic lookup 2-1" ﻇ
EndChar

StartChar: "+BjkA"
Encoding: 217 1593 24
Width: 1238
Flags: HW
AnchorPoint: "Anchor-5" 557 1552 basechar 0
AnchorPoint: "Anchor-3" 649 -617 basechar 0
LayerCount: 2
Fore
SplineSet
650 -422 m 0
 878 -422 1027 -335 1158 -179 c 1
 1060 -95 l 1
 943 -243 805 -294 650 -294 c 0
 469 -294 210 -210 210 105 c 0
 210 389 418 667 673 760 c 0
 729 777 782 794 830 808 c 1
 789 930 l 1
 695 900 609 881 508 881 c 0
 423 881 281 904 281 987 c 0
 281 1095 409 1231 565 1231 c 0
 609 1231 653 1221 688 1208 c 1
 719 1333 l 1
 666 1349 610 1360 562 1360 c 0
 354 1360 149 1177 153 990 c 0
 156 841 291 771 413 758 c 1
 216 605 80 364 80 110 c 0
 80 -319 425 -422 650 -422 c 0
EndSplineSet
Validated: 553
Substitution2: "'fina' Terminal Forms in Arabic lookup 4-1" ﻊ
Substitution2: "'medi' Medial Forms in Arabic lookup 3-1" ﻌ
Substitution2: "'init' Initial Forms in Arabic lookup 2-1" ﻋ
EndChar

StartChar: "+BjoA"
Encoding: 218 1594 25
Width: 1238
Flags: HW
AnchorPoint: "Anchor-5" 564 1860 basechar 0
AnchorPoint: "Anchor-3" 641 -701 basechar 0
LayerCount: 2
Fore
SplineSet
472 1687 m 1
 472 1507 l 1
 652 1507 l 1
 652 1687 l 1
 472 1687 l 1
562 1360 m 0
 354 1360 149 1177 153 990 c 0
 156 841 291 771 413 758 c 1
 216 605 80 364 80 110 c 0
 80 -319 425 -422 650 -422 c 0
 878 -422 1027 -335 1158 -179 c 1
 1060 -95 l 1
 943 -243 805 -294 650 -294 c 0
 469 -294 210 -210 210 105 c 0
 210 389 418 667 673 760 c 0
 729 777 782 794 830 808 c 1
 789 930 l 1
 695 900 609 881 508 881 c 0
 423 881 281 904 281 987 c 0
 281 1095 409 1231 565 1231 c 0
 609 1231 653 1221 688 1208 c 1
 719 1333 l 1
 666 1349 610 1360 562 1360 c 0
EndSplineSet
Validated: 553
Substitution2: "'fina' Terminal Forms in Arabic lookup 4-1" ﻎ
Substitution2: "'medi' Medial Forms in Arabic lookup 3-1" ﻐ
Substitution2: "'init' Initial Forms in Arabic lookup 2-1" ﻏ
EndChar

StartChar: "+BkEA"
Encoding: 225 1601 26
Width: 1916
Flags: HW
AnchorPoint: "Anchor-5" 1539 1856 basechar 0
AnchorPoint: "Anchor-3" 941 148 basechar 0
LayerCount: 2
Fore
SplineSet
1454 1664 m 1
 1454 1484 l 1
 1634 1484 l 1
 1634 1664 l 1
 1454 1664 l 1
1591 510 m 0
 1758 575 1837 692 1837 855 c 0
 1837 1026 1739 1336 1541 1336 c 0
 1370 1336 1228 1147 1228 969 c 0
 1228 800 1353 691 1543 691 c 0
 1579 691 1618 695 1658 703 c 1
 1632 673 1596 649 1546 630 c 0
 1404 576 1170 577 941 577 c 0
 703 577 486 583 355 627 c 0
 268 657 208 701 208 793 c 0
 208 841 225 894 238 943 c 1
 114 976 l 1
 97 911 80 863 80 794 c 0
 80 654 153 561 314 504 c 0
 479 445 702 448 941 448 c 0
 1169 448 1413 441 1591 510 c 0
1541 1207 m 0
 1629 1207 1712 981 1708 845 c 1
 1655 830 1598 821 1547 821 c 0
 1442 821 1357 860 1357 972 c 0
 1357 1085 1451 1207 1541 1207 c 0
EndSplineSet
Validated: 553
Substitution2: "'fina' Terminal Forms in Arabic lookup 4-1" ﻒ
Substitution2: "'medi' Medial Forms in Arabic lookup 3-1" ﻔ
Substitution2: "'init' Initial Forms in Arabic lookup 2-1" ﻓ
EndChar

StartChar: "+BkIA"
Encoding: 226 1602 27
Width: 1466
Flags: HW
AnchorPoint: "Anchor-5" 1081 1539 basechar 0
AnchorPoint: "Anchor-3" 672 -410 basechar 0
LayerCount: 2
Fore
SplineSet
886 1384 m 1
 886 1244 l 1
 1285 1244 l 1
 1285 1384 l 1
 886 1384 l 1
1082 1093 m 0
 911 1093 770 904 770 726 c 0
 770 557 895 448 1085 448 c 0
 1121 448 1160 452 1200 460 c 2
 1256 473 l 1
 1256 195 910 -3 676 -3 c 0
 430 -3 209 122 209 341 c 0
 209 495 330 687 666 839 c 1
 613 956 l 1
 250 792 80 558 80 341 c 0
 80 36 383 -132 676 -132 c 0
 954 -132 1388 76 1388 543 c 0
 1388 781 1280 1093 1082 1093 c 0
1082 964 m 0
 1170 964 1254 738 1250 602 c 1
 1197 587 1140 578 1089 578 c 0
 984 578 898 617 898 729 c 0
 898 842 992 964 1082 964 c 0
EndSplineSet
Validated: 553
Substitution2: "'fina' Terminal Forms in Arabic lookup 4-1" ﻖ
Substitution2: "'medi' Medial Forms in Arabic lookup 3-1" ﻘ
Substitution2: "'init' Initial Forms in Arabic lookup 2-1" ﻗ
EndChar

StartChar: "+BqkA"
Encoding: 259 1705 28
Width: 1762
Flags: HW
AnchorPoint: "Anchor-5" 663 1640 basechar 0
AnchorPoint: "Anchor-3" 795 171 basechar 0
LayerCount: 2
Fore
SplineSet
1436 560 m 0
 1501 629 1527 720 1527 807 c 0
 1527 894 1485 975 1409 1040 c 0
 1333 1105 1223 1165 1063 1242 c 0
 1012 1266 1000 1291 1000 1310 c 0
 1000 1329 1014 1360 1066 1395 c 2
 1683 1803 l 1
 1612 1911 l 1
 995 1503 l 2
 919 1453 870 1384 872 1307 c 0
 874 1230 928 1164 1007 1126 c 0
 1163 1051 1267 992 1325 942 c 0
 1383 892 1398 860 1398 807 c 0
 1398 745 1380 689 1342 648 c 0
 1304 607 1211 577 941 577 c 0
 703 577 486 583 355 627 c 0
 268 657 208 701 208 793 c 0
 208 841 225 894 238 943 c 1
 114 976 l 1
 97 911 80 863 80 794 c 0
 80 654 153 561 314 504 c 0
 479 445 702 448 941 448 c 0
 1284 448 1371 491 1436 560 c 0
EndSplineSet
Validated: 553
Substitution2: "'fina' Terminal Forms in Arabic lookup 4-1" ﻚ
Substitution2: "'medi' Medial Forms in Arabic lookup 3-1" ﻜ
Substitution2: "'init' Initial Forms in Arabic lookup 2-1" ﻛ
EndChar

StartChar: "+BkMA"
Encoding: -1 1603 29
Width: 1606
Flags: HW
LayerCount: 2
Fore
SplineSet
1345 1528 m 1
 1233 1463 l 1
 1349 1262 1398 1095 1398 807 c 0
 1398 745 1380 689 1342 648 c 0
 1304 607 1211 577 941 577 c 0
 703 577 486 583 355 627 c 0
 268 657 208 701 208 793 c 0
 208 841 225 894 238 943 c 1
 114 976 l 1
 97 911 80 863 80 794 c 0
 80 654 153 561 314 504 c 0
 479 445 702 448 941 448 c 0
 1284 448 1371 491 1436 560 c 0
 1501 629 1527 720 1527 807 c 0
 1527 1111 1469 1313 1345 1528 c 1
840 1458 m 0
 788 1458 738 1438 699 1409 c 0
 647 1370 609 1315 609 1253 c 0
 609 1215 629 1181 657 1161 c 0
 685 1141 719 1130 756 1125 c 0
 770 1123 784 1121 799 1121 c 2
 654 1037 l 1
 689 976 l 1
 997 1155 l 1
 968 1218 l 1
 905 1195 825 1186 766 1194 c 0
 736 1198 712 1207 698 1217 c 0
 684 1227 679 1236 679 1253 c 0
 679 1284 703 1325 741 1353 c 0
 779 1381 829 1396 877 1384 c 1
 893 1452 l 1
 875 1456 857 1458 840 1458 c 0
EndSplineSet
Validated: 553
EndChar

StartChar: "+/tkA"
Encoding: 227 1603 30
Width: 1606
Flags: HW
AnchorPoint: "Anchor-5" 762 1636 basechar 0
AnchorPoint: "Anchor-3" 764 92 basechar 0
LayerCount: 2
Fore
SplineSet
1345 1528 m 1
 1233 1463 l 1
 1349 1262 1398 1095 1398 807 c 0
 1398 745 1380 689 1342 648 c 0
 1304 607 1211 577 941 577 c 0
 703 577 486 583 355 627 c 0
 268 657 208 701 208 793 c 0
 208 841 225 894 238 943 c 1
 114 976 l 1
 97 911 80 863 80 794 c 0
 80 654 153 561 314 504 c 0
 479 445 702 448 941 448 c 0
 1284 448 1371 491 1436 560 c 0
 1501 629 1527 720 1527 807 c 0
 1527 1111 1469 1313 1345 1528 c 1
840 1458 m 0
 788 1458 738 1438 699 1409 c 0
 647 1370 609 1315 609 1253 c 0
 609 1215 629 1181 657 1161 c 0
 685 1141 719 1130 756 1125 c 0
 770 1123 784 1121 799 1121 c 2
 654 1037 l 1
 689 976 l 1
 997 1155 l 1
 968 1218 l 1
 905 1195 825 1186 766 1194 c 0
 736 1198 712 1207 698 1217 c 0
 684 1227 679 1236 679 1253 c 0
 679 1284 703 1325 741 1353 c 0
 779 1381 829 1396 877 1384 c 1
 893 1452 l 1
 875 1456 857 1458 840 1458 c 0
EndSplineSet
Validated: 553
Substitution2: "'fina' Terminal Forms in Arabic lookup 4-1" ﻚ
Substitution2: "'medi' Medial Forms in Arabic lookup 3-1" ﻜ
Substitution2: "'medi' Medial Forms in Arabic lookup 3-1" ﻜ
Substitution2: "'init' Initial Forms in Arabic lookup 2-1" ﻛ
Substitution2: "'init' Initial Forms in Arabic lookup 2-1" ﻛ
EndChar

StartChar: "+Bq8A"
Encoding: 260 1711 31
Width: 1762
Flags: W
HStem: 448 129<475.783 1305.32>
VStem: 80 128<685.548 950.88> 872 128<1252.16 1376.51> 1398 129<661.499 914.336>
AnchorPoint: "Anchor-5" 646 1639 basechar 0
AnchorPoint: "Anchor-3" 873 120 basechar 0
LayerCount: 2
Fore
SplineSet
1514 2055 m 1
 985 1700 l 1
 1024 1642 l 1
 1553 1997 l 1
 1514 2055 l 1
1612 1911 m 1
 995 1503 l 2
 919 1453 870 1384 872 1307 c 0
 874 1230 928 1164 1007 1126 c 0
 1163 1051 1267 992 1325 942 c 0
 1383 892 1398 860 1398 807 c 0
 1398 745 1380 689 1342 648 c 0
 1304 607 1211 577 941 577 c 0
 703 577 486 583 355 627 c 0
 268 657 208 701 208 793 c 0
 208 841 225 894 238 943 c 1
 114 976 l 1
 97 911 80 863 80 794 c 0
 80 654 153 561 314 504 c 0
 479 445 702 448 941 448 c 0
 1284 448 1371 491 1436 560 c 0
 1501 629 1527 720 1527 807 c 0
 1527 894 1485 975 1409 1040 c 0
 1333 1105 1223 1165 1063 1242 c 0
 1012 1266 1000 1291 1000 1310 c 0
 1000 1329 1014 1360 1066 1395 c 2
 1683 1803 l 1
 1612 1911 l 1
EndSplineSet
Validated: 553
Substitution2: "'fina' Terminal Forms in Arabic lookup 4-1" ﮓ
Substitution2: "'medi' Medial Forms in Arabic lookup 3-1" ﮕ
Substitution2: "'init' Initial Forms in Arabic lookup 2-1" ﮔ
EndChar

StartChar: "+BkQA"
Encoding: 228 1604 32
Width: 1464
Flags: HW
AnchorPoint: "Anchor-5" 602 1230 basechar 0
AnchorPoint: "Anchor-3" 722 -411 basechar 0
LayerCount: 2
Fore
SplineSet
1256 1665 m 1
 1256 473 l 2
 1256 195 910 -3 676 -3 c 0
 430 -3 209 122 209 341 c 0
 209 495 330 687 666 839 c 1
 613 956 l 1
 250 792 80 558 80 341 c 0
 80 36 383 -132 676 -132 c 0
 993 -132 1384 119 1384 473 c 2
 1384 1665 l 1
 1256 1665 l 1
EndSplineSet
Validated: 521
Substitution2: "'fina' Terminal Forms in Arabic lookup 4-1" ﻞ
Substitution2: "'medi' Medial Forms in Arabic lookup 3-1" ﻠ
Substitution2: "'init' Initial Forms in Arabic lookup 2-1" ﻟ
EndChar

StartChar: "+BkUA"
Encoding: 229 1605 33
Width: 1090
Flags: HW
AnchorPoint: "Anchor-5" 631 1325 basechar 0
AnchorPoint: "Anchor-3" 609 -315 basechar 0
LayerCount: 2
Fore
SplineSet
80 -422 m 1
 209 -422 l 1
 209 261 l 2
 209 402 254 465 411 465 c 0
 501 465 618 448 734 448 c 0
 929 455 1010 571 1010 716 c 0
 1010 905 814 1093 632 1093 c 0
 546 1093 481 1035 440 968 c 0
 399 901 370 818 338 731 c 2
 281 575 l 1
 110 533 80 379 80 262 c 2
 80 -422 l 1
550 901 m 0
 580 950 600 965 632 965 c 0
 733 965 879 843 882 716 c 0
 882 597 804 578 734 577 c 0
 638 577 528 595 425 595 c 1
 459 686 l 2
 491 773 520 852 550 901 c 0
EndSplineSet
Validated: 521
Substitution2: "'fina' Terminal Forms in Arabic lookup 4-1" ﻢ
Substitution2: "'medi' Medial Forms in Arabic lookup 3-1" ﻤ
Substitution2: "'init' Initial Forms in Arabic lookup 2-1" ﻣ
EndChar

StartChar: "+BkYA"
Encoding: 230 1606 34
Width: 1474
Flags: HW
AnchorPoint: "Anchor-5" 776 1193 basechar 0
AnchorPoint: "Anchor-3" 677 -215 basechar 0
LayerCount: 2
Fore
SplineSet
613 956 m 1
 250 792 80 558 80 341 c 0
 80 318 81 296 85 274 c 0
 124 39 361 -132 676 -132 c 0
 921 -132 1188 7 1314 226 c 0
 1369 321 1396 437 1396 559 c 0
 1396 678 1370 803 1319 923 c 2
 1305 956 l 1
 1186 905 l 1
 1201 872 l 2
 1245 769 1265 661 1265 561 c 0
 1265 457 1243 362 1202 290 c 0
 1105 122 869 -3 676 -3 c 0
 406 -3 239 134 213 295 c 0
 211 310 209 325 209 341 c 0
 209 495 330 687 666 839 c 1
 613 956 l 1
692 628 m 1
 692 448 l 1
 872 448 l 1
 872 628 l 1
 692 628 l 1
EndSplineSet
Validated: 521
Substitution2: "'fina' Terminal Forms in Arabic lookup 4-1" ﻦ
Substitution2: "'medi' Medial Forms in Arabic lookup 3-1" ﻨ
Substitution2: "'init' Initial Forms in Arabic lookup 2-1" ﻧ
EndChar

StartChar: "+BkgA"
Encoding: 232 1608 35
Width: 764
Flags: HW
AnchorPoint: "Anchor-5" 390 1284 basechar 0
AnchorPoint: "Anchor-3" 368 -256 basechar 0
LayerCount: 2
Fore
SplineSet
393 1093 m 0
 222 1093 80 904 80 726 c 0
 80 557 205 448 395 448 c 0
 452 448 493 456 545 468 c 1
 499 266 328 137 124 57 c 1
 170 -64 l 1
 481 57 685 273 685 582 c 0
 685 773 601 1093 393 1093 c 0
393 964 m 0
 486 964 549 751 556 601 c 1
 504 587 449 578 399 578 c 0
 294 578 209 617 209 729 c 0
 209 842 303 964 393 964 c 0
EndSplineSet
Validated: 521
Substitution2: "'fina' Terminal Forms in Arabic lookup 4-1" ﻮ
EndChar

StartChar: "+BiQA"
Encoding: 196 1572 36
Width: 764
Flags: HW
AnchorPoint: "Anchor-5" 404 1808 basechar 0
AnchorPoint: "Anchor-3" 418 -294 basechar 0
LayerCount: 2
Fore
SplineSet
420 1665 m 0
 368 1665 318 1645 279 1616 c 0
 227 1577 189 1522 189 1460 c 0
 189 1422 208 1388 236 1368 c 0
 264 1348 298 1337 335 1332 c 0
 349 1330 364 1328 379 1328 c 2
 233 1244 l 1
 268 1184 l 1
 577 1362 l 1
 547 1425 l 1
 484 1402 404 1393 345 1401 c 0
 315 1405 292 1414 278 1424 c 0
 264 1434 259 1443 259 1460 c 0
 259 1491 282 1532 320 1560 c 0
 358 1588 408 1603 456 1591 c 1
 473 1659 l 1
 455 1663 437 1665 420 1665 c 0
393 1093 m 0
 222 1093 80 904 80 726 c 0
 80 557 205 448 395 448 c 0
 452 448 493 456 545 468 c 1
 499 266 328 137 124 57 c 1
 170 -64 l 1
 481 57 685 273 685 582 c 0
 685 773 601 1093 393 1093 c 0
393 964 m 0
 486 964 549 751 556 601 c 1
 504 587 449 578 399 578 c 0
 294 578 209 617 209 729 c 0
 209 842 303 964 393 964 c 0
EndSplineSet
Validated: 553
LCarets2: 1 0
Ligature2: "'liga' Standard Ligatures in Arabic lookup 0 subtable" و ٔ
Substitution2: "'fina' Terminal Forms in Arabic lookup 4-1" ﺆ
EndChar

StartChar: "+BsoA"
Encoding: 261 1738 37
Width: 764
Flags: HW
AnchorPoint: "Anchor-5" 388 1638 basechar 0
AnchorPoint: "Anchor-3" 376 -284 basechar 0
LayerCount: 2
Fore
SplineSet
193 1373 m 1
 193 1233 l 1
 592 1233 l 1
 592 1373 l 1
 193 1373 l 1
393 1093 m 0
 222 1093 80 904 80 726 c 0
 80 557 205 448 395 448 c 0
 452 448 493 456 545 468 c 1
 499 266 328 137 124 57 c 1
 170 -64 l 1
 481 57 685 273 685 582 c 0
 685 773 601 1093 393 1093 c 0
393 964 m 0
 486 964 549 751 556 601 c 1
 504 587 449 578 399 578 c 0
 294 578 209 617 209 729 c 0
 209 842 303 964 393 964 c 0
EndSplineSet
Validated: 521
EndChar

StartChar: "+BkcA"
Encoding: 231 1607 38
Width: 658
Flags: W
HStem: 448 129<230.012 432.294>
VStem: 80 129<610.898 829.515>
AnchorPoint: "Anchor-5" 277 1335 basechar 0
AnchorPoint: "Anchor-3" 329 219 basechar 0
LayerCount: 2
Fore
SplineSet
250 1116 m 1
 185 1004 l 1
 213 988 l 1
 133 909 83 803 80 699 c 0
 78 637 95 573 139 524 c 0
 183 475 252 448 333 448 c 0
 415 448 484 476 528 528 c 0
 572 580 586 648 578 715 c 0
 562 849 466 990 306 1083 c 2
 250 1116 l 1
321 913 m 1
 399 844 443 762 450 700 c 0
 455 659 446 630 430 611 c 0
 414 592 388 577 333 577 c 0
 278 577 251 591 234 610 c 0
 217 629 208 658 209 696 c 0
 211 767 256 858 321 913 c 1
EndSplineSet
Validated: 553
Substitution2: "'fina' Terminal Forms in Arabic lookup 4-1" ﻪ
Substitution2: "'medi' Medial Forms in Arabic lookup 3-1" ﻬ
Substitution2: "'init' Initial Forms in Arabic lookup 2-1" ﻫ
EndChar

StartChar: "+BsAA"
Encoding: 262 1728 39
Width: 658
Flags: W
HStem: 448 129<230.012 432.294> 1328 73<212.647 324.09> 1591 74<268.79 403>
VStem: 80 129<610.898 829.515> 136 70<1415.69 1534.71>
AnchorPoint: "Anchor-5" 318 1900 basechar 0
AnchorPoint: "Anchor-3" 335 245 basechar 0
LayerCount: 2
Fore
SplineSet
367 1665 m 0xe8
 315 1665 265 1645 226 1616 c 0
 174 1577 136 1522 136 1460 c 0
 136 1422 155 1388 183 1368 c 0
 211 1348 246 1337 283 1332 c 0
 297 1330 311 1328 326 1328 c 2
 180 1244 l 1
 215 1184 l 1
 524 1362 l 1
 494 1425 l 1
 431 1402 351 1393 292 1401 c 0
 262 1405 239 1414 225 1424 c 0
 211 1434 206 1443 206 1460 c 0
 206 1491 229 1532 267 1560 c 0
 305 1588 355 1603 403 1591 c 1
 420 1659 l 1
 402 1663 384 1665 367 1665 c 0xe8
250 1116 m 1
 185 1004 l 1
 213 988 l 1
 133 909 83 803 80 699 c 0xf0
 78 637 95 573 139 524 c 0
 183 475 252 448 333 448 c 0
 415 448 484 476 528 528 c 0
 572 580 586 648 578 715 c 0
 562 849 466 990 306 1083 c 2
 250 1116 l 1
321 913 m 1
 399 844 443 762 450 700 c 0
 455 659 446 630 430 611 c 0
 414 592 388 577 333 577 c 0
 278 577 251 591 234 610 c 0
 217 629 208 658 209 696 c 0
 211 767 256 858 321 913 c 1
EndSplineSet
Validated: 553
LCarets2: 1 0
Ligature2: "'liga' Standard Ligatures in Arabic lookup 0 subtable" ه ٔ
Substitution2: "'fina' Terminal Forms in Arabic lookup 4-1" ﮥ
EndChar

StartChar: "+/pMA"
Encoding: 263 65171 40
Width: 658
Flags: W
HStem: 448 129<231.347 432.294>
VStem: 80 129<610.898 829.515>
AnchorPoint: "Anchor-5" 310 1634 basechar 0
AnchorPoint: "Anchor-3" 338 217 basechar 0
LayerCount: 2
Fore
SplineSet
130 1373 m 1
 130 1233 l 1
 529 1233 l 1
 529 1373 l 1
 130 1373 l 1
250 1116 m 1
 185 1004 l 1
 213 988 l 1
 133 909 83 803 80 699 c 0
 78 637 94 573 138 524 c 0
 182 475 252 448 333 448 c 0
 415 448 484 476 528 528 c 0
 572 580 586 648 578 715 c 0
 562 849 466 990 306 1083 c 2
 250 1116 l 1
321 913 m 1
 399 844 443 762 450 700 c 0
 455 659 446 630 430 611 c 0
 414 592 388 577 333 577 c 0
 278 577 251 591 234 610 c 0
 217 629 208 658 209 696 c 0
 211 767 256 858 321 913 c 1
EndSplineSet
Validated: 553
EndChar

StartChar: "+BswA"
Encoding: 264 1740 41
Width: 1356
Flags: HW
AnchorPoint: "Anchor-5" 448 922 basechar 0
AnchorPoint: "Anchor-3" 671 -408 basechar 0
LayerCount: 2
Fore
SplineSet
372 657 m 5
 268 560 209 429 209 341 c 4
 209 131 414 -3 676 -3 c 4
 842 -3 963 41 1039 105 c 4
 1115 169 1151 251 1148 343 c 4
 1146 402 1131 424 1108 443 c 4
 1085 462 1047 476 997 485 c 4
 897 504 757 498 654 589 c 4
 597 640 585 720 602 787 c 4
 619 854 661 917 715 972 c 4
 797 1055 915 1122 1041 1125 c 4
 1110 1125 1172 1116 1231 1082 c 5
 1188 961 l 5
 1142 987 1101 996 1046 996 c 4
 962 996 872 948 807 882 c 4
 765 840 736 792 727 755 c 4
 718 718 722 702 740 686 c 4
 790 641 903 634 1020 612 c 4
 1078 601 1139 585 1190 543 c 4
 1241 501 1273 432 1276 347 c 6
 1280 217 1225 93 1121 6 c 4
 1017 -81 865 -132 676 -132 c 4
 388 -132 80 31 80 341 c 4
 80 467 144 626 285 750 c 5
 372 657 l 5
EndSplineSet
Validated: 545
Substitution2: "'fina' Terminal Forms in Arabic lookup 4-1" ﻰ
Substitution2: "'medi' Medial Forms in Arabic lookup 3-1" ﻴ
Substitution2: "'init' Initial Forms in Arabic lookup 2-1" ﻳ
EndChar

StartChar: "+BiYA"
Encoding: 198 1574 42
Width: 1356
Flags: HW
AnchorPoint: "Anchor-5" 555 1576 basechar 0
AnchorPoint: "Anchor-3" 683 -418 basechar 0
LayerCount: 2
Fore
SplineSet
599 1458 m 4
 547 1458 497 1438 458 1409 c 4
 406 1370 368 1315 368 1253 c 4
 368 1215 388 1181 416 1161 c 4
 444 1141 478 1130 515 1125 c 4
 529 1123 543 1121 558 1121 c 6
 412 1037 l 5
 447 976 l 5
 756 1155 l 5
 727 1218 l 5
 664 1195 584 1186 525 1194 c 4
 495 1198 471 1207 457 1217 c 4
 443 1227 438 1236 438 1253 c 4
 438 1284 462 1325 500 1353 c 4
 538 1381 588 1396 636 1384 c 5
 652 1452 l 5
 634 1456 616 1458 599 1458 c 4
1041 1125 m 4
 915 1122 797 1055 715 972 c 4
 661 917 619 854 602 787 c 4
 585 720 597 640 654 589 c 4
 757 498 897 504 997 485 c 4
 1047 476 1085 462 1108 443 c 4
 1131 424 1146 402 1148 343 c 4
 1151 251 1115 169 1039 105 c 4
 963 41 842 -3 676 -3 c 4
 414 -3 209 131 209 341 c 4
 209 429 268 560 372 657 c 5
 285 750 l 5
 144 626 80 467 80 341 c 4
 80 31 388 -132 676 -132 c 4
 865 -132 1017 -81 1121 6 c 4
 1225 93 1280 217 1276 347 c 6
 1273 432 1241 501 1190 543 c 4
 1139 585 1078 601 1020 612 c 4
 903 634 790 641 740 686 c 4
 722 702 718 718 727 755 c 4
 736 792 765 840 807 882 c 4
 872 948 962 996 1046 996 c 4
 1101 996 1142 987 1188 961 c 5
 1231 1082 l 5
 1172 1116 1110 1125 1041 1125 c 4
EndSplineSet
Validated: 553
LCarets2: 1 0
Ligature2: "'liga' Standard Ligatures in Arabic lookup 0 subtable" ی ٔ
Substitution2: "'fina' Terminal Forms in Arabic lookup 4-1" ﺊ
Substitution2: "'medi' Medial Forms in Arabic lookup 3-1" ﺌ
Substitution2: "'init' Initial Forms in Arabic lookup 2-1" ﺋ
EndChar

StartChar: "+BkoA"
Encoding: 234 1610 43
Width: 1356
Flags: HW
AnchorPoint: "Anchor-5" 474 1120 basechar 0
AnchorPoint: "Anchor-3" 663 -633 basechar 0
LayerCount: 2
Fore
SplineSet
1041 1125 m 4
 915 1122 797 1055 715 972 c 4
 661 917 619 854 602 787 c 4
 585 720 597 640 654 589 c 4
 757 498 897 504 997 485 c 4
 1047 476 1085 462 1108 443 c 4
 1131 424 1146 402 1148 343 c 4
 1151 251 1115 169 1039 105 c 4
 963 41 842 -3 676 -3 c 4
 414 -3 209 131 209 341 c 4
 209 429 268 560 372 657 c 5
 285 750 l 5
 144 626 80 467 80 341 c 4
 80 31 388 -132 676 -132 c 4
 865 -132 1017 -81 1121 6 c 4
 1225 93 1280 217 1276 347 c 6
 1273 432 1241 501 1190 543 c 4
 1139 585 1078 601 1020 612 c 4
 903 634 790 641 740 686 c 4
 722 702 718 718 727 755 c 4
 736 792 765 840 807 882 c 4
 872 948 962 996 1046 996 c 4
 1101 996 1142 987 1188 961 c 5
 1231 1082 l 5
 1172 1116 1110 1125 1041 1125 c 4
467 -282 m 5
 467 -422 l 5
 866 -422 l 5
 866 -282 l 5
 467 -282 l 5
EndSplineSet
Validated: 553
Substitution2: "'fina' Terminal Forms in Arabic lookup 4-1" ﻲ
Substitution2: "'medi' Medial Forms in Arabic lookup 3-1" ﻴ
Substitution2: "'init' Initial Forms in Arabic lookup 2-1" ﻳ
EndChar

StartChar: "+/pEA"
Encoding: 265 65169 44
Width: 458
Flags: W
HStem: 448 129<-4 178.537>
VStem: 249 129<644.375 1013.62>
AnchorPoint: "Anchor-5" 302 1229 basechar 0
AnchorPoint: "Anchor-3" 147 -34 basechar 0
LayerCount: 2
Fore
SplineSet
314 1092 m 1
 193 1048 l 1
 238 925 252 833 249 769 c 0
 246 705 228 668 204 642 c 0
 156 590 64 577 -4 577 c 1
 -4 448 l 1
 77 448 208 457 299 555 c 0
 344 604 374 675 378 763 c 0
 382 851 363 958 314 1092 c 1
56 268 m 1
 56 88 l 1
 236 88 l 1
 236 268 l 1
 56 268 l 1
EndSplineSet
Validated: 553
EndChar

StartChar: "++1gA"
Encoding: 266 64344 45
Width: 459
Flags: HW
AnchorPoint: "Anchor-5" 226 1214 basechar 0
AnchorPoint: "Anchor-3" 210 -221 basechar 0
LayerCount: 2
Fore
SplineSet
315 1092 m 1
 194 1048 l 1
 239 925 253 833 250 769 c 0
 247 705 229 668 205 642 c 0
 157 590 65 577 -3 577 c 1
 -3 448 l 1
 78 448 208 457 299 555 c 0
 344 604 375 675 379 763 c 0
 383 851 364 958 315 1092 c 1
5 308 m 1
 5 168 l 1
 238 168 l 1
 121 -35 l 1
 243 -105 l 1
 420 203 l 1
 359 308 l 1
 5 308 l 1
EndSplineSet
Validated: 553
EndChar

StartChar: "+/pcA"
Encoding: 267 65175 46
Width: 459
Flags: HW
AnchorPoint: "Anchor-5" 198 1498 basechar 0
AnchorPoint: "Anchor-3" 214 223 basechar 0
LayerCount: 2
Fore
SplineSet
7 1396 m 1
 7 1256 l 1
 406 1256 l 1
 406 1396 l 1
 7 1396 l 1
316 1092 m 1
 195 1048 l 1
 240 925 254 833 251 769 c 0
 248 705 229 668 205 642 c 0
 157 590 65 577 -3 577 c 1
 -3 448 l 1
 78 448 209 457 300 555 c 0
 345 604 376 675 380 763 c 0
 384 851 365 958 316 1092 c 1
EndSplineSet
Validated: 553
EndChar

StartChar: "+/psA"
Encoding: 268 65179 47
Width: 459
Flags: HW
AnchorPoint: "Anchor-5" 197 1779 basechar 0
AnchorPoint: "Anchor-3" 226 226 basechar 0
LayerCount: 2
Fore
SplineSet
238 1668 m 1
 116 1598 l 1
 233 1396 l 1
 0 1396 l 1
 0 1256 l 1
 354 1256 l 1
 415 1360 l 1
 238 1668 l 1
315 1092 m 1
 194 1048 l 1
 239 925 253 833 250 769 c 0
 247 705 229 668 205 642 c 0
 157 590 65 577 -3 577 c 1
 -3 448 l 1
 78 448 208 457 299 555 c 0
 344 604 375 675 379 763 c 0
 383 851 364 958 315 1092 c 1
EndSplineSet
Validated: 553
EndChar

StartChar: "+/p8A"
Encoding: 269 65183 48
Width: 1116
Flags: HW
AnchorPoint: "Anchor-5" 330 1343 basechar 0
AnchorPoint: "Anchor-3" 529 -75 basechar 0
LayerCount: 2
Fore
SplineSet
331 1092 m 0
 168 1092 91 1000 51 852 c 1
 176 819 l 1
 197 918 259 963 331 963 c 0
 450 963 625 877 775 840 c 1
 568 673 480 577 164 577 c 2
 -4 577 l 1
 -4 448 l 1
 164 448 l 2
 692 448 755 746 1036 836 c 1
 995 958 l 1
 973 951 950 948 924 948 c 0
 748 948 530 1092 331 1092 c 0
438 317 m 1
 438 137 l 1
 618 137 l 1
 618 317 l 1
 438 317 l 1
EndSplineSet
Validated: 517
EndChar

StartChar: "++3wA"
Encoding: 270 64380 49
Width: 1116
Flags: HW
AnchorPoint: "Anchor-5" 340 1325 basechar 0
AnchorPoint: "Anchor-3" 529 -235 basechar 0
LayerCount: 2
Fore
SplineSet
331 1092 m 0
 168 1092 91 1000 51 852 c 1
 176 818 l 1
 197 917 259 963 331 963 c 0
 450 963 625 877 775 840 c 1
 568 673 480 577 164 577 c 2
 -4 577 l 1
 -4 448 l 1
 164 448 l 2
 692 448 755 746 1036 836 c 1
 995 958 l 1
 973 951 950 948 924 948 c 0
 748 948 530 1092 331 1092 c 0
287 346 m 1
 287 206 l 1
 520 206 l 1
 403 3 l 1
 525 -67 l 1
 702 241 l 1
 641 346 l 1
 287 346 l 1
EndSplineSet
Validated: 517
EndChar

StartChar: "+/qMA"
Encoding: 271 65187 50
Width: 1116
Flags: HW
AnchorPoint: "Anchor-5" 337 1343 basechar 0
AnchorPoint: "Anchor-3" 292 157 basechar 0
LayerCount: 2
Fore
SplineSet
995 958 m 1
 973 951 950 948 924 948 c 0
 748 948 530 1092 331 1092 c 0
 168 1092 91 1000 51 852 c 1
 176 819 l 1
 197 918 259 963 331 963 c 0
 450 963 625 877 775 840 c 1
 568 673 480 577 164 577 c 2
 -4 577 l 1
 -4 448 l 1
 164 448 l 2
 692 448 755 746 1036 836 c 1
 995 958 l 1
EndSplineSet
Validated: 517
EndChar

StartChar: "+/qcA"
Encoding: 272 65191 51
Width: 1116
Flags: HW
AnchorPoint: "Anchor-5" 328 1597 basechar 0
AnchorPoint: "Anchor-3" 352 205 basechar 0
LayerCount: 2
Fore
SplineSet
247 1421 m 1
 247 1241 l 1
 427 1241 l 1
 427 1421 l 1
 247 1421 l 1
331 1092 m 0
 168 1092 91 1000 51 852 c 1
 176 818 l 1
 197 917 259 963 331 963 c 0
 450 963 625 877 775 840 c 1
 568 673 480 577 164 577 c 2
 -4 577 l 1
 -4 448 l 1
 164 448 l 2
 692 448 755 746 1036 836 c 1
 995 958 l 1
 973 951 950 948 924 948 c 0
 748 948 530 1092 331 1092 c 0
EndSplineSet
Validated: 517
EndChar

StartChar: "+/rMA"
Encoding: 273 65203 52
Width: 1472
Flags: HW
AnchorPoint: "Anchor-5" 820 1218 basechar 0
AnchorPoint: "Anchor-3" 815 138 basechar 0
LayerCount: 2
Fore
SplineSet
734 654 m 0
 757 705 760 795 760 897 c 1
 889 897 l 1
 889 795 892 705 915 654 c 0
 941 596 989 577 1078 577 c 0
 1185 577 1264 658 1264 766 c 0
 1264 815 1247 869 1206 924 c 1
 1309 1001 l 1
 1365 925 1392 842 1392 764 c 0
 1392 586 1251 448 1078 448 c 0
 967 448 876 476 825 559 c 1
 774 476 682 448 571 448 c 0
 460 448 369 476 318 559 c 1
 260 484 150 448 -4 448 c 1
 -4 577 l 1
 145 577 193 611 221 660 c 0
 249 709 254 795 254 897 c 1
 383 897 l 1
 383 795 386 705 409 654 c 0
 435 596 482 577 571 577 c 0
 660 577 708 596 734 654 c 0
EndSplineSet
Validated: 513
EndChar

StartChar: "+/rcA"
Encoding: 274 65207 53
Width: 1472
Flags: HW
AnchorPoint: "Anchor-5" 845 1634 basechar 0
AnchorPoint: "Anchor-3" 737 177 basechar 0
LayerCount: 2
Fore
SplineSet
869 1505 m 1
 748 1435 l 1
 864 1232 l 1
 631 1232 l 1
 631 1092 l 1
 985 1092 l 1
 1046 1197 l 1
 869 1505 l 1
1309 1001 m 1
 1206 924 l 1
 1247 869 1264 815 1264 766 c 0
 1264 658 1185 577 1078 577 c 0
 989 577 941 596 915 654 c 0
 892 705 889 795 889 897 c 1
 760 897 l 1
 760 795 757 705 734 654 c 0
 708 596 660 577 571 577 c 0
 482 577 435 596 409 654 c 0
 386 705 383 795 383 897 c 1
 254 897 l 1
 254 795 249 709 221 660 c 0
 193 611 145 577 -4 577 c 1
 -4 448 l 1
 150 448 260 484 318 559 c 1
 369 476 460 448 571 448 c 0
 682 448 774 476 825 559 c 1
 876 476 967 448 1078 448 c 0
 1251 448 1392 586 1392 764 c 0
 1392 842 1365 925 1309 1001 c 1
EndSplineSet
Validated: 521
EndChar

StartChar: "+/rsA"
Encoding: 275 65211 54
Width: 1208
Flags: HW
AnchorPoint: "Anchor-5" 864 1322 basechar 0
AnchorPoint: "Anchor-3" 594 146 basechar 0
LayerCount: 2
Fore
SplineSet
189 897 m 1
 189 803 185 715 161 661 c 0
 137 607 107 577 -4 577 c 1
 -4 448 l 1
 92 448 165 480 217 527 c 1
 296 436 443 448 531 448 c 0
 667 448 855 485 955 549 c 0
 1055 613 1129 710 1129 827 c 0
 1129 962 1021 1093 865 1093 c 0
 734 1093 624 1003 535 899 c 0
 451 801 386 686 347 590 c 1
 325 592 317 604 315 613 c 0
 308 644 328 761 317 903 c 1
 189 897 l 1
1000 827 m 0
 1000 764 960 705 885 657 c 0
 810 609 703 575 590 575 c 2
 484 575 l 1
 519 651 570 742 633 816 c 0
 710 906 798 964 865 964 c 0
 949 964 1000 895 1000 827 c 0
EndSplineSet
Validated: 553
EndChar

StartChar: "+/r8A"
Encoding: 276 65215 55
Width: 1208
Flags: HW
AnchorPoint: "Anchor-5" 861 1571 basechar 0
AnchorPoint: "Anchor-3" 584 168 basechar 0
LayerCount: 2
Fore
SplineSet
773 1421 m 1
 773 1241 l 1
 953 1241 l 1
 953 1421 l 1
 773 1421 l 1
865 1093 m 0
 734 1093 624 1003 535 899 c 0
 451 801 386 686 347 590 c 1
 325 592 317 604 315 613 c 0
 308 644 328 761 317 903 c 1
 189 897 l 1
 189 803 186 715 162 661 c 0
 138 607 107 577 -4 577 c 1
 -4 448 l 1
 92 448 165 480 217 527 c 1
 296 436 444 448 531 448 c 0
 667 448 855 485 955 549 c 0
 1055 613 1129 710 1129 827 c 0
 1129 962 1021 1093 865 1093 c 0
865 964 m 0
 949 964 1000 895 1000 827 c 0
 1000 764 960 705 885 657 c 0
 810 609 703 575 590 575 c 2
 484 575 l 1
 519 651 570 742 633 816 c 0
 710 906 798 964 865 964 c 0
EndSplineSet
Validated: 553
EndChar

StartChar: "+/sMA"
Encoding: 277 65219 56
Width: 1092
Flags: HW
AnchorPoint: "Anchor-5" 753 1411 basechar 0
AnchorPoint: "Anchor-3" 512 205 basechar 0
LayerCount: 2
Fore
SplineSet
182 1665 m 1
 182 575 l 1
 -4 575 l 1
 -4 448 l 1
 416 448 l 2
 552 448 739 485 839 549 c 0
 939 613 1013 710 1013 827 c 0
 1013 962 905 1093 749 1093 c 0
 618 1093 508 1003 419 899 c 0
 378 851 342 800 311 748 c 1
 311 1665 l 1
 182 1665 l 1
749 964 m 0
 833 964 884 895 884 827 c 0
 884 764 845 705 770 657 c 0
 695 609 587 575 474 575 c 2
 369 575 l 1
 404 651 454 742 517 816 c 0
 594 906 682 964 749 964 c 0
EndSplineSet
Validated: 521
EndChar

StartChar: "+/scA"
Encoding: 278 65223 57
Width: 1092
Flags: HW
AnchorPoint: "Anchor-5" 737 1607 basechar 0
AnchorPoint: "Anchor-3" 502 219 basechar 0
LayerCount: 2
Fore
SplineSet
182 1665 m 1
 182 575 l 1
 -4 575 l 1
 -4 448 l 1
 416 448 l 2
 552 448 739 485 839 549 c 0
 939 613 1013 710 1013 827 c 0
 1013 962 905 1093 749 1093 c 0
 618 1093 508 1003 419 899 c 0
 378 851 342 800 311 748 c 1
 311 1665 l 1
 182 1665 l 1
657 1421 m 1
 657 1241 l 1
 837 1241 l 1
 837 1421 l 1
 657 1421 l 1
749 964 m 0
 833 964 884 895 884 827 c 0
 884 764 845 705 770 657 c 0
 695 609 587 575 474 575 c 2
 369 575 l 1
 404 651 454 742 517 816 c 0
 594 906 682 964 749 964 c 0
EndSplineSet
Validated: 521
EndChar

StartChar: "+/ssA"
Encoding: 279 65227 58
Width: 708
Flags: HW
AnchorPoint: "Anchor-5" 395 1341 basechar 0
AnchorPoint: "Anchor-3" 333 196 basechar 0
LayerCount: 2
Fore
SplineSet
-4 448 m 1
 628 448 l 1
 628 575 l 1
 503 575 177 557 177 727 c 0
 177 845 263 964 401 964 c 0
 454 964 493 950 545 936 c 1
 578 1060 l 1
 520 1077 455 1093 401 1093 c 0
 185 1093 48 914 48 727 c 0
 48 666 67 615 101 575 c 1
 -4 575 l 1
 -4 448 l 1
EndSplineSet
Validated: 553
EndChar

StartChar: "+/s8A"
Encoding: 280 65231 59
Width: 708
Flags: HW
AnchorPoint: "Anchor-5" 406 1547 basechar 0
AnchorPoint: "Anchor-3" 344 179 basechar 0
LayerCount: 2
Fore
SplineSet
310 1421 m 1
 310 1241 l 1
 490 1241 l 1
 490 1421 l 1
 310 1421 l 1
401 1093 m 0
 185 1093 48 914 48 727 c 0
 48 666 67 615 101 575 c 1
 -4 575 l 1
 -4 448 l 1
 628 448 l 1
 628 575 l 1
 503 575 177 557 177 727 c 0
 177 845 263 964 401 964 c 0
 454 964 493 950 545 936 c 1
 578 1060 l 1
 520 1077 455 1093 401 1093 c 0
EndSplineSet
Validated: 553
EndChar

StartChar: "+/tMA"
Encoding: 281 65235 60
Width: 742
Flags: HW
AnchorPoint: "Anchor-5" 357 1857 basechar 0
AnchorPoint: "Anchor-3" 355 202 basechar 0
LayerCount: 2
Fore
SplineSet
276 1696 m 1
 276 1516 l 1
 456 1516 l 1
 456 1696 l 1
 276 1696 l 1
366 1336 m 0
 195 1336 54 1147 54 969 c 0
 54 800 179 691 369 691 c 0
 405 691 444 695 484 703 c 1
 458 673 421 649 371 630 c 0
 277 594 143 579 -4 579 c 1
 -4 449 l 1
 150 449 298 464 417 510 c 0
 584 575 663 692 663 855 c 0
 663 1026 564 1336 366 1336 c 0
366 1207 m 0
 454 1207 538 981 534 845 c 1
 481 830 424 821 373 821 c 0
 268 821 182 860 182 972 c 0
 182 1085 276 1207 366 1207 c 0
EndSplineSet
Validated: 553
EndChar

StartChar: "+/tcA"
Encoding: 282 65239 61
Width: 742
Flags: HW
AnchorPoint: "Anchor-5" 349 1784 basechar 0
AnchorPoint: "Anchor-3" 363 194 basechar 0
LayerCount: 2
Fore
SplineSet
154 1627 m 1
 154 1487 l 1
 553 1487 l 1
 553 1627 l 1
 154 1627 l 1
366 1336 m 0
 195 1336 54 1147 54 969 c 0
 54 800 179 691 369 691 c 0
 405 691 444 695 484 703 c 1
 458 673 421 649 371 630 c 0
 277 594 143 579 -4 579 c 1
 -4 449 l 1
 150 449 298 464 417 510 c 0
 584 575 663 692 663 855 c 0
 663 1026 564 1336 366 1336 c 0
366 1207 m 0
 454 1207 538 981 534 845 c 1
 481 830 424 821 373 821 c 0
 268 821 182 860 182 972 c 0
 182 1085 276 1207 366 1207 c 0
EndSplineSet
Validated: 553
EndChar

StartChar: "+/tsA"
Encoding: 283 65243 62
Width: 938
Flags: HW
AnchorPoint: "Anchor-5" 318 1774 basechar 0
AnchorPoint: "Anchor-3" 353 206 basechar 0
LayerCount: 2
Fore
SplineSet
-4 448 m 1
 316 448 l 2
 447 448 548 491 613 560 c 0
 678 629 704 720 704 807 c 0
 704 894 662 975 586 1040 c 0
 510 1105 400 1165 240 1242 c 0
 189 1266 178 1291 178 1310 c 0
 178 1329 191 1360 243 1395 c 2
 860 1803 l 1
 789 1911 l 1
 172 1503 l 2
 96 1453 47 1384 49 1307 c 0
 51 1230 106 1164 185 1126 c 0
 341 1051 444 992 502 942 c 0
 560 892 575 860 575 807 c 0
 575 745 557 689 519 648 c 0
 481 607 421 577 316 577 c 2
 -4 577 l 1
 -4 448 l 1
EndSplineSet
Validated: 553
EndChar

StartChar: "++5QA"
Encoding: 284 64404 63
Width: 938
Flags: HW
AnchorPoint: "Anchor-5" 310 1966 basechar 0
AnchorPoint: "Anchor-3" 367 236 basechar 0
LayerCount: 2
Fore
SplineSet
691 2055 m 1
 162 1700 l 1
 201 1642 l 1
 730 1997 l 1
 691 2055 l 1
789 1911 m 1
 172 1503 l 2
 96 1453 47 1384 49 1307 c 0
 51 1230 106 1164 185 1126 c 0
 342 1051 444 992 502 942 c 0
 560 892 575 860 575 807 c 0
 575 745 557 689 519 648 c 0
 481 607 421 577 316 577 c 2
 -4 577 l 1
 -4 448 l 1
 316 448 l 2
 447 448 548 491 613 560 c 0
 678 629 704 720 704 807 c 0
 704 894 662 975 586 1040 c 0
 510 1105 400 1165 240 1242 c 0
 189 1266 178 1291 178 1310 c 0
 178 1329 191 1360 243 1395 c 2
 860 1803 l 1
 789 1911 l 1
EndSplineSet
Validated: 553
EndChar

StartChar: "+/t8A"
Encoding: 285 65247 64
Width: 398
Flags: HW
AnchorPoint: "Anchor-5" 258 1785 basechar 0
AnchorPoint: "Anchor-3" 193 280 basechar 0
LayerCount: 2
Fore
SplineSet
318 1667 m 1
 318 897 l 2
 318 795 321 693 280 602 c 0
 239 511 140 448 -4 448 c 1
 -4 577 l 1
 109 577 140 604 163 655 c 0
 186 706 189 795 189 897 c 2
 189 1667 l 1
 318 1667 l 1
EndSplineSet
Validated: 545
EndChar

StartChar: "+/uMA"
Encoding: 286 65251 65
Width: 926
Flags: HW
AnchorPoint: "Anchor-5" 473 1321 basechar 0
AnchorPoint: "Anchor-3" 566 182 basechar 0
LayerCount: 2
Fore
SplineSet
-4 448 m 1
 108 448 197 498 247 586 c 1
 320 503 430 448 571 448 c 0
 735 448 848 549 848 715 c 0
 848 903 651 1093 470 1093 c 0
 384 1093 319 1034 278 967 c 0
 237 900 207 818 175 731 c 0
 138 632 95 577 -4 577 c 1
 -4 448 l 1
470 964 m 0
 571 964 719 837 719 715 c 0
 719 627 674 577 571 577 c 0
 430 577 358 629 308 717 c 1
 336 790 362 857 388 900 c 0
 418 949 437 964 470 964 c 0
EndSplineSet
Validated: 521
EndChar

StartChar: "+/ucA"
Encoding: 287 65255 66
Width: 458
Flags: HW
AnchorPoint: "Anchor-5" 261 1566 basechar 0
AnchorPoint: "Anchor-3" 207 232 basechar 0
LayerCount: 2
Fore
SplineSet
56 1436 m 1
 56 1256 l 1
 236 1256 l 1
 236 1436 l 1
 56 1436 l 1
314 1092 m 1
 193 1048 l 1
 238 925 252 833 249 769 c 0
 246 705 228 668 204 642 c 0
 156 590 64 577 -4 577 c 1
 -4 448 l 1
 77 448 208 457 299 555 c 0
 344 604 374 675 378 763 c 0
 382 851 363 958 314 1092 c 1
EndSplineSet
Validated: 553
EndChar

StartChar: "+/usA"
Encoding: 288 65259 67
Width: 1350
Flags: HW
AnchorPoint: "Anchor-5" 557 1444 basechar 0
AnchorPoint: "Anchor-3" 486 191 basechar 0
LayerCount: 2
Fore
SplineSet
-4 448 m 1
 384 448 l 2
 499 448 595 448 669 473 c 1
 732 455 790 448 849 448 c 0
 1051 448 1271 565 1271 762 c 0
 1271 1035 973 1073 754 1096 c 0
 627 1110 542 1133 501 1167 c 0
 471 1192 476 1255 476 1286 c 1
 348 1286 l 1
 343 1184 358 1146 383 1108 c 1
 252 1059 62 919 62 766 c 0
 62 691 110 616 161 577 c 1
 -4 577 l 1
 -4 448 l 1
706 722 m 0
 706 659 686 620 644 601 c 0
 608 592 567 588 526 588 c 0
 346 588 190 674 190 768 c 0
 190 862 402 1007 513 1007 c 0
 666 1007 706 792 706 722 c 0
849 577 m 1
 798 577 l 1
 827 622 835 674 835 723 c 0
 835 802 811 890 771 964 c 1
 900 947 1143 932 1143 764 c 0
 1143 639 986 578 849 577 c 1
EndSplineSet
Validated: 549
EndChar

StartChar: "+/vMA"
Encoding: 289 65267 68
Width: 459
Flags: HW
AnchorPoint: "Anchor-5" 210 1269 basechar 0
AnchorPoint: "Anchor-3" 212 0 basechar 0
LayerCount: 2
Fore
SplineSet
315 1092 m 1
 194 1048 l 1
 239 925 253 833 250 769 c 0
 247 705 229 668 205 642 c 0
 157 590 65 577 -3 577 c 1
 -3 448 l 1
 78 448 209 457 300 555 c 0
 345 604 375 675 379 763 c 0
 383 851 364 958 315 1092 c 1
20 308 m 1
 20 168 l 1
 419 168 l 1
 419 308 l 1
 20 308 l 1
EndSplineSet
Validated: 553
EndChar

StartChar: "+/osA"
Encoding: 290 65163 69
Width: 462
Flags: HW
AnchorPoint: "Anchor-5" 186 1706 basechar 0
AnchorPoint: "Anchor-3" 230 237 basechar 0
LayerCount: 2
Fore
SplineSet
227 1575 m 0
 175 1575 125 1555 86 1526 c 0
 34 1487 -4 1432 -4 1370 c 0
 -4 1332 15 1298 43 1278 c 0
 71 1258 105 1246 142 1241 c 0
 156 1239 171 1238 186 1238 c 2
 40 1154 l 1
 75 1093 l 1
 384 1272 l 1
 354 1335 l 1
 291 1312 211 1303 152 1311 c 0
 122 1315 99 1324 85 1334 c 0
 71 1344 66 1353 66 1370 c 0
 66 1401 89 1442 127 1470 c 0
 165 1498 215 1513 263 1501 c 1
 280 1569 l 1
 262 1573 244 1575 227 1575 c 0
314 1092 m 1
 193 1048 l 1
 238 925 252 833 249 769 c 0
 246 705 228 668 204 642 c 0
 156 590 64 577 -4 577 c 1
 -4 448 l 1
 77 448 208 457 299 555 c 0
 344 604 374 675 378 763 c 0
 382 851 363 958 314 1092 c 1
EndSplineSet
Validated: 553
EndChar

StartChar: "+/pIA"
Encoding: 291 65170 70
Width: 548
Flags: HW
AnchorPoint: "Anchor-5" 305 1106 basechar 0
AnchorPoint: "Anchor-3" 264 1 basechar 0
LayerCount: 2
Fore
SplineSet
231 898 m 1
 231 796 227 706 204 655 c 0
 181 604 109 577 -4 577 c 1
 -4 448 l 1
 117 448 245 495 295 563 c 1
 345 495 432 448 553 448 c 1
 553 577 l 1
 440 577 409 604 386 655 c 0
 363 706 359 796 359 898 c 1
 231 898 l 1
95 301 m 1
 95 154 l 1
 243 154 l 1
 243 301 l 1
 95 301 l 1
EndSplineSet
Validated: 521
EndChar

StartChar: "++1kA"
Encoding: 292 64345 71
Width: 548
Flags: HW
AnchorPoint: "Anchor-5" 316 1065 basechar 0
AnchorPoint: "Anchor-3" 265 -188 basechar 0
LayerCount: 2
Fore
SplineSet
231 898 m 1
 231 796 227 706 204 655 c 0
 181 604 109 577 -4 577 c 1
 -4 448 l 1
 117 448 245 495 295 563 c 1
 345 495 432 448 553 448 c 1
 553 577 l 1
 440 577 409 604 386 655 c 0
 363 706 359 796 359 898 c 1
 231 898 l 1
-4 320 m 1
 -4 191 l 1
 191 191 l 1
 94 22 l 1
 205 -42 l 1
 358 223 l 1
 303 320 l 1
 -4 320 l 1
EndSplineSet
Validated: 521
EndChar

StartChar: "+/pgA"
Encoding: 293 65176 72
Width: 548
Flags: HW
AnchorPoint: "Anchor-5" 285 1404 basechar 0
AnchorPoint: "Anchor-3" 268 207 basechar 0
LayerCount: 2
Fore
SplineSet
28 1223 m 1
 28 1094 l 1
 359 1094 l 1
 359 1223 l 1
 28 1223 l 1
231 898 m 1
 231 796 227 706 204 655 c 0
 181 604 109 577 -4 577 c 1
 -4 448 l 1
 117 448 245 495 295 563 c 1
 345 495 432 448 553 448 c 1
 553 577 l 1
 440 577 409 604 386 655 c 0
 363 706 359 796 359 898 c 1
 231 898 l 1
EndSplineSet
Validated: 521
EndChar

StartChar: "+/pwA"
Encoding: 294 65180 73
Width: 548
Flags: HW
AnchorPoint: "Anchor-5" 273 1550 basechar 0
AnchorPoint: "Anchor-3" 270 237 basechar 0
LayerCount: 2
Fore
SplineSet
237 1456 m 1
 126 1392 l 1
 223 1223 l 1
 28 1223 l 1
 28 1094 l 1
 335 1094 l 1
 391 1190 l 1
 237 1456 l 1
231 898 m 1
 231 796 227 706 204 655 c 0
 181 604 109 577 -4 577 c 1
 -4 448 l 1
 117 448 245 495 295 563 c 1
 345 495 432 448 553 448 c 1
 553 577 l 1
 440 577 409 604 386 655 c 0
 363 706 359 796 359 898 c 1
 231 898 l 1
EndSplineSet
Validated: 521
EndChar

StartChar: "+/qAA"
Encoding: 295 65184 74
Width: 1148
Flags: HW
AnchorPoint: "Anchor-5" 332 1343 basechar 0
AnchorPoint: "Anchor-3" 525 -79 basechar 0
LayerCount: 2
Fore
SplineSet
331 1092 m 0
 168 1092 91 1000 51 852 c 1
 51 852 l 1
 176 818 l 1
 197 917 259 963 331 963 c 0
 450 963 625 877 775 840 c 1
 568 673 480 577 164 577 c 2
 -4 577 l 1
 -4 448 l 1
 164 448 l 2
 483 448 632 557 762 663 c 1
 851 539 993 448 1154 448 c 1
 1154 577 l 1
 1041 577 931 647 863 743 c 1
 915 781 969 815 1036 836 c 1
 995 958 l 1
 995 958 l 2
 973 951 950 948 924 948 c 0
 748 948 530 1092 331 1092 c 0
438 317 m 1
 438 137 l 1
 618 137 l 1
 618 317 l 1
 438 317 l 1
EndSplineSet
Validated: 517
EndChar

StartChar: "++30A"
Encoding: 296 64381 75
Width: 1148
Flags: HW
AnchorPoint: "Anchor-5" 338 1331 basechar 0
AnchorPoint: "Anchor-3" 526 -307 basechar 0
LayerCount: 2
Fore
SplineSet
331 1092 m 0
 168 1092 91 1000 51 852 c 1
 176 818 l 1
 197 917 259 963 331 963 c 0
 450 963 625 877 775 840 c 1
 568 673 480 577 164 577 c 2
 -4 577 l 1
 -4 448 l 1
 164 448 l 2
 483 448 632 557 762 663 c 1
 851 539 993 448 1154 448 c 1
 1154 577 l 1
 1041 577 931 647 863 743 c 1
 915 781 969 815 1036 836 c 1
 995 958 l 1
 995 958 l 2
 973 951 950 948 924 948 c 0
 748 948 530 1092 331 1092 c 0
287 346 m 1
 287 206 l 1
 520 206 l 1
 403 3 l 1
 525 -67 l 1
 702 241 l 1
 641 346 l 1
 287 346 l 1
EndSplineSet
Validated: 517
EndChar

StartChar: "+/qQA"
Encoding: 297 65188 76
Width: 1148
Flags: HW
AnchorPoint: "Anchor-5" 333 1343 basechar 0
AnchorPoint: "Anchor-3" 532 235 basechar 0
LayerCount: 2
Fore
SplineSet
51 852 m 1
 176 818 l 1
 197 917 259 963 331 963 c 0
 450 963 625 877 775 840 c 1
 568 673 480 577 164 577 c 2
 -4 577 l 1
 -4 448 l 1
 164 448 l 2
 483 448 632 557 762 663 c 1
 851 539 993 448 1154 448 c 1
 1154 577 l 1
 1041 577 931 647 863 743 c 1
 915 781 969 815 1036 836 c 1
 995 958 l 1
 995 958 l 1
 995 958 l 0
 973 951 950 948 924 948 c 0
 748 948 530 1092 331 1092 c 0
 168 1092 91 1000 51 852 c 1
 51 852 l 1
EndSplineSet
Validated: 517
EndChar

StartChar: "+/qgA"
Encoding: 298 65192 77
Width: 1148
Flags: HW
AnchorPoint: "Anchor-5" 338 1569 basechar 0
AnchorPoint: "Anchor-3" 577 166 basechar 0
LayerCount: 2
Fore
SplineSet
247 1421 m 1
 247 1241 l 1
 427 1241 l 1
 427 1421 l 1
 247 1421 l 1
331 1092 m 0
 168 1092 91 1000 51 852 c 1
 51 852 l 1
 176 818 l 1
 197 917 259 963 331 963 c 0
 450 963 625 877 775 840 c 1
 568 673 480 577 164 577 c 2
 -4 577 l 1
 -4 448 l 1
 164 448 l 2
 483 448 632 557 762 663 c 1
 851 539 993 448 1154 448 c 1
 1154 577 l 1
 1041 577 931 647 863 743 c 1
 915 781 969 815 1036 836 c 1
 995 958 l 1
 995 958 l 2
 973 951 950 948 924 948 c 0
 748 948 530 1092 331 1092 c 0
EndSplineSet
Validated: 517
EndChar

StartChar: "+/rQA"
Encoding: 299 65204 78
Width: 1648
Flags: HW
AnchorPoint: "Anchor-5" 826 1200 basechar 0
AnchorPoint: "Anchor-3" 822 231 basechar 0
LayerCount: 2
Fore
SplineSet
760 897 m 1
 760 795 757 705 734 654 c 0
 708 596 660 577 571 577 c 0
 482 577 435 596 409 654 c 0
 386 705 383 795 383 897 c 1
 254 897 l 1
 254 795 249 709 221 660 c 0
 193 611 145 577 -4 577 c 1
 -4 448 l 1
 150 448 260 484 318 559 c 1
 369 476 460 448 571 448 c 0
 682 448 774 476 825 559 c 1
 876 476 967 448 1078 448 c 0
 1189 448 1280 476 1331 559 c 1
 1389 484 1499 448 1653 448 c 1
 1653 577 l 1
 1504 577 1456 611 1428 660 c 0
 1400 709 1396 795 1396 897 c 1
 1267 897 l 1
 1267 795 1263 705 1240 654 c 0
 1214 596 1167 577 1078 577 c 0
 989 577 941 596 915 654 c 0
 892 705 889 795 889 897 c 1
 760 897 l 1
EndSplineSet
Validated: 521
EndChar

StartChar: "+/rgA"
Encoding: 300 65208 79
Width: 1648
Flags: HW
AnchorPoint: "Anchor-5" 842 1638 basechar 0
AnchorPoint: "Anchor-3" 817 222 basechar 0
LayerCount: 2
Fore
SplineSet
869 1505 m 1
 748 1435 l 1
 864 1232 l 1
 631 1232 l 1
 631 1092 l 1
 985 1092 l 1
 1046 1197 l 1
 869 1505 l 1
254 897 m 1
 254 795 249 709 221 660 c 0
 193 611 145 577 -4 577 c 1
 -4 448 l 1
 150 448 260 484 318 559 c 1
 369 476 460 448 571 448 c 0
 682 448 774 476 825 559 c 1
 876 476 967 448 1078 448 c 0
 1189 448 1280 476 1331 559 c 1
 1389 484 1499 448 1653 448 c 1
 1653 577 l 1
 1504 577 1456 611 1428 660 c 0
 1400 709 1396 795 1396 897 c 1
 1267 897 l 1
 1267 795 1263 705 1240 654 c 0
 1214 596 1167 577 1078 577 c 0
 989 577 941 596 915 654 c 0
 892 705 889 795 889 897 c 1
 760 897 l 1
 760 795 757 705 734 654 c 0
 708 596 660 577 571 577 c 0
 482 577 435 596 409 654 c 0
 386 705 383 795 383 897 c 1
 254 897 l 1
EndSplineSet
Validated: 521
EndChar

StartChar: "+/rwA"
Encoding: 301 65212 80
Width: 1188
Flags: HW
AnchorPoint: "Anchor-5" 864 1322 basechar 0
AnchorPoint: "Anchor-3" 562 197 basechar 0
LayerCount: 2
Fore
SplineSet
535 899 m 0
 451 801 386 686 347 590 c 1
 325 592 317 604 315 613 c 0
 308 644 328 761 317 903 c 1
 189 897 l 1
 189 803 185 715 161 661 c 0
 137 607 107 577 -4 577 c 1
 -4 448 l 1
 92 448 165 480 217 527 c 1
 296 436 443 448 531 448 c 2
 1192 448 l 1
 1192 575 l 1
 992 575 l 1
 1073 638 1129 725 1129 827 c 0
 1129 962 1021 1093 865 1093 c 0
 734 1093 624 1003 535 899 c 0
865 964 m 0
 949 964 1000 895 1000 827 c 0
 1000 764 960 705 885 657 c 0
 810 609 703 575 590 575 c 2
 484 575 l 1
 519 651 570 742 633 816 c 0
 710 906 798 964 865 964 c 0
EndSplineSet
Validated: 553
EndChar

StartChar: "+/sAA"
Encoding: 302 65216 81
Width: 1188
Flags: HW
AnchorPoint: "Anchor-5" 863 1571 basechar 0
AnchorPoint: "Anchor-3" 584 199 basechar 0
LayerCount: 2
Fore
SplineSet
772 1421 m 1
 772 1241 l 1
 952 1241 l 1
 952 1421 l 1
 772 1421 l 1
865 1093 m 0
 734 1093 624 1003 535 899 c 1
 535 899 l 1
 451 801 386 686 347 590 c 1
 325 592 317 604 315 613 c 0
 308 644 328 761 317 903 c 1
 189 897 l 1
 189 803 185 715 161 661 c 0
 137 607 107 577 -4 577 c 1
 -4 448 l 1
 92 448 165 480 217 527 c 1
 296 436 443 448 531 448 c 2
 1192 448 l 1
 1192 575 l 1
 992 575 l 1
 1073 638 1129 725 1129 827 c 0
 1129 962 1021 1093 865 1093 c 0
865 964 m 0
 949 964 1000 895 1000 827 c 0
 1000 764 960 705 885 657 c 0
 810 609 703 575 590 575 c 2
 484 575 l 1
 519 651 570 742 633 816 c 0
 710 906 798 964 865 964 c 0
EndSplineSet
Validated: 553
EndChar

StartChar: "+/sQA"
Encoding: 303 65220 82
Width: 1070
Flags: HW
AnchorPoint: "Anchor-5" 741 1503 basechar 0
AnchorPoint: "Anchor-3" 506 237 basechar 0
LayerCount: 2
Fore
SplineSet
182 1665 m 1
 182 575 l 1
 -4 575 l 1
 -4 448 l 1
 329 448 l 1
 416 448 l 1
 1076 448 l 1
 1076 577 l 1
 879 577 l 1
 958 640 1013 726 1013 827 c 0
 1013 962 905 1093 749 1093 c 0
 618 1093 508 1003 419 899 c 0
 378 851 342 800 311 748 c 1
 311 1665 l 1
 182 1665 l 1
749 964 m 0
 833 964 884 895 884 827 c 0
 884 764 845 705 770 657 c 0
 705 616 616 585 521 577 c 2
 370 577 l 1
 405 653 454 743 517 816 c 0
 594 906 682 964 749 964 c 0
EndSplineSet
Validated: 521
EndChar

StartChar: "+/sgA"
Encoding: 304 65224 83
Width: 1070
Flags: HW
AnchorPoint: "Anchor-5" 737 1551 basechar 0
AnchorPoint: "Anchor-3" 506 221 basechar 0
LayerCount: 2
Fore
SplineSet
182 1665 m 1
 182 575 l 1
 -4 575 l 1
 -4 448 l 1
 329 448 l 1
 416 448 l 1
 1076 448 l 1
 1076 577 l 1
 879 577 l 1
 958 640 1013 726 1013 827 c 0
 1013 962 905 1093 749 1093 c 0
 618 1093 508 1003 419 899 c 0
 378 851 342 800 311 748 c 1
 311 1665 l 1
 182 1665 l 1
657 1421 m 1
 657 1241 l 1
 837 1241 l 1
 837 1421 l 1
 657 1421 l 1
749 964 m 0
 833 964 884 895 884 827 c 0
 884 764 845 705 770 657 c 0
 705 616 616 585 521 577 c 2
 370 577 l 1
 405 653 454 743 517 816 c 0
 594 906 682 964 749 964 c 0
EndSplineSet
Validated: 521
EndChar

StartChar: "+/swA"
Encoding: 305 65228 84
Width: 942
Flags: HW
AnchorPoint: "Anchor-5" 475 1321 basechar 0
AnchorPoint: "Anchor-3" 463 212 basechar 0
LayerCount: 2
Fore
SplineSet
471 1093 m 0
 299 1093 93 1014 93 860 c 0
 93 739 173 655 271 603 c 1
 173 586 76 577 -4 577 c 1
 -4 448 l 1
 134 448 312 469 471 517 c 1
 630 469 808 448 946 448 c 1
 946 577 l 1
 866 577 770 586 672 603 c 1
 770 655 849 739 849 860 c 0
 849 1014 643 1093 471 1093 c 0
471 964 m 0
 614 964 720 899 720 860 c 0
 720 748 567 690 471 651 c 1
 375 690 222 748 222 860 c 0
 222 899 328 964 471 964 c 0
EndSplineSet
Validated: 521
EndChar

StartChar: "+/tAA"
Encoding: 306 65232 85
Width: 942
Flags: HW
AnchorPoint: "Anchor-5" 473 1586 basechar 0
AnchorPoint: "Anchor-3" 474 174 basechar 0
LayerCount: 2
Fore
SplineSet
381 1453 m 1
 381 1273 l 1
 561 1273 l 1
 561 1453 l 1
 381 1453 l 1
471 1093 m 0
 299 1093 93 1014 93 860 c 0
 93 739 173 655 271 603 c 1
 173 586 76 577 -4 577 c 1
 -4 448 l 1
 134 448 312 469 471 517 c 1
 630 469 808 448 946 448 c 1
 946 577 l 1
 866 577 769 586 671 603 c 1
 769 655 849 739 849 860 c 0
 849 1014 643 1093 471 1093 c 0
471 964 m 0
 614 964 720 899 720 860 c 0
 720 748 567 690 471 651 c 1
 375 690 222 748 222 860 c 0
 222 899 328 964 471 964 c 0
EndSplineSet
Validated: 521
EndChar

StartChar: "+/tQA"
Encoding: 307 65236 86
Width: 720
Flags: HW
AnchorPoint: "Anchor-5" 365 1594 basechar 0
AnchorPoint: "Anchor-3" 372 129 basechar 0
LayerCount: 2
Fore
SplineSet
271 1453 m 1
 271 1273 l 1
 451 1273 l 1
 451 1453 l 1
 271 1453 l 1
361 1093 m 0
 183 1093 48 905 48 734 c 0
 48 671 66 621 101 579 c 1
 65 578 37 577 -4 577 c 1
 -4 448 l 1
 151 448 257 454 361 467 c 1
 465 454 570 448 725 448 c 1
 725 577 l 1
 684 577 656 578 620 579 c 1
 655 621 673 671 673 734 c 0
 673 905 539 1093 361 1093 c 0
361 964 m 0
 445 964 544 846 544 735 c 0
 544 625 456 602 361 596 c 1
 266 602 177 625 177 735 c 0
 177 846 277 964 361 964 c 0
EndSplineSet
Validated: 521
EndChar

StartChar: "+/tgA"
Encoding: 308 65240 87
Width: 720
Flags: HW
AnchorPoint: "Anchor-5" 361 1535 basechar 0
AnchorPoint: "Anchor-3" 356 165 basechar 0
LayerCount: 2
Fore
SplineSet
161 1373 m 1
 161 1233 l 1
 560 1233 l 1
 560 1373 l 1
 161 1373 l 1
361 1093 m 0
 183 1093 48 905 48 734 c 0
 48 671 66 621 101 579 c 1
 65 578 37 577 -4 577 c 1
 -4 448 l 1
 151 448 257 454 361 467 c 1
 465 454 570 448 725 448 c 1
 725 577 l 1
 684 577 656 578 620 579 c 1
 655 621 673 671 673 734 c 0
 673 905 539 1093 361 1093 c 0
361 964 m 0
 445 964 544 846 544 735 c 0
 544 625 456 602 361 596 c 1
 266 602 177 625 177 735 c 0
 177 846 277 964 361 964 c 0
EndSplineSet
Validated: 521
EndChar

StartChar: "+/twA"
Encoding: 309 65244 88
Width: 900
Flags: HW
AnchorPoint: "Anchor-5" 318 1726 basechar 0
AnchorPoint: "Anchor-3" 321 246 basechar 0
LayerCount: 2
Fore
SplineSet
706 523 m 0
 750 476 818 448 905 448 c 1
 905 577 l 1
 842 577 819 591 800 611 c 0
 781 631 767 667 753 717 c 0
 725 816 693 970 556 1064 c 0
 482 1120 380 1175 240 1242 c 0
 189 1266 178 1291 178 1310 c 0
 178 1329 191 1360 243 1395 c 2
 860 1803 l 1
 789 1911 l 1
 172 1503 l 2
 96 1453 47 1384 49 1307 c 0
 51 1230 106 1164 185 1126 c 0
 341 1051 444 992 502 942 c 0
 560 892 575 860 575 807 c 0
 575 745 557 689 519 648 c 0
 481 607 421 577 316 577 c 2
 -4 577 l 1
 -4 448 l 1
 316 448 l 2
 447 448 548 491 613 560 c 0
 628 576 641 593 652 611 c 1
 664 580 681 550 706 523 c 0
EndSplineSet
Validated: 553
EndChar

StartChar: "++5UA"
Encoding: 310 64405 89
Width: 900
Flags: HW
AnchorPoint: "Anchor-5" 318 1946 basechar 0
AnchorPoint: "Anchor-3" 319 244 basechar 0
LayerCount: 2
Fore
SplineSet
691 2055 m 1
 162 1700 l 1
 201 1642 l 1
 730 1997 l 1
 691 2055 l 1
789 1911 m 1
 172 1503 l 2
 96 1453 47 1384 49 1307 c 0
 51 1230 106 1164 185 1126 c 0
 341 1051 444 992 502 942 c 0
 560 892 575 860 575 807 c 0
 575 745 557 689 519 648 c 0
 481 607 421 577 316 577 c 2
 -4 577 l 1
 -4 448 l 1
 316 448 l 2
 447 448 548 491 613 560 c 0
 628 576 641 593 652 611 c 1
 664 580 681 550 706 523 c 0
 750 476 818 448 905 448 c 1
 905 577 l 1
 842 577 819 591 800 611 c 0
 781 631 767 667 753 717 c 0
 725 816 693 970 556 1064 c 0
 482 1120 380 1175 240 1242 c 0
 189 1266 178 1291 178 1310 c 0
 178 1329 191 1360 243 1395 c 2
 860 1803 l 1
 789 1911 l 1
EndSplineSet
Validated: 553
EndChar

StartChar: "+/uAA"
Encoding: 311 65248 90
Width: 634
Flags: W
HStem: 448 129<-4 165.606 470.394 640>
VStem: 254 128<674.518 1665>
AnchorPoint: "Anchor-5" 319 1806 basechar 0
AnchorPoint: "Anchor-3" 318 243 basechar 0
LayerCount: 2
Fore
SplineSet
382 1665 m 1
 382 1025 l 2
 382 890 385 768 417 693 c 0
 433 655 454 630 487 610 c 0
 520 590 568 577 640 577 c 1
 640 448 l 1
 552 448 479 465 421 499 c 0
 374 527 342 567 318 611 c 1
 294 567 262 527 215 499 c 0
 157 465 84 448 -4 448 c 1
 -4 577 l 1
 68 577 116 590 149 610 c 0
 182 630 202 655 218 693 c 0
 250 768 254 890 254 1025 c 2
 253 1665 l 1
 382 1665 l 1
EndSplineSet
Validated: 513
EndChar

StartChar: "+/uQA"
Encoding: 312 65252 91
Width: 976
Flags: HW
AnchorPoint: "Anchor-5" 473 1324 basechar 0
AnchorPoint: "Anchor-3" 534 174 basechar 0
LayerCount: 2
Fore
SplineSet
470 1093 m 0
 384 1093 319 1034 278 967 c 0
 237 900 207 818 175 731 c 0
 138 632 95 577 -4 577 c 1
 -4 448 l 1
 108 448 197 498 247 586 c 1
 320 503 430 448 571 448 c 0
 659 448 732 478 781 530 c 1
 831 471 891 448 981 448 c 1
 981 577 l 1
 936 577 904 589 883 610 c 0
 862 631 849 656 848 715 c 0
 848 903 651 1093 470 1093 c 0
571 577 m 0
 430 577 358 629 308 717 c 1
 336 790 362 857 388 900 c 0
 418 949 437 964 470 964 c 0
 571 964 719 837 719 715 c 0
 719 627 674 577 571 577 c 0
EndSplineSet
Validated: 521
EndChar

StartChar: "+/ugA"
Encoding: 313 65256 92
Width: 548
Flags: HW
AnchorPoint: "Anchor-5" 287 1336 basechar 0
AnchorPoint: "Anchor-3" 284 255 basechar 0
LayerCount: 2
Fore
SplineSet
231 898 m 1
 231 796 227 706 204 655 c 0
 181 604 109 577 -4 577 c 1
 -4 448 l 1
 117 448 245 495 295 563 c 1
 345 495 432 448 553 448 c 1
 553 577 l 1
 440 577 409 604 386 655 c 0
 363 706 359 796 359 898 c 1
 231 898 l 1
95 1241 m 1
 95 1094 l 1
 243 1094 l 1
 243 1241 l 1
 95 1241 l 1
EndSplineSet
Validated: 521
EndChar

StartChar: "+/uwA"
Encoding: 314 65260 93
Width: 828
Flags: HW
AnchorPoint: "Anchor-5" 447 1335 basechar 0
AnchorPoint: "Anchor-3" 450 -311 basechar 0
LayerCount: 2
Fore
SplineSet
-4 577 m 1
 -4 448 l 1
 106 448 l 1
 123 140 253 -67 451 -67 c 0
 576 -67 661 36 661 155 c 0
 661 202 643 244 643 288 c 0
 643 387 712 448 833 448 c 1
 833 577 l 1
 652 577 514 467 514 287 c 0
 514 225 533 199 533 154 c 0
 533 94 495 62 451 62 c 0
 293 62 247 299 237 451 c 1
 456 451 699 606 698 817 c 0
 697 979 591 1092 451 1092 c 0
 249 1092 128 871 107 577 c 1
 -4 577 l 1
451 963 m 0
 503 963 569 922 569 817 c 0
 569 665 357 579 239 579 c 1
 252 712 298 963 451 963 c 0
EndSplineSet
Validated: 553
EndChar

StartChar: "+/vQA"
Encoding: 315 65268 94
Width: 548
Flags: HW
AnchorPoint: "Anchor-5" 300 1011 basechar 0
AnchorPoint: "Anchor-3" 277 52 basechar 0
LayerCount: 2
Fore
SplineSet
28 320 m 1
 28 191 l 1
 359 191 l 1
 359 320 l 1
 28 320 l 1
231 898 m 1
 231 796 227 706 204 655 c 0
 181 604 109 577 -4 577 c 1
 -4 448 l 1
 117 448 245 495 295 563 c 1
 345 495 432 448 553 448 c 1
 553 577 l 1
 440 577 409 604 386 655 c 0
 363 706 359 796 359 898 c 1
 231 898 l 1
EndSplineSet
Validated: 521
EndChar

StartChar: "+/owA"
Encoding: 316 65164 95
Width: 548
Flags: HW
AnchorPoint: "Anchor-5" 288 1547 basechar 0
AnchorPoint: "Anchor-3" 274 177 basechar 0
LayerCount: 2
Fore
SplineSet
247 1458 m 0
 195 1458 145 1438 106 1409 c 0
 54 1370 16 1315 16 1253 c 0
 16 1215 36 1181 64 1161 c 0
 92 1141 126 1130 163 1125 c 0
 177 1123 191 1121 206 1121 c 2
 60 1037 l 1
 95 976 l 1
 404 1155 l 1
 375 1218 l 1
 312 1195 231 1186 172 1194 c 0
 142 1198 119 1207 105 1217 c 0
 91 1227 86 1236 86 1253 c 0
 86 1284 109 1325 147 1353 c 0
 185 1381 236 1396 284 1384 c 1
 300 1452 l 1
 282 1456 264 1458 247 1458 c 0
231 898 m 1
 231 796 227 706 204 655 c 0
 181 604 109 577 -4 577 c 1
 -4 448 l 1
 117 448 245 495 295 563 c 1
 345 495 432 448 553 448 c 1
 553 577 l 1
 440 577 409 604 386 655 c 0
 363 706 359 796 359 898 c 1
 231 898 l 1
EndSplineSet
Validated: 553
EndChar

StartChar: "+/oIA"
Encoding: 317 65154 96
Width: 562
Flags: HW
AnchorPoint: "Anchor-5" 298 2024 basechar 0
AnchorPoint: "Anchor-3" 399 200 basechar 0
LayerCount: 2
Fore
SplineSet
459 1914 m 1
 441 1881 397 1842 366 1842 c 0
 353 1842 340 1846 324 1861 c 0
 297 1887 265 1900 234 1900 c 0
 160 1900 107 1842 80 1791 c 1
 142 1758 l 1
 160 1791 203 1830 234 1830 c 0
 247 1830 260 1826 276 1811 c 0
 303 1785 335 1772 366 1772 c 0
 440 1772 494 1830 521 1881 c 1
 459 1914 l 1
245 1665 m 1
 245 897 l 2
 245 795 243 693 284 602 c 0
 325 511 423 448 567 448 c 1
 567 577 l 1
 454 577 424 604 401 655 c 0
 378 706 374 795 374 897 c 2
 374 1665 l 1
 245 1665 l 1
EndSplineSet
Validated: 553
PairPos2: "'kern' Horizontal Kerning lookup 2" آ dx=128 dy=0 dh=128 dv=0 dx=0 dy=0 dh=0 dv=0
EndChar

StartChar: "+/o4A"
Encoding: 318 65166 97
Width: 398
Flags: HW
AnchorPoint: "Anchor-5" 145 1791 basechar 0
AnchorPoint: "Anchor-3" 301 188 basechar 0
LayerCount: 2
Fore
SplineSet
80 1667 m 1
 80 897 l 2
 80 795 77 693 118 602 c 0
 159 511 258 448 402 448 c 1
 402 577 l 1
 289 577 259 604 236 655 c 0
 213 706 209 795 209 897 c 2
 209 1667 l 1
 80 1667 l 1
EndSplineSet
Validated: 553
PairPos2: "'kern' Horizontal Kerning lookup 2" آ dx=277 dy=0 dh=277 dv=0 dx=0 dy=0 dh=0 dv=0
EndChar

StartChar: "+/oQA"
Encoding: 319 65156 98
Width: 526
Flags: W
HStem: 448 129<388.986 531> 1890 73<156.395 268.09> 2153 74<212.79 347>
VStem: 80 70<1977.69 2096.9> 209 129<625.008 897>
AnchorPoint: "Anchor-5" 259 2407 basechar 0
AnchorPoint: "Anchor-3" 325 213 basechar 0
LayerCount: 2
Fore
SplineSet
311 2227 m 0
 259 2227 209 2208 170 2179 c 0
 118 2140 80 2084 80 2022 c 0
 80 1984 99 1950 127 1930 c 0
 155 1910 189 1899 226 1894 c 0
 240 1892 255 1890 270 1890 c 2
 124 1806 l 1
 159 1746 l 1
 468 1924 l 1
 438 1987 l 1
 375 1964 295 1955 236 1963 c 0
 206 1967 183 1976 169 1986 c 0
 155 1996 150 2005 150 2022 c 0
 150 2053 173 2094 211 2122 c 0
 249 2150 299 2165 347 2153 c 1
 364 2221 l 1
 346 2225 328 2227 311 2227 c 0
209 1665 m 1
 209 897 l 2
 209 795 207 693 248 602 c 0
 289 511 387 448 531 448 c 1
 531 577 l 1
 418 577 388 604 365 655 c 0
 342 706 338 795 338 897 c 2
 338 1665 l 1
 209 1665 l 1
EndSplineSet
Validated: 553
PairPos2: "'kern' Horizontal Kerning lookup 2" آ dx=153 dy=0 dh=153 dv=0 dx=0 dy=0 dh=0 dv=0
EndChar

StartChar: "+/ogA"
Encoding: 320 65160 99
Width: 526
Flags: HW
HStem: 16 70<156.395 268.09> 275 75<212.79 347> 448 129<388.986 531>
VStem: 80 70<100.189 220.601> 209 129<625.008 897>
AnchorPoint: "Anchor-5" 277 1883 basechar 0
AnchorPoint: "Anchor-3" 281 -252 basechar 0
LayerCount: 2
Fore
SplineSet
209 1665 m 1
 209 897 l 2
 209 795 207 693 248 602 c 0
 289 511 387 448 531 448 c 1
 531 577 l 1
 418 577 388 604 365 655 c 0
 342 706 338 795 338 897 c 2
 338 1665 l 1
 209 1665 l 1
311 350 m 0
 259 350 209 330 170 301 c 0
 118 262 80 206 80 144 c 0
 80 106 99 72 127 52 c 0
 155 32 189 21 226 16 c 0
 240 14 255 13 270 13 c 2
 124 -71 l 1
 159 -132 l 1
 468 46 l 1
 438 110 l 1
 375 87 295 78 236 86 c 0
 206 90 183 99 169 109 c 0
 155 119 150 127 150 144 c 0
 150 175 173 217 211 245 c 0
 249 273 299 287 347 275 c 1
 364 343 l 1
 346 347 328 350 311 350 c 0
EndSplineSet
Validated: 553
PairPos2: "'kern' Horizontal Kerning lookup 2" آ dx=153 dy=0 dh=153 dv=0 dx=0 dy=0 dh=0 dv=0
EndChar

StartChar: "+/pAA"
Encoding: 321 65168 100
Width: 1970
Flags: HW
AnchorPoint: "Anchor-5" 958 1158 basechar 0
AnchorPoint: "Anchor-3" 940 -76 basechar 0
LayerCount: 2
Fore
SplineSet
114 976 m 1
 97 911 80 863 80 794 c 0
 80 654 153 561 314 504 c 0
 479 445 702 448 941 448 c 0
 1180 448 1404 445 1569 504 c 0
 1632 527 1682 555 1719 589 c 1
 1764 484 1854 447 1974 447 c 1
 1974 576 l 1
 1901 576 1837 590 1822 678 c 0
 1805 775 1799 885 1769 976 c 1
 1644 943 l 1
 1657 894 1674 841 1674 793 c 0
 1674 701 1615 657 1528 627 c 0
 1397 583 1179 577 941 577 c 0
 703 577 486 583 355 627 c 0
 268 657 208 701 208 793 c 0
 208 841 225 894 238 943 c 1
 114 976 l 1
851 268 m 1
 851 88 l 1
 1031 88 l 1
 1031 268 l 1
 851 268 l 1
EndSplineSet
Validated: 553
EndChar

StartChar: "++1cA"
Encoding: 322 64343 101
Width: 1970
Flags: HW
AnchorPoint: "Anchor-5" 966 1185 basechar 0
AnchorPoint: "Anchor-3" 966 -284 basechar 0
LayerCount: 2
Fore
SplineSet
114 976 m 1
 97 911 80 863 80 794 c 0
 80 654 153 561 314 504 c 0
 479 445 702 448 941 448 c 0
 1180 448 1404 445 1569 504 c 0
 1632 527 1682 555 1719 589 c 1
 1764 484 1854 447 1974 447 c 1
 1974 576 l 1
 1901 576 1837 590 1822 678 c 0
 1805 775 1799 885 1769 976 c 1
 1644 943 l 1
 1657 894 1674 841 1674 793 c 0
 1674 701 1615 657 1528 627 c 0
 1397 583 1179 577 941 577 c 0
 703 577 486 583 355 627 c 0
 268 657 208 701 208 793 c 0
 208 841 225 894 238 943 c 1
 114 976 l 1
734 308 m 1
 734 168 l 1
 967 168 l 1
 850 -35 l 1
 972 -105 l 1
 1149 203 l 1
 1088 308 l 1
 734 308 l 1
EndSplineSet
Validated: 553
EndChar

StartChar: "+/pYA"
Encoding: 323 65174 102
Width: 1970
Flags: HW
AnchorPoint: "Anchor-5" 946 1262 basechar 0
AnchorPoint: "Anchor-3" 939 231 basechar 0
LayerCount: 2
Fore
SplineSet
742 988 m 1
 742 848 l 1
 1141 848 l 1
 1141 988 l 1
 742 988 l 1
114 976 m 1
 97 911 80 863 80 794 c 0
 80 654 153 561 314 504 c 0
 479 445 702 448 941 448 c 0
 1180 448 1404 445 1569 504 c 0
 1632 527 1682 555 1719 589 c 1
 1764 484 1854 447 1974 447 c 1
 1974 576 l 1
 1901 576 1837 590 1822 678 c 0
 1805 775 1799 885 1769 976 c 1
 1644 943 l 1
 1657 894 1674 841 1674 793 c 0
 1674 701 1615 657 1528 627 c 0
 1397 583 1179 577 941 577 c 0
 703 577 486 583 355 627 c 0
 268 657 208 701 208 793 c 0
 208 841 225 894 238 943 c 1
 114 976 l 1
EndSplineSet
Validated: 553
EndChar

StartChar: "+/poA"
Encoding: 324 65178 103
Width: 1970
Flags: W
HStem: 448 129<475.783 1407.02 1848 1974>
VStem: 80 128<685.548 950.88> 1644 125<795.254 946.785>
AnchorPoint: "Anchor-5" 946 1465 basechar 0
AnchorPoint: "Anchor-3" 945 229 basechar 0
LayerCount: 2
Fore
SplineSet
972 1260 m 1
 850 1190 l 1
 967 988 l 1
 734 988 l 1
 734 848 l 1
 1088 848 l 1
 1149 952 l 1
 972 1260 l 1
114 976 m 1
 97 911 80 863 80 794 c 0
 80 654 153 561 314 504 c 0
 479 445 702 448 941 448 c 0
 1180 448 1404 445 1569 504 c 0
 1632 527 1682 555 1719 589 c 1
 1764 484 1854 447 1974 447 c 1
 1974 576 l 1
 1901 576 1837 590 1822 678 c 0
 1805 775 1799 885 1769 976 c 1
 1644 943 l 1
 1657 894 1674 841 1674 793 c 0
 1674 701 1615 657 1528 627 c 0
 1397 583 1179 577 941 577 c 0
 703 577 486 583 355 627 c 0
 268 657 208 701 208 793 c 0
 208 841 225 894 238 943 c 1
 114 976 l 1
EndSplineSet
Validated: 553
EndChar

StartChar: "+/p4A"
Encoding: 325 65182 104
Width: 1164
Flags: W
HStem: -422 129<425.067 862.74> 448 129<1014.77 1169> 963 129<307.847 690.411>
VStem: 80 128<-105.229 232.879> 134 127<689.899 917.256>
AnchorPoint: "Anchor-5" 421 1379 basechar 0
AnchorPoint: "Anchor-3" 639 -706 basechar 0
LayerCount: 2
Fore
SplineSet
427 1092 m 0xf0
 271 1092 136 981 134 821 c 0
 140 742 163 692 202 633 c 1
 309 704 l 1
 285 739 261 782 261 821 c 0xe8
 261 905 342 963 427 963 c 0
 564 963 718 907 838 882 c 1
 660 792 454 667 300 511 c 0
 174 383 80 226 80 54 c 0
 80 -289 401 -422 646 -422 c 0
 869 -422 1020 -341 1158 -177 c 1
 1059 -94 l 1
 955 -225 816 -293 646 -293 c 0
 427 -293 208 -180 208 57 c 0
 208 186 279 306 392 420 c 0
 513 532 633 617 759 690 c 1
 846 552 996 448 1169 448 c 1
 1169 577 l 1
 1053 577 939 651 872 752 c 1
 932 783 993 811 1057 840 c 1
 1052 960 l 1
 885 993 627 1092 427 1092 c 0xf0
554 317 m 1
 554 137 l 1
 734 137 l 1
 734 317 l 1
 554 317 l 1
EndSplineSet
Validated: 521
EndChar

StartChar: "++3sA"
Encoding: 326 64379 105
Width: 1164
Flags: HW
AnchorPoint: "Anchor-5" 427 1319 basechar 0
AnchorPoint: "Anchor-3" 641 -671 basechar 0
LayerCount: 2
Fore
SplineSet
427 1092 m 0
 271 1092 136 981 134 821 c 0
 140 742 163 692 202 633 c 1
 309 704 l 1
 285 739 261 782 261 821 c 0
 261 905 342 963 427 963 c 0
 564 963 718 907 838 882 c 1
 660 792 454 667 300 511 c 0
 174 383 80 226 80 54 c 0
 80 -289 401 -422 646 -422 c 0
 869 -422 1020 -341 1158 -177 c 1
 1059 -94 l 1
 955 -225 816 -293 646 -293 c 0
 427 -293 208 -180 208 57 c 0
 208 186 279 306 392 420 c 0
 513 532 633 617 759 690 c 1
 846 552 996 448 1169 448 c 1
 1169 577 l 1
 1053 577 939 651 872 752 c 1
 932 783 993 811 1057 840 c 1
 1052 960 l 1
 885 993 627 1092 427 1092 c 0
463 346 m 1
 463 206 l 1
 696 206 l 1
 579 3 l 1
 700 -67 l 1
 877 241 l 1
 817 346 l 1
 463 346 l 1
EndSplineSet
Validated: 521
EndChar

StartChar: "+/qIA"
Encoding: 327 65186 106
Width: 1164
Flags: HW
AnchorPoint: "Anchor-5" 426 1340 basechar 0
AnchorPoint: "Anchor-3" 648 -699 basechar 0
LayerCount: 2
Fore
SplineSet
427 1092 m 0
 271 1092 136 981 134 821 c 0
 140 742 163 692 202 633 c 1
 309 704 l 1
 285 739 261 782 261 821 c 0
 261 905 342 963 427 963 c 0
 564 963 718 907 838 882 c 1
 660 792 454 667 300 511 c 0
 174 383 80 226 80 54 c 0
 80 -289 401 -422 646 -422 c 0
 869 -422 1020 -341 1158 -177 c 1
 1059 -94 l 1
 955 -225 816 -293 646 -293 c 0
 427 -293 208 -180 208 57 c 0
 208 186 279 306 392 420 c 0
 513 532 633 617 759 690 c 1
 846 552 996 448 1169 448 c 1
 1169 577 l 1
 1053 577 939 651 872 752 c 1
 932 783 993 811 1057 840 c 1
 1052 960 l 1
 885 993 627 1092 427 1092 c 0
EndSplineSet
Validated: 521
EndChar

StartChar: "+/qYA"
Encoding: 328 65190 107
Width: 1164
Flags: HW
AnchorPoint: "Anchor-5" 432 1641 basechar 0
AnchorPoint: "Anchor-3" 637 -777 basechar 0
LayerCount: 2
Fore
SplineSet
337 1421 m 1
 337 1241 l 1
 517 1241 l 1
 517 1421 l 1
 337 1421 l 1
427 1092 m 0
 271 1092 136 981 134 821 c 0
 140 742 163 692 202 633 c 1
 309 704 l 1
 285 739 261 782 261 821 c 0
 261 905 342 963 427 963 c 0
 564 963 718 907 838 882 c 1
 660 792 454 667 300 511 c 0
 174 383 80 226 80 54 c 0
 80 -289 401 -422 646 -422 c 0
 869 -422 1020 -341 1158 -177 c 1
 1059 -94 l 1
 955 -225 816 -293 646 -293 c 0
 427 -293 208 -180 208 57 c 0
 208 186 279 306 392 420 c 0
 513 532 633 617 759 690 c 1
 846 552 996 448 1169 448 c 1
 1169 577 l 1
 1053 577 939 651 872 752 c 1
 932 783 993 811 1057 840 c 1
 1052 960 l 1
 885 993 627 1092 427 1092 c 0
EndSplineSet
Validated: 521
EndChar

StartChar: "+/qoA"
Encoding: 329 65194 108
Width: 952
Flags: HW
AnchorPoint: "Anchor-5" 473 1385 basechar 0
AnchorPoint: "Anchor-3" 440 230 basechar 0
LayerCount: 2
Fore
SplineSet
432 1202 m 1
 489 1024 547 867 547 770 c 0
 547 695 513 657 442 626 c 0
 373 597 256 577 80 577 c 1
 80 448 l 1
 264 448 550 458 645 642 c 1
 721 522 830 448 958 448 c 1
 958 577 l 1
 785 577 695 801 656 924 c 2
 555 1241 l 1
 432 1202 l 1
EndSplineSet
Validated: 521
EndChar

StartChar: "+/qwA"
Encoding: 330 65196 109
Width: 952
Flags: HW
AnchorPoint: "Anchor-5" 458 1743 basechar 0
AnchorPoint: "Anchor-3" 440 228 basechar 0
LayerCount: 2
Fore
SplineSet
370 1594 m 1
 370 1414 l 1
 550 1414 l 1
 550 1594 l 1
 370 1594 l 1
555 1241 m 1
 432 1202 l 1
 489 1024 546 867 546 770 c 0
 546 695 513 657 442 626 c 0
 373 597 256 577 80 577 c 1
 80 448 l 1
 264 448 550 458 645 642 c 1
 721 522 830 448 958 448 c 1
 958 577 l 1
 785 577 695 801 656 924 c 2
 555 1241 l 1
EndSplineSet
Validated: 521
EndChar

StartChar: "+/q4A"
Encoding: 331 65198 110
Width: 862
Flags: HW
AnchorPoint: "Anchor-5" 486 1176 basechar 0
AnchorPoint: "Anchor-3" 445 -230 basechar 0
LayerCount: 2
Fore
SplineSet
568 923 m 2
 450 872 l 1
 488 774 513 677 513 578 c 0
 513 311 318 151 80 57 c 1
 126 -64 l 1
 418 50 617 248 639 528 c 1
 639 527 l 1
 696 480 772 448 867 448 c 1
 867 577 l 1
 659 577 637 767 568 922 c 1
 568 923 l 2
EndSplineSet
Validated: 517
PairPos2: "'kern' Horizontal Kerning lookup 1" ـ dx=-196 dy=0 dh=-196 dv=0 dx=0 dy=0 dh=0 dv=0
PairPos2: "'kern' Horizontal Kerning lookup 1" ی dx=-99 dy=0 dh=-99 dv=0 dx=0 dy=0 dh=0 dv=0
PairPos2: "'kern' Horizontal Kerning lookup 1" ۊ dx=-200 dy=0 dh=-200 dv=0 dx=0 dy=0 dh=0 dv=0
PairPos2: "'kern' Horizontal Kerning lookup 1" ۀ dx=-297 dy=0 dh=-297 dv=0 dx=0 dy=0 dh=0 dv=0
PairPos2: "'kern' Horizontal Kerning lookup 1" ﮔ dx=-430 dy=0 dh=-430 dv=0 dx=0 dy=0 dh=0 dv=0
PairPos2: "'kern' Horizontal Kerning lookup 1" گ dx=-430 dy=0 dh=-430 dv=0 dx=0 dy=0 dh=0 dv=0
PairPos2: "'kern' Horizontal Kerning lookup 1" ک dx=-430 dy=0 dh=-430 dv=0 dx=0 dy=0 dh=0 dv=0
PairPos2: "'kern' Horizontal Kerning lookup 1" ژ dx=-250 dy=0 dh=-250 dv=0 dx=0 dy=0 dh=0 dv=0
PairPos2: "'kern' Horizontal Kerning lookup 1" ﭼ dx=-300 dy=0 dh=-300 dv=0 dx=0 dy=0 dh=0 dv=0
PairPos2: "'kern' Horizontal Kerning lookup 1" چ dx=-400 dy=0 dh=-400 dv=0 dx=0 dy=0 dh=0 dv=0
PairPos2: "'kern' Horizontal Kerning lookup 1" پ dx=-300 dy=0 dh=-300 dv=0 dx=0 dy=0 dh=0 dv=0
PairPos2: "'kern' Horizontal Kerning lookup 1" ﻳ dx=-120 dy=0 dh=-120 dv=0 dx=0 dy=0 dh=0 dv=0
PairPos2: "'kern' Horizontal Kerning lookup 1" ي dx=-99 dy=0 dh=-99 dv=0 dx=0 dy=0 dh=0 dv=0
PairPos2: "'kern' Horizontal Kerning lookup 1" ئ dx=-99 dy=0 dh=-99 dv=0 dx=0 dy=0 dh=0 dv=0
PairPos2: "'kern' Horizontal Kerning lookup 1" و dx=-220 dy=0 dh=-220 dv=0 dx=0 dy=0 dh=0 dv=0
PairPos2: "'kern' Horizontal Kerning lookup 1" ؤ dx=-220 dy=0 dh=-220 dv=0 dx=0 dy=0 dh=0 dv=0
PairPos2: "'kern' Horizontal Kerning lookup 1" ﻫ dx=-306 dy=0 dh=-306 dv=0 dx=0 dy=0 dh=0 dv=0
PairPos2: "'kern' Horizontal Kerning lookup 1" ه dx=-297 dy=0 dh=-297 dv=0 dx=0 dy=0 dh=0 dv=0
PairPos2: "'kern' Horizontal Kerning lookup 1" ﻧ dx=-298 dy=0 dh=-298 dv=0 dx=0 dy=0 dh=0 dv=0
PairPos2: "'kern' Horizontal Kerning lookup 1" ن dx=-170 dy=0 dh=-170 dv=0 dx=0 dy=0 dh=0 dv=0
PairPos2: "'kern' Horizontal Kerning lookup 1" ﻣ dx=-298 dy=0 dh=-298 dv=0 dx=0 dy=0 dh=0 dv=0
PairPos2: "'kern' Horizontal Kerning lookup 1" ﻟ dx=-294 dy=0 dh=-294 dv=0 dx=0 dy=0 dh=0 dv=0
PairPos2: "'kern' Horizontal Kerning lookup 1" ل dx=-150 dy=0 dh=-150 dv=0 dx=0 dy=0 dh=0 dv=0
PairPos2: "'kern' Horizontal Kerning lookup 1" ﻛ dx=-450 dy=0 dh=-450 dv=0 dx=0 dy=0 dh=0 dv=0
PairPos2: "'kern' Horizontal Kerning lookup 1" ﻗ dx=-300 dy=0 dh=-300 dv=0 dx=0 dy=0 dh=0 dv=0
PairPos2: "'kern' Horizontal Kerning lookup 1" ق dx=-200 dy=0 dh=-200 dv=0 dx=0 dy=0 dh=0 dv=0
PairPos2: "'kern' Horizontal Kerning lookup 1" ﻓ dx=-300 dy=0 dh=-300 dv=0 dx=0 dy=0 dh=0 dv=0
PairPos2: "'kern' Horizontal Kerning lookup 1" ف dx=-300 dy=0 dh=-300 dv=0 dx=0 dy=0 dh=0 dv=0
PairPos2: "'kern' Horizontal Kerning lookup 1" ﻏ dx=-300 dy=0 dh=-300 dv=0 dx=0 dy=0 dh=0 dv=0
PairPos2: "'kern' Horizontal Kerning lookup 1" غ dx=-550 dy=0 dh=-550 dv=0 dx=0 dy=0 dh=0 dv=0
PairPos2: "'kern' Horizontal Kerning lookup 1" ﻋ dx=-300 dy=0 dh=-300 dv=0 dx=0 dy=0 dh=0 dv=0
PairPos2: "'kern' Horizontal Kerning lookup 1" ع dx=-550 dy=0 dh=-550 dv=0 dx=0 dy=0 dh=0 dv=0
PairPos2: "'kern' Horizontal Kerning lookup 1" ﻇ dx=-300 dy=0 dh=-300 dv=0 dx=0 dy=0 dh=0 dv=0
PairPos2: "'kern' Horizontal Kerning lookup 1" ظ dx=-300 dy=0 dh=-300 dv=0 dx=0 dy=0 dh=0 dv=0
PairPos2: "'kern' Horizontal Kerning lookup 1" ﻃ dx=-300 dy=0 dh=-300 dv=0 dx=0 dy=0 dh=0 dv=0
PairPos2: "'kern' Horizontal Kerning lookup 1" ط dx=-300 dy=0 dh=-300 dv=0 dx=0 dy=0 dh=0 dv=0
PairPos2: "'kern' Horizontal Kerning lookup 1" ﺿ dx=-300 dy=0 dh=-300 dv=0 dx=0 dy=0 dh=0 dv=0
PairPos2: "'kern' Horizontal Kerning lookup 1" ض dx=-300 dy=0 dh=-300 dv=0 dx=0 dy=0 dh=0 dv=0
PairPos2: "'kern' Horizontal Kerning lookup 1" ﺻ dx=-300 dy=0 dh=-300 dv=0 dx=0 dy=0 dh=0 dv=0
PairPos2: "'kern' Horizontal Kerning lookup 1" ص dx=-300 dy=0 dh=-300 dv=0 dx=0 dy=0 dh=0 dv=0
PairPos2: "'kern' Horizontal Kerning lookup 1" ﺷ dx=-300 dy=0 dh=-300 dv=0 dx=0 dy=0 dh=0 dv=0
PairPos2: "'kern' Horizontal Kerning lookup 1" ش dx=-300 dy=0 dh=-300 dv=0 dx=0 dy=0 dh=0 dv=0
PairPos2: "'kern' Horizontal Kerning lookup 1" ﺳ dx=-300 dy=0 dh=-300 dv=0 dx=0 dy=0 dh=0 dv=0
PairPos2: "'kern' Horizontal Kerning lookup 1" س dx=-300 dy=0 dh=-300 dv=0 dx=0 dy=0 dh=0 dv=0
PairPos2: "'kern' Horizontal Kerning lookup 1" ز dx=-200 dy=0 dh=-200 dv=0 dx=0 dy=0 dh=0 dv=0
PairPos2: "'kern' Horizontal Kerning lookup 1" ر dx=-200 dy=0 dh=-200 dv=0 dx=0 dy=0 dh=0 dv=0
PairPos2: "'kern' Horizontal Kerning lookup 1" ذ dx=-300 dy=0 dh=-300 dv=0 dx=0 dy=0 dh=0 dv=0
PairPos2: "'kern' Horizontal Kerning lookup 1" د dx=-300 dy=0 dh=-300 dv=0 dx=0 dy=0 dh=0 dv=0
PairPos2: "'kern' Horizontal Kerning lookup 1" ﺧ dx=-300 dy=0 dh=-300 dv=0 dx=0 dy=0 dh=0 dv=0
PairPos2: "'kern' Horizontal Kerning lookup 1" خ dx=-430 dy=0 dh=-430 dv=0 dx=0 dy=0 dh=0 dv=0
PairPos2: "'kern' Horizontal Kerning lookup 1" ﺣ dx=-300 dy=0 dh=-300 dv=0 dx=0 dy=0 dh=0 dv=0
PairPos2: "'kern' Horizontal Kerning lookup 1" ح dx=-430 dy=0 dh=-430 dv=0 dx=0 dy=0 dh=0 dv=0
PairPos2: "'kern' Horizontal Kerning lookup 1" ﺟ dx=-300 dy=0 dh=-300 dv=0 dx=0 dy=0 dh=0 dv=0
PairPos2: "'kern' Horizontal Kerning lookup 1" ج dx=-430 dy=0 dh=-430 dv=0 dx=0 dy=0 dh=0 dv=0
PairPos2: "'kern' Horizontal Kerning lookup 1" ﺛ dx=-300 dy=0 dh=-300 dv=0 dx=0 dy=0 dh=0 dv=0
PairPos2: "'kern' Horizontal Kerning lookup 1" ث dx=-300 dy=0 dh=-300 dv=0 dx=0 dy=0 dh=0 dv=0
PairPos2: "'kern' Horizontal Kerning lookup 1" ﺗ dx=-300 dy=0 dh=-300 dv=0 dx=0 dy=0 dh=0 dv=0
PairPos2: "'kern' Horizontal Kerning lookup 1" ت dx=-300 dy=0 dh=-300 dv=0 dx=0 dy=0 dh=0 dv=0
PairPos2: "'kern' Horizontal Kerning lookup 1" ﺑ dx=-200 dy=0 dh=-200 dv=0 dx=0 dy=0 dh=0 dv=0
PairPos2: "'kern' Horizontal Kerning lookup 1" ب dx=-300 dy=0 dh=-300 dv=0 dx=0 dy=0 dh=0 dv=0
PairPos2: "'kern' Horizontal Kerning lookup 1" ا dx=-266 dy=0 dh=-266 dv=0 dx=0 dy=0 dh=0 dv=0
PairPos2: "'kern' Horizontal Kerning lookup 1" أ dx=-300 dy=0 dh=-300 dv=0 dx=0 dy=0 dh=0 dv=0
PairPos2: "'kern' Horizontal Kerning lookup 1" آ dx=-250 dy=0 dh=-250 dv=0 dx=0 dy=0 dh=0 dv=0
PairPos2: "'kern' Horizontal Kerning lookup 1" ﺋ dx=-300 dy=0 dh=-300 dv=0 dx=0 dy=0 dh=0 dv=0
PairPos2: "'kern' Horizontal Kerning lookup 1" ء dx=-300 dy=0 dh=-300 dv=0 dx=0 dy=0 dh=0 dv=0
PairPos2: "'kern' Horizontal Kerning lookup 1" ﻙ dx=-302 dy=0 dh=-302 dv=0 dx=0 dy=0 dh=0 dv=0
PairPos2: "'kern' Horizontal Kerning lookup 1" uni0649 dx=-99 dy=0 dh=-99 dv=0 dx=0 dy=0 dh=0 dv=0
PairPos2: "'kern' Horizontal Kerning lookup 1" ﺓ dx=-297 dy=0 dh=-297 dv=0 dx=0 dy=0 dh=0 dv=0
PairPos2: "'kern' Horizontal Kerning lookup 1" uni0629 dx=-297 dy=0 dh=-297 dv=0 dx=0 dy=0 dh=0 dv=0
EndChar

StartChar: "+/rAA"
Encoding: 332 65200 111
Width: 862
Flags: HW
AnchorPoint: "Anchor-5" 485 1426 basechar 0
AnchorPoint: "Anchor-3" 427 -234 basechar 0
LayerCount: 2
Fore
SplineSet
398 1250 m 1
 398 1070 l 1
 578 1070 l 1
 578 1250 l 1
 398 1250 l 1
568 923 m 1
 450 872 l 1
 488 774 513 677 513 578 c 0
 513 311 318 151 80 57 c 1
 126 -64 l 1
 418 50 617 248 639 528 c 1
 696 481 772 448 867 448 c 1
 867 577 l 1
 659 577 637 767 568 923 c 1
EndSplineSet
Validated: 521
PairPos2: "'kern' Horizontal Kerning lookup 1" ی dx=-99 dy=0 dh=-99 dv=0 dx=0 dy=0 dh=0 dv=0
PairPos2: "'kern' Horizontal Kerning lookup 1" ۊ dx=-200 dy=0 dh=-200 dv=0 dx=0 dy=0 dh=0 dv=0
PairPos2: "'kern' Horizontal Kerning lookup 1" ۀ dx=-297 dy=0 dh=-297 dv=0 dx=0 dy=0 dh=0 dv=0
PairPos2: "'kern' Horizontal Kerning lookup 1" ﮔ dx=-430 dy=0 dh=-430 dv=0 dx=0 dy=0 dh=0 dv=0
PairPos2: "'kern' Horizontal Kerning lookup 1" گ dx=-430 dy=0 dh=-430 dv=0 dx=0 dy=0 dh=0 dv=0
PairPos2: "'kern' Horizontal Kerning lookup 1" ک dx=-430 dy=0 dh=-430 dv=0 dx=0 dy=0 dh=0 dv=0
PairPos2: "'kern' Horizontal Kerning lookup 1" ژ dx=-250 dy=0 dh=-250 dv=0 dx=0 dy=0 dh=0 dv=0
PairPos2: "'kern' Horizontal Kerning lookup 1" ﭼ dx=-300 dy=0 dh=-300 dv=0 dx=0 dy=0 dh=0 dv=0
PairPos2: "'kern' Horizontal Kerning lookup 1" چ dx=-400 dy=0 dh=-400 dv=0 dx=0 dy=0 dh=0 dv=0
PairPos2: "'kern' Horizontal Kerning lookup 1" پ dx=-300 dy=0 dh=-300 dv=0 dx=0 dy=0 dh=0 dv=0
PairPos2: "'kern' Horizontal Kerning lookup 1" ﻳ dx=-120 dy=0 dh=-120 dv=0 dx=0 dy=0 dh=0 dv=0
PairPos2: "'kern' Horizontal Kerning lookup 1" ي dx=-99 dy=0 dh=-99 dv=0 dx=0 dy=0 dh=0 dv=0
PairPos2: "'kern' Horizontal Kerning lookup 1" ئ dx=-99 dy=0 dh=-99 dv=0 dx=0 dy=0 dh=0 dv=0
PairPos2: "'kern' Horizontal Kerning lookup 1" و dx=-220 dy=0 dh=-220 dv=0 dx=0 dy=0 dh=0 dv=0
PairPos2: "'kern' Horizontal Kerning lookup 1" ؤ dx=-220 dy=0 dh=-220 dv=0 dx=0 dy=0 dh=0 dv=0
PairPos2: "'kern' Horizontal Kerning lookup 1" ﻫ dx=-306 dy=0 dh=-306 dv=0 dx=0 dy=0 dh=0 dv=0
PairPos2: "'kern' Horizontal Kerning lookup 1" ه dx=-297 dy=0 dh=-297 dv=0 dx=0 dy=0 dh=0 dv=0
PairPos2: "'kern' Horizontal Kerning lookup 1" ﻧ dx=-298 dy=0 dh=-298 dv=0 dx=0 dy=0 dh=0 dv=0
PairPos2: "'kern' Horizontal Kerning lookup 1" ن dx=-170 dy=0 dh=-170 dv=0 dx=0 dy=0 dh=0 dv=0
PairPos2: "'kern' Horizontal Kerning lookup 1" ﻣ dx=-298 dy=0 dh=-298 dv=0 dx=0 dy=0 dh=0 dv=0
PairPos2: "'kern' Horizontal Kerning lookup 1"  dx=0 dy=0 dh=0 dv=0 dx=0 dy=0 dh=0 dv=0
PairPos2: "'kern' Horizontal Kerning lookup 1" ﻟ dx=-294 dy=0 dh=-294 dv=0 dx=0 dy=0 dh=0 dv=0
PairPos2: "'kern' Horizontal Kerning lookup 1" ل dx=-150 dy=0 dh=-150 dv=0 dx=0 dy=0 dh=0 dv=0
PairPos2: "'kern' Horizontal Kerning lookup 1" ﻛ dx=-450 dy=0 dh=-450 dv=0 dx=0 dy=0 dh=0 dv=0
PairPos2: "'kern' Horizontal Kerning lookup 1" ﻗ dx=-300 dy=0 dh=-300 dv=0 dx=0 dy=0 dh=0 dv=0
PairPos2: "'kern' Horizontal Kerning lookup 1" ق dx=-200 dy=0 dh=-200 dv=0 dx=0 dy=0 dh=0 dv=0
PairPos2: "'kern' Horizontal Kerning lookup 1" ﻓ dx=-300 dy=0 dh=-300 dv=0 dx=0 dy=0 dh=0 dv=0
PairPos2: "'kern' Horizontal Kerning lookup 1" ف dx=-300 dy=0 dh=-300 dv=0 dx=0 dy=0 dh=0 dv=0
PairPos2: "'kern' Horizontal Kerning lookup 1" ﻏ dx=-300 dy=0 dh=-300 dv=0 dx=0 dy=0 dh=0 dv=0
PairPos2: "'kern' Horizontal Kerning lookup 1" غ dx=-550 dy=0 dh=-550 dv=0 dx=0 dy=0 dh=0 dv=0
PairPos2: "'kern' Horizontal Kerning lookup 1" ﻋ dx=-300 dy=0 dh=-300 dv=0 dx=0 dy=0 dh=0 dv=0
PairPos2: "'kern' Horizontal Kerning lookup 1" ع dx=-550 dy=0 dh=-550 dv=0 dx=0 dy=0 dh=0 dv=0
PairPos2: "'kern' Horizontal Kerning lookup 1" ﻇ dx=-300 dy=0 dh=-300 dv=0 dx=0 dy=0 dh=0 dv=0
PairPos2: "'kern' Horizontal Kerning lookup 1" ظ dx=-300 dy=0 dh=-300 dv=0 dx=0 dy=0 dh=0 dv=0
PairPos2: "'kern' Horizontal Kerning lookup 1" ﻃ dx=-300 dy=0 dh=-300 dv=0 dx=0 dy=0 dh=0 dv=0
PairPos2: "'kern' Horizontal Kerning lookup 1" ط dx=-300 dy=0 dh=-300 dv=0 dx=0 dy=0 dh=0 dv=0
PairPos2: "'kern' Horizontal Kerning lookup 1" ﺿ dx=-300 dy=0 dh=-300 dv=0 dx=0 dy=0 dh=0 dv=0
PairPos2: "'kern' Horizontal Kerning lookup 1" ض dx=-300 dy=0 dh=-300 dv=0 dx=0 dy=0 dh=0 dv=0
PairPos2: "'kern' Horizontal Kerning lookup 1" ﺻ dx=-300 dy=0 dh=-300 dv=0 dx=0 dy=0 dh=0 dv=0
PairPos2: "'kern' Horizontal Kerning lookup 1" ص dx=-300 dy=0 dh=-300 dv=0 dx=0 dy=0 dh=0 dv=0
PairPos2: "'kern' Horizontal Kerning lookup 1" ﺷ dx=-300 dy=0 dh=-300 dv=0 dx=0 dy=0 dh=0 dv=0
PairPos2: "'kern' Horizontal Kerning lookup 1" ش dx=-300 dy=0 dh=-300 dv=0 dx=0 dy=0 dh=0 dv=0
PairPos2: "'kern' Horizontal Kerning lookup 1" ﺳ dx=-300 dy=0 dh=-300 dv=0 dx=0 dy=0 dh=0 dv=0
PairPos2: "'kern' Horizontal Kerning lookup 1" س dx=-300 dy=0 dh=-300 dv=0 dx=0 dy=0 dh=0 dv=0
PairPos2: "'kern' Horizontal Kerning lookup 1" ز dx=-200 dy=0 dh=-200 dv=0 dx=0 dy=0 dh=0 dv=0
PairPos2: "'kern' Horizontal Kerning lookup 1" ر dx=-200 dy=0 dh=-200 dv=0 dx=0 dy=0 dh=0 dv=0
PairPos2: "'kern' Horizontal Kerning lookup 1" ذ dx=-300 dy=0 dh=-300 dv=0 dx=0 dy=0 dh=0 dv=0
PairPos2: "'kern' Horizontal Kerning lookup 1" د dx=-300 dy=0 dh=-300 dv=0 dx=0 dy=0 dh=0 dv=0
PairPos2: "'kern' Horizontal Kerning lookup 1" ﺧ dx=-300 dy=0 dh=-300 dv=0 dx=0 dy=0 dh=0 dv=0
PairPos2: "'kern' Horizontal Kerning lookup 1" خ dx=-430 dy=0 dh=-430 dv=0 dx=0 dy=0 dh=0 dv=0
PairPos2: "'kern' Horizontal Kerning lookup 1" ﺣ dx=-300 dy=0 dh=-300 dv=0 dx=0 dy=0 dh=0 dv=0
PairPos2: "'kern' Horizontal Kerning lookup 1" ح dx=-430 dy=0 dh=-430 dv=0 dx=0 dy=0 dh=0 dv=0
PairPos2: "'kern' Horizontal Kerning lookup 1" ﺟ dx=-300 dy=0 dh=-300 dv=0 dx=0 dy=0 dh=0 dv=0
PairPos2: "'kern' Horizontal Kerning lookup 1" ج dx=-430 dy=0 dh=-430 dv=0 dx=0 dy=0 dh=0 dv=0
PairPos2: "'kern' Horizontal Kerning lookup 1" ﺛ dx=-300 dy=0 dh=-300 dv=0 dx=0 dy=0 dh=0 dv=0
PairPos2: "'kern' Horizontal Kerning lookup 1" ث dx=-300 dy=0 dh=-300 dv=0 dx=0 dy=0 dh=0 dv=0
PairPos2: "'kern' Horizontal Kerning lookup 1" ﺗ dx=-300 dy=0 dh=-300 dv=0 dx=0 dy=0 dh=0 dv=0
PairPos2: "'kern' Horizontal Kerning lookup 1" ت dx=-300 dy=0 dh=-300 dv=0 dx=0 dy=0 dh=0 dv=0
PairPos2: "'kern' Horizontal Kerning lookup 1" ﺑ dx=-200 dy=0 dh=-200 dv=0 dx=0 dy=0 dh=0 dv=0
PairPos2: "'kern' Horizontal Kerning lookup 1" ب dx=-300 dy=0 dh=-300 dv=0 dx=0 dy=0 dh=0 dv=0
PairPos2: "'kern' Horizontal Kerning lookup 1" ا dx=-266 dy=0 dh=-266 dv=0 dx=0 dy=0 dh=0 dv=0
PairPos2: "'kern' Horizontal Kerning lookup 1" أ dx=-300 dy=0 dh=-300 dv=0 dx=0 dy=0 dh=0 dv=0
PairPos2: "'kern' Horizontal Kerning lookup 1" آ dx=-250 dy=0 dh=-250 dv=0 dx=0 dy=0 dh=0 dv=0
PairPos2: "'kern' Horizontal Kerning lookup 1" ﺋ dx=-300 dy=0 dh=-300 dv=0 dx=0 dy=0 dh=0 dv=0
PairPos2: "'kern' Horizontal Kerning lookup 1" ء dx=-300 dy=0 dh=-300 dv=0 dx=0 dy=0 dh=0 dv=0
PairPos2: "'kern' Horizontal Kerning lookup 1" ﻙ dx=-302 dy=0 dh=-302 dv=0 dx=0 dy=0 dh=0 dv=0
PairPos2: "'kern' Horizontal Kerning lookup 1" uni0649 dx=-99 dy=0 dh=-99 dv=0 dx=0 dy=0 dh=0 dv=0
PairPos2: "'kern' Horizontal Kerning lookup 1" ﺓ dx=-297 dy=0 dh=-297 dv=0 dx=0 dy=0 dh=0 dv=0
PairPos2: "'kern' Horizontal Kerning lookup 1" uni0629 dx=-297 dy=0 dh=-297 dv=0 dx=0 dy=0 dh=0 dv=0
EndChar

StartChar: "+/rIA"
Encoding: 334 65202 112
Width: 2650
Flags: HW
AnchorPoint: "Anchor-5" 1820 1197 basechar 0
AnchorPoint: "Anchor-3" 675 -409 basechar 0
LayerCount: 2
Fore
SplineSet
1735 655 m 1
 1724 630 1710 613 1687 600 c 0
 1664 587 1628 577 1572 577 c 0
 1465 577 1438 609 1407 672 c 0
 1388 710 1374 763 1357 818 c 0
 1346 853 1334 888 1319 923 c 1
 1319 924 1318 924 1318 925 c 2
 1201 872 l 1
 1245 769 1265 661 1265 561 c 0
 1265 457 1243 363 1202 291 c 0
 1105 123 869 -3 676 -3 c 0
 406 -3 239 134 213 295 c 0
 211 310 209 325 209 341 c 0
 209 495 330 687 666 839 c 1
 613 956 l 1
 250 792 80 558 80 341 c 0
 80 318 81 296 85 274 c 0
 124 39 361 -132 676 -132 c 0
 921 -132 1188 7 1314 226 c 0
 1360 306 1384 400 1392 500 c 1
 1439 469 1499 448 1572 448 c 0
 1643 448 1702 461 1750 488 c 0
 1782 506 1806 532 1826 560 c 1
 1846 532 1869 506 1901 488 c 0
 1949 461 2008 448 2079 448 c 0
 2150 448 2209 461 2257 488 c 0
 2293 508 2319 538 2339 570 c 1
 2397 495 2500 448 2654 448 c 1
 2654 577 l 1
 2505 577 2457 611 2429 660 c 0
 2401 709 2397 796 2397 898 c 1
 2268 898 l 1
 2268 796 2265 706 2242 655 c 0
 2231 630 2216 613 2193 600 c 0
 2170 587 2135 577 2079 577 c 0
 2024 577 1987 587 1964 600 c 0
 1941 613 1927 630 1916 655 c 0
 1893 706 1890 796 1890 898 c 1
 1761 898 l 1
 1761 796 1758 706 1735 655 c 1
EndSplineSet
Validated: 521
EndChar

StartChar: "+/rYA"
Encoding: 335 65206 113
Width: 2650
Flags: HW
AnchorPoint: "Anchor-5" 1828 1739 basechar 0
AnchorPoint: "Anchor-3" 665 -407 basechar 0
LayerCount: 2
Fore
SplineSet
1864 1503 m 1
 1743 1434 l 1
 1860 1231 l 1
 1627 1231 l 1
 1627 1091 l 1
 1981 1091 l 1
 2041 1196 l 1
 1864 1503 l 1
613 956 m 1
 250 792 80 558 80 341 c 0
 80 318 81 296 85 274 c 0
 124 39 361 -132 676 -132 c 0
 921 -132 1187 7 1313 226 c 0
 1359 306 1384 400 1392 500 c 1
 1439 469 1499 448 1572 448 c 0
 1643 448 1702 461 1750 488 c 0
 1782 506 1806 532 1826 560 c 1
 1846 532 1869 506 1901 488 c 0
 1949 461 2008 448 2079 448 c 0
 2150 448 2209 461 2257 488 c 0
 2293 508 2319 538 2339 570 c 1
 2397 495 2500 448 2654 448 c 1
 2654 577 l 1
 2505 577 2457 611 2429 660 c 0
 2401 709 2397 795 2397 897 c 1
 2268 897 l 1
 2268 795 2265 706 2242 655 c 0
 2231 630 2216 613 2193 600 c 0
 2170 587 2135 577 2079 577 c 0
 2024 577 1987 587 1964 600 c 0
 1941 613 1927 630 1916 655 c 0
 1893 706 1890 795 1890 897 c 1
 1761 897 l 1
 1761 795 1758 706 1735 655 c 0
 1724 630 1710 613 1687 600 c 0
 1664 587 1628 577 1572 577 c 0
 1465 577 1438 609 1407 672 c 0
 1388 710 1374 763 1357 818 c 0
 1346 853 1334 888 1319 923 c 0
 1319 924 1318 923 1318 924 c 2
 1201 872 l 1
 1245 769 1265 660 1265 560 c 0
 1265 456 1243 362 1202 290 c 0
 1105 122 869 -3 676 -3 c 0
 406 -3 239 134 213 295 c 0
 211 310 209 325 209 341 c 0
 209 495 330 687 666 839 c 1
 613 956 l 1
EndSplineSet
Validated: 521
EndChar

StartChar: "+/roA"
Encoding: 336 65210 114
Width: 2428
Flags: HW
AnchorPoint: "Anchor-5" 1965 1341 basechar 0
AnchorPoint: "Anchor-3" 674 -409 basechar 0
LayerCount: 2
Fore
SplineSet
1963 1092 m 0
 1746 1092 1558 834 1463 632 c 1
 1438 644 1413 657 1388 672 c 1
 1377 755 1354 841 1319 923 c 1
 1201 872 l 1
 1245 769 1265 661 1265 561 c 0
 1265 457 1243 362 1202 290 c 0
 1105 122 869 -3 676 -3 c 0
 406 -3 239 134 213 295 c 0
 211 310 209 325 209 341 c 0
 209 495 330 687 666 839 c 1
 613 956 l 1
 250 792 80 558 80 341 c 0
 80 318 81 296 85 274 c 0
 124 39 361 -132 676 -132 c 0
 921 -132 1187 7 1313 226 c 0
 1363 312 1390 414 1395 523 c 1
 1483 480 1581 448 1688 448 c 0
 1858 448 2041 512 2144 624 c 1
 2194 515 2287 448 2434 448 c 1
 2434 577 l 1
 2267 577 2231 715 2226 843 c 0
 2217 971 2112 1092 1963 1092 c 0
1963 963 m 0
 2047 963 2098 894 2098 826 c 0
 2098 685 1893 577 1688 577 c 0
 1655 577 1617 581 1584 589 c 1
 1648 727 1818 963 1963 963 c 0
EndSplineSet
Validated: 521
EndChar

StartChar: "+/r4A"
Encoding: 337 65214 115
Width: 2428
Flags: HW
AnchorPoint: "Anchor-5" 1962 1601 basechar 0
AnchorPoint: "Anchor-3" 677 -410 basechar 0
LayerCount: 2
Fore
SplineSet
1874 1421 m 1
 1874 1241 l 1
 2054 1241 l 1
 2054 1421 l 1
 1874 1421 l 1
1963 1092 m 0
 1746 1092 1558 834 1463 632 c 1
 1438 644 1413 657 1388 672 c 1
 1377 755 1354 841 1319 923 c 1
 1201 872 l 1
 1245 769 1265 661 1265 561 c 0
 1265 457 1243 362 1202 290 c 0
 1105 122 869 -3 676 -3 c 0
 406 -3 239 134 213 295 c 0
 211 310 209 325 209 341 c 0
 209 495 330 687 666 839 c 1
 613 956 l 1
 250 792 80 558 80 341 c 0
 80 318 81 296 85 274 c 0
 124 39 361 -132 676 -132 c 0
 921 -132 1188 7 1314 226 c 0
 1364 312 1390 414 1395 523 c 1
 1483 480 1581 448 1688 448 c 0
 1858 448 2041 512 2144 624 c 1
 2194 515 2287 448 2434 448 c 1
 2434 577 l 1
 2267 577 2231 715 2226 843 c 0
 2217 971 2112 1092 1963 1092 c 0
1963 963 m 0
 2047 963 2098 894 2098 826 c 0
 2098 685 1893 577 1688 577 c 0
 1655 577 1618 581 1585 589 c 1
 1649 727 1818 963 1963 963 c 0
EndSplineSet
Validated: 521
EndChar

StartChar: "+/sIA"
Encoding: 338 65218 116
Width: 1090
Flags: HW
AnchorPoint: "Anchor-5" 771 1479 basechar 0
AnchorPoint: "Anchor-3" 552 231 basechar 0
LayerCount: 2
Fore
SplineSet
202 1665 m 1
 202 575 l 1
 80 575 l 1
 80 448 l 1
 348 448 l 1
 435 448 l 1
 1095 448 l 1
 1095 577 l 1
 898 577 l 1
 977 640 1032 726 1032 827 c 0
 1032 962 925 1093 769 1093 c 0
 638 1093 528 1003 439 899 c 0
 398 851 361 800 330 748 c 1
 330 1665 l 1
 202 1665 l 1
768 964 m 0
 852 964 904 895 904 827 c 0
 904 764 864 705 789 657 c 0
 724 616 635 585 540 577 c 2
 389 577 l 1
 424 653 474 743 537 816 c 0
 614 906 701 964 768 964 c 0
EndSplineSet
Validated: 521
EndChar

StartChar: "+/sYA"
Encoding: 339 65222 117
Width: 1090
Flags: HW
AnchorPoint: "Anchor-5" 769 1635 basechar 0
AnchorPoint: "Anchor-3" 548 231 basechar 0
LayerCount: 2
Fore
SplineSet
202 1665 m 1
 202 575 l 1
 80 575 l 1
 80 448 l 1
 348 448 l 1
 435 448 l 1
 1095 448 l 1
 1095 577 l 1
 898 577 l 1
 977 640 1032 726 1032 827 c 0
 1032 962 925 1093 769 1093 c 0
 638 1093 528 1003 439 899 c 0
 398 851 361 800 330 748 c 1
 330 1665 l 1
 202 1665 l 1
680 1420 m 1
 680 1240 l 1
 860 1240 l 1
 860 1420 l 1
 680 1420 l 1
768 964 m 0
 852 964 904 895 904 827 c 0
 904 764 864 705 789 657 c 0
 724 616 635 585 540 577 c 2
 389 577 l 1
 424 653 474 743 537 816 c 0
 614 906 701 964 768 964 c 0
EndSplineSet
Validated: 521
EndChar

StartChar: "+/soA"
Encoding: 340 65226 118
Width: 900
Flags: HW
AnchorPoint: "Anchor-5" 496 1327 basechar 0
AnchorPoint: "Anchor-3" 575 -639 basechar 0
LayerCount: 2
Fore
SplineSet
903 577 m 1
 699 575 l 2
 645 574 586 585 535 601 c 1
 676 721 812 791 834 800 c 0
 858 810 873 834 873 860 c 0
 873 1020 633 1092 495 1092 c 0
 296 1092 117 1000 117 860 c 0
 117 724 213 623 310 564 c 1
 167 421 80 221 80 37 c 0
 80 -288 324 -422 575 -422 c 0
 778 -422 898 -349 1021 -203 c 1
 923 -120 l 1
 837 -231 738 -293 575 -293 c 0
 405 -293 209 -216 209 36 c 0
 209 221 309 372 429 501 c 1
 519 464 598 448 699 448 c 2
 903 448 l 1
 903 577 l 1
495 963 m 0
 561 963 660 941 720 887 c 1
 649 849 528 776 402 658 c 1
 328 695 246 798 246 860 c 0
 246 905 361 963 495 963 c 0
EndSplineSet
Validated: 553
EndChar

StartChar: "+/s4A"
Encoding: 341 65230 119
Width: 900
Flags: HW
AnchorPoint: "Anchor-5" 493 1636 basechar 0
AnchorPoint: "Anchor-3" 573 -675 basechar 0
LayerCount: 2
Fore
SplineSet
393 1452 m 1
 393 1272 l 1
 573 1272 l 1
 573 1452 l 1
 393 1452 l 1
495 1092 m 0
 296 1092 117 1000 117 860 c 0
 117 724 213 623 310 564 c 1
 167 421 80 221 80 37 c 0
 80 -288 324 -422 575 -422 c 0
 778 -422 898 -349 1021 -203 c 1
 923 -120 l 1
 837 -231 738 -293 575 -293 c 0
 405 -293 209 -216 209 36 c 0
 209 221 309 372 429 501 c 1
 519 464 598 448 699 448 c 2
 903 448 l 1
 903 577 l 1
 699 575 l 2
 645 574 586 585 535 601 c 1
 676 721 812 791 834 800 c 0
 858 810 873 834 873 860 c 0
 873 1020 633 1092 495 1092 c 0
495 963 m 0
 561 963 660 941 720 887 c 1
 649 849 528 776 402 658 c 1
 328 695 246 798 246 860 c 0
 246 905 361 963 495 963 c 0
EndSplineSet
Validated: 553
EndChar

StartChar: "+/tIA"
Encoding: 342 65234 120
Width: 1832
Flags: HW
AnchorPoint: "Anchor-5" 1488 1638 basechar 0
AnchorPoint: "Anchor-3" 861 184 basechar 0
LayerCount: 2
Fore
SplineSet
1383 1453 m 1
 1383 1273 l 1
 1563 1273 l 1
 1563 1453 l 1
 1383 1453 l 1
1108 448 m 2
 1263 448 1369 454 1473 467 c 1
 1577 454 1682 448 1837 448 c 1
 1837 577 l 1
 1796 577 1768 578 1732 579 c 1
 1767 621 1785 671 1785 734 c 0
 1785 905 1651 1093 1473 1093 c 0
 1295 1093 1161 905 1161 734 c 0
 1161 671 1179 621 1214 579 c 1
 1178 578 1149 577 1108 577 c 2
 941 577 l 2
 703 577 486 583 355 627 c 0
 268 657 208 701 208 793 c 0
 208 841 225 894 238 943 c 1
 114 976 l 1
 97 911 80 863 80 794 c 0
 80 654 153 561 314 504 c 0
 479 445 702 448 941 448 c 2
 1108 448 l 2
1473 964 m 0
 1557 964 1656 846 1656 735 c 0
 1656 625 1568 602 1473 596 c 1
 1378 602 1290 625 1290 735 c 0
 1290 846 1389 964 1473 964 c 0
EndSplineSet
Validated: 553
EndChar

StartChar: "+/tYA"
Encoding: 343 65238 121
Width: 1450
Flags: HW
AnchorPoint: "Anchor-5" 1075 1562 basechar 0
AnchorPoint: "Anchor-3" 671 -409 basechar 0
LayerCount: 2
Fore
SplineSet
886 1384 m 1
 886 1244 l 1
 1285 1244 l 1
 1285 1384 l 1
 886 1384 l 1
1082 1093 m 0
 911 1093 770 904 770 726 c 0
 770 557 895 448 1085 448 c 2
 1252 448 l 1
 1232 184 903 -3 676 -3 c 0
 430 -3 209 122 209 341 c 0
 209 495 330 687 666 839 c 1
 613 956 l 1
 250 792 80 558 80 341 c 0
 80 36 383 -132 676 -132 c 0
 934 -132 1327 48 1381 448 c 1
 1454 448 l 1
 1454 578 l 1
 1387 578 l 1
 1377 811 1271 1093 1082 1093 c 0
1082 964 m 0
 1170 964 1257 738 1253 602 c 2
 1253 578 l 1
 1089 578 l 2
 984 578 898 617 898 729 c 0
 898 842 992 964 1082 964 c 0
EndSplineSet
Validated: 553
EndChar

StartChar: "+/toA"
Encoding: 344 65242 122
Width: 1724
Flags: HW
AnchorPoint: "Anchor-3" 812 181 basechar 0
AnchorPoint: "Anchor-5" 728 1647 basechar 0
LayerCount: 2
Fore
SplineSet
1529 523 m 0
 1573 476 1642 448 1729 448 c 1
 1729 577 l 1
 1666 577 1643 591 1624 611 c 0
 1605 631 1590 667 1576 717 c 0
 1548 816 1517 970 1380 1064 c 0
 1306 1120 1204 1175 1064 1242 c 0
 1013 1266 1001 1291 1001 1310 c 0
 1001 1329 1014 1360 1066 1395 c 2
 1683 1803 l 1
 1612 1911 l 1
 995 1503 l 2
 919 1453 870 1384 872 1307 c 0
 874 1230 929 1164 1008 1126 c 0
 1164 1051 1268 992 1326 942 c 0
 1384 892 1398 860 1398 807 c 0
 1398 745 1380 689 1342 648 c 0
 1304 607 1212 577 942 577 c 0
 704 577 486 583 355 627 c 0
 268 657 208 701 208 793 c 0
 208 841 225 894 238 943 c 1
 114 976 l 1
 97 911 80 863 80 794 c 0
 80 654 153 561 314 504 c 0
 479 445 703 448 942 448 c 0
 1285 448 1371 491 1436 560 c 0
 1451 576 1464 593 1475 611 c 1
 1487 580 1504 550 1529 523 c 0
EndSplineSet
Validated: 553
EndChar

StartChar: "+/toA"
Encoding: 345 65242 123
Width: 1724
Flags: HW
AnchorPoint: "Anchor-5" 748 1655 basechar 0
AnchorPoint: "Anchor-3" 848 134 basechar 0
LayerCount: 2
Fore
SplineSet
1345 1528 m 1
 1233 1463 l 1
 1349 1262 1398 1095 1398 807 c 0
 1398 745 1380 689 1342 648 c 0
 1304 607 1244 577 1139 577 c 2
 819 577 l 2
 630 577 463 590 355 627 c 0
 268 657 208 701 208 793 c 0
 208 841 225 894 238 943 c 1
 114 976 l 1
 97 911 80 863 80 794 c 0
 80 654 153 561 314 504 c 0
 450 456 627 448 819 448 c 2
 1139 448 l 2
 1270 448 1371 491 1436 560 c 0
 1451 576 1464 593 1475 611 c 1
 1487 580 1504 550 1529 523 c 0
 1573 476 1642 448 1729 448 c 1
 1729 577 l 1
 1589 576 1538 707 1538 808 c 0
 1538 1111 1469 1313 1345 1528 c 1
840 1458 m 0
 788 1458 738 1438 699 1409 c 0
 647 1370 609 1315 609 1253 c 0
 609 1215 629 1181 657 1161 c 0
 685 1141 719 1130 756 1125 c 0
 770 1123 784 1121 799 1121 c 2
 654 1037 l 1
 689 976 l 1
 997 1155 l 1
 968 1218 l 1
 905 1195 825 1186 766 1194 c 0
 736 1198 712 1207 698 1217 c 0
 684 1227 679 1236 679 1253 c 0
 679 1284 703 1325 741 1353 c 0
 779 1381 829 1396 877 1384 c 1
 893 1452 l 1
 875 1456 857 1458 840 1458 c 0
EndSplineSet
Validated: 553
EndChar

StartChar: "++5MA"
Encoding: 346 64403 124
Width: 1724
Flags: HW
AnchorPoint: "Anchor-5" 706 1639 basechar 0
AnchorPoint: "Anchor-3" 821 74 basechar 0
LayerCount: 2
Fore
SplineSet
1514 2055 m 1
 985 1700 l 1
 1024 1642 l 1
 1553 1997 l 1
 1514 2055 l 1
1612 1911 m 1
 995 1503 l 2
 919 1453 870 1384 872 1307 c 0
 874 1230 929 1164 1008 1126 c 0
 1164 1051 1268 992 1326 942 c 0
 1384 892 1398 860 1398 807 c 0
 1398 745 1380 689 1342 648 c 0
 1304 607 1212 577 942 577 c 0
 704 577 486 583 355 627 c 0
 268 657 208 701 208 793 c 0
 208 841 225 894 238 943 c 1
 114 976 l 1
 97 911 80 863 80 794 c 0
 80 654 153 561 314 504 c 0
 479 445 703 448 942 448 c 0
 1285 448 1371 491 1436 560 c 0
 1451 576 1464 593 1475 611 c 1
 1487 580 1504 550 1529 523 c 0
 1573 476 1642 448 1729 448 c 1
 1729 577 l 1
 1666 577 1643 591 1624 611 c 0
 1605 631 1590 667 1576 717 c 0
 1548 816 1517 970 1380 1064 c 0
 1306 1120 1204 1175 1064 1242 c 0
 1013 1266 1001 1291 1001 1310 c 0
 1001 1329 1014 1360 1066 1395 c 2
 1683 1803 l 1
 1612 1911 l 1
EndSplineSet
Validated: 553
EndChar

StartChar: "+/t4A"
Encoding: 347 65246 125
Width: 1636
Flags: HW
AnchorPoint: "Anchor-5" 619 1297 basechar 0
AnchorPoint: "Anchor-3" 671 -405 basechar 0
LayerCount: 2
Fore
SplineSet
1384 1665 m 1
 1256 1665 l 1
 1256 473 l 2
 1256 195 910 -3 676 -3 c 0
 430 -3 209 122 209 341 c 0
 209 495 330 687 666 839 c 1
 613 956 l 1
 250 792 80 558 80 341 c 0
 80 36 383 -132 676 -132 c 0
 993 -132 1384 119 1384 473 c 2
 1385 527 l 1
 1397 517 1409 507 1423 499 c 0
 1481 465 1554 448 1642 448 c 1
 1642 577 l 1
 1570 577 1522 590 1489 610 c 0
 1456 630 1436 655 1420 693 c 0
 1388 768 1384 890 1384 1025 c 2
 1384 1665 l 1
EndSplineSet
Validated: 521
EndChar

StartChar: "+/uIA"
Encoding: 348 65250 126
Width: 1138
Flags: HW
AnchorPoint: "Anchor-5" 631 1319 basechar 0
AnchorPoint: "Anchor-3" 661 -315 basechar 0
LayerCount: 2
Fore
SplineSet
632 1093 m 0
 546 1093 481 1035 440 968 c 0
 399 901 370 818 338 731 c 2
 281 575 l 1
 110 533 80 379 80 262 c 2
 80 -422 l 1
 209 -422 l 1
 209 261 l 2
 209 402 254 465 411 465 c 0
 501 465 618 448 734 448 c 0
 831 451 899 482 944 529 c 1
 994 470 1063 448 1144 448 c 1
 1144 577 l 1
 1099 577 1066 588 1045 609 c 0
 1024 630 1010 656 1010 716 c 0
 1010 905 814 1093 632 1093 c 0
632 965 m 0
 733 965 879 843 882 716 c 0
 882 597 804 578 734 577 c 0
 638 577 528 595 425 595 c 1
 459 686 l 2
 492 773 520 852 550 901 c 0
 580 950 600 965 632 965 c 0
EndSplineSet
Validated: 521
EndChar

StartChar: "+/uYA"
Encoding: 349 65254 127
Width: 1568
Flags: HW
AnchorPoint: "Anchor-5" 790 1154 basechar 0
AnchorPoint: "Anchor-3" 676 -216 basechar 0
LayerCount: 2
Fore
SplineSet
613 956 m 1
 250 792 80 558 80 341 c 0
 80 318 81 296 85 274 c 0
 124 39 361 -132 676 -132 c 0
 921 -132 1187 7 1313 226 c 0
 1359 306 1384 400 1392 500 c 1
 1439 469 1499 448 1572 448 c 1
 1572 577 l 1
 1465 577 1438 609 1407 672 c 0
 1388 710 1374 763 1357 818 c 0
 1346 853 1334 888 1319 923 c 2
 1305 956 l 1
 1186 905 l 1
 1201 872 l 2
 1245 769 1265 660 1265 560 c 0
 1265 456 1243 362 1202 290 c 0
 1105 122 869 -3 676 -3 c 0
 406 -3 239 134 213 295 c 0
 211 310 209 325 209 341 c 0
 209 495 330 687 666 839 c 1
 613 956 l 1
692 628 m 1
 692 448 l 1
 872 448 l 1
 872 628 l 1
 692 628 l 1
EndSplineSet
Validated: 521
EndChar

StartChar: "+/u4A"
Encoding: 350 65262 128
Width: 760
Flags: HW
AnchorPoint: "Anchor-5" 388 1284 basechar 0
AnchorPoint: "Anchor-3" 385 -290 basechar 0
LayerCount: 2
Fore
SplineSet
765 448 m 1
 765 578 l 1
 697 578 l 1
 687 811 582 1093 393 1093 c 0
 222 1093 80 904 80 726 c 0
 80 557 205 448 395 448 c 2
 540 448 l 1
 488 258 321 135 124 57 c 1
 170 -64 l 1
 434 39 622 210 672 448 c 1
 765 448 l 1
393 964 m 0
 481 964 567 738 563 602 c 2
 563 578 l 1
 399 578 l 2
 294 578 209 617 209 729 c 0
 209 842 303 964 393 964 c 0
EndSplineSet
Validated: 553
EndChar

StartChar: "+/oYA"
Encoding: 351 65158 129
Width: 760
Flags: HW
AnchorPoint: "Anchor-5" 389 1811 basechar 0
AnchorPoint: "Anchor-3" 344 -306 basechar 0
LayerCount: 2
Fore
SplineSet
420 1665 m 0
 368 1665 318 1645 279 1616 c 0
 227 1577 189 1522 189 1460 c 0
 189 1422 208 1388 236 1368 c 0
 264 1348 298 1337 335 1332 c 0
 349 1330 364 1328 379 1328 c 2
 233 1244 l 1
 268 1184 l 1
 577 1362 l 1
 547 1425 l 1
 484 1402 404 1393 345 1401 c 0
 315 1405 292 1414 278 1424 c 0
 264 1434 259 1443 259 1460 c 0
 259 1491 282 1532 320 1560 c 0
 358 1588 408 1603 456 1591 c 1
 473 1659 l 1
 455 1663 437 1665 420 1665 c 0
393 1093 m 0
 222 1093 80 904 80 726 c 0
 80 557 205 448 395 448 c 2
 540 448 l 1
 488 258 321 135 124 57 c 1
 170 -64 l 1
 434 39 622 210 672 448 c 1
 765 448 l 1
 765 578 l 1
 697 578 l 1
 687 811 582 1093 393 1093 c 0
393 964 m 0
 481 964 567 738 563 602 c 2
 563 578 l 1
 399 578 l 2
 294 578 209 617 209 729 c 0
 209 842 303 964 393 964 c 0
EndSplineSet
Validated: 553
EndChar

StartChar: "+/uoA"
Encoding: 352 65258 130
Width: 950
Flags: W
HStem: 448 129<277.245 447 850.894 955> 963 129<323.531 518.238>
VStem: 80 129<638.143 850.158>
AnchorPoint: "Anchor-5" 451 1311 basechar 0
AnchorPoint: "Anchor-3" 440 162 basechar 0
LayerCount: 2
Fore
SplineSet
447 1092 m 0
 257 1092 80 913 80 730 c 0
 80 559 256 448 447 448 c 1
 447 577 l 1
 344 577 209 619 209 730 c 0
 209 852 343 963 447 963 c 0
 602 963 629 448 955 448 c 1
 955 577 l 1
 715 577 728 1092 447 1092 c 0
EndSplineSet
Validated: 521
EndChar

StartChar: "++6UA"
Encoding: 353 64421 131
Width: 950
Flags: W
HStem: 448 129<277.245 447 850.894 955> 963 129<323.531 518.238> 1328 73<301.395 413.09> 1591 74<357.79 492>
VStem: 80 129<638.143 850.158> 225 70<1415.69 1534.71>
AnchorPoint: "Anchor-5" 437 1813 basechar 0
AnchorPoint: "Anchor-3" 446 137 basechar 0
LayerCount: 2
Fore
SplineSet
456 1665 m 0
 404 1665 354 1645 315 1616 c 0
 263 1577 225 1522 225 1460 c 0
 225 1422 244 1388 272 1368 c 0
 300 1348 334 1337 371 1332 c 0
 385 1330 400 1328 415 1328 c 2
 269 1244 l 1
 304 1184 l 1
 613 1362 l 1
 583 1425 l 1
 520 1402 440 1393 381 1401 c 0
 351 1405 328 1414 314 1424 c 0
 300 1434 295 1443 295 1460 c 0
 295 1491 318 1532 356 1560 c 0
 394 1588 444 1603 492 1591 c 1
 509 1659 l 1
 491 1663 473 1665 456 1665 c 0
447 1092 m 0
 257 1092 80 913 80 730 c 0
 80 559 256 448 447 448 c 1
 447 577 l 1
 344 577 209 619 209 730 c 0
 209 852 343 963 447 963 c 0
 602 963 629 448 955 448 c 1
 955 577 l 1
 715 577 728 1092 447 1092 c 0
EndSplineSet
Validated: 553
LCarets2: 1 0
Ligature2: "'liga' Standard Ligatures in Arabic lookup 0 subtable" ﻪ ٔ
EndChar

StartChar: "+/pQA"
Encoding: 354 65172 132
Width: 950
Flags: W
HStem: 448 129<277.245 447 850.894 955> 963 129<323.531 518.238>
VStem: 80 129<638.143 850.158>
AnchorPoint: "Anchor-5" 437 1578 basechar 0
AnchorPoint: "Anchor-3" 457 155 basechar 0
LayerCount: 2
Fore
SplineSet
247 1372 m 1
 247 1232 l 1
 646 1232 l 1
 646 1372 l 1
 247 1372 l 1
447 1092 m 0
 257 1092 80 913 80 730 c 0
 80 559 256 448 447 448 c 1
 447 577 l 1
 344 577 209 619 209 730 c 0
 209 852 343 963 447 963 c 0
 602 963 629 448 955 448 c 1
 955 577 l 1
 715 577 728 1092 447 1092 c 0
EndSplineSet
Validated: 521
EndChar

StartChar: "+/vAA"
Encoding: 355 65264 133
Width: 1374
Flags: HW
AnchorPoint: "Anchor-5" 716 1244 basechar 0
AnchorPoint: "Anchor-3" 673 -410 basechar 0
LayerCount: 2
Fore
SplineSet
209 341 m 0
 209 495 330 687 666 839 c 1
 613 956 l 1
 250 792 80 558 80 341 c 0
 80 31 388 -132 676 -132 c 0
 954 -132 1309 11 1309 291 c 0
 1309 351 1289 405 1256 448 c 1
 1380 448 l 1
 1380 577 l 1
 932 577 l 1
 932 448 l 1
 1041 448 1181 407 1181 291 c 0
 1181 83 864 -3 676 -3 c 0
 414 -3 209 131 209 341 c 0
EndSplineSet
Validated: 521
EndChar

StartChar: "+/ooA"
Encoding: 356 65162 134
Width: 1374
Flags: HW
AnchorPoint: "Anchor-5" 748 1308 basechar 0
AnchorPoint: "Anchor-3" 676 -411 basechar 0
LayerCount: 2
Fore
SplineSet
961 1197 m 0
 909 1197 859 1177 820 1148 c 0
 768 1109 730 1054 730 992 c 0
 730 954 749 920 777 900 c 0
 805 880 839 869 876 864 c 0
 890 862 905 860 920 860 c 2
 774 776 l 1
 809 715 l 1
 1118 894 l 1
 1088 957 l 1
 1025 934 945 925 886 933 c 0
 856 937 833 946 819 956 c 0
 805 966 800 975 800 992 c 0
 800 1023 823 1064 861 1092 c 0
 899 1120 949 1135 997 1123 c 1
 1014 1191 l 1
 996 1195 978 1197 961 1197 c 0
613 956 m 1
 250 792 80 558 80 341 c 0
 80 31 388 -132 676 -132 c 0
 954 -132 1309 11 1309 291 c 0
 1309 351 1289 405 1256 448 c 1
 1380 448 l 1
 1380 577 l 1
 932 577 l 1
 932 448 l 1
 1041 448 1181 407 1181 291 c 0
 1181 83 864 -3 676 -3 c 0
 414 -3 209 131 209 341 c 0
 209 495 330 687 666 839 c 1
 613 956 l 1
EndSplineSet
Validated: 553
EndChar

StartChar: "+/vIA"
Encoding: 357 65266 135
Width: 1374
Flags: HW
AnchorPoint: "Anchor-5" 725 1181 basechar 0
AnchorPoint: "Anchor-3" 658 -599 basechar 0
LayerCount: 2
Fore
SplineSet
613 956 m 1
 250 792 80 558 80 341 c 0
 80 31 388 -132 676 -132 c 0
 954 -132 1309 11 1309 291 c 0
 1309 351 1289 405 1256 448 c 1
 1380 448 l 1
 1380 577 l 1
 932 577 l 1
 932 448 l 1
 1041 448 1181 407 1181 291 c 0
 1181 83 864 -3 676 -3 c 0
 414 -3 209 131 209 341 c 0
 209 495 330 687 666 839 c 1
 613 956 l 1
465 -282 m 1
 465 -422 l 1
 865 -422 l 1
 865 -282 l 1
 465 -282 l 1
EndSplineSet
Validated: 521
EndChar

StartChar: "+BmAA"
Encoding: 358 1632 136
Width: 634
Flags: HW
LayerCount: 2
Fore
SplineSet
318 988 m 0
 187 988 80 881 80 750 c 0
 80 619 187 512 318 512 c 0
 449 512 556 619 556 750 c 0
 556 881 449 988 318 988 c 0
318 859 m 0
 379 859 427 811 427 750 c 0
 427 689 379 641 318 641 c 0
 257 641 209 689 209 750 c 0
 209 811 257 859 318 859 c 0
EndSplineSet
Validated: 521
EndChar

StartChar: "+BmEA"
Encoding: 359 1633 137
Width: 470
Flags: HW
LayerCount: 2
Fore
SplineSet
204 1682 m 1
 80 1648 l 1
 190 1238 261 849 261 448 c 1
 390 448 l 1
 390 865 315 1266 204 1682 c 1
EndSplineSet
Validated: 521
EndChar

StartChar: "+BmIA"
Encoding: 360 1634 138
Width: 886
Flags: HW
LayerCount: 2
Fore
SplineSet
205 1682 m 1
 80 1649 l 1
 91 1607 101 1565 112 1523 c 0
 203 1159 262 808 262 448 c 1
 391 448 l 1
 391 679 367 906 328 1133 c 1
 369 1108 415 1093 469 1093 c 0
 618 1093 720 1178 763 1288 c 0
 806 1398 808 1531 808 1665 c 1
 679 1665 l 1
 679 1534 673 1412 643 1335 c 0
 613 1258 577 1222 469 1222 c 0
 390 1222 351 1260 309 1344 c 0
 278 1405 255 1489 231 1580 c 0
 222 1616 213 1651 205 1682 c 1
EndSplineSet
Validated: 521
EndChar

StartChar: "+BmMA"
Encoding: 361 1635 139
Width: 1264
Flags: HW
LayerCount: 2
Fore
SplineSet
80 1648 m 1
 94 1595 106 1543 120 1491 c 0
 207 1138 261 798 261 448 c 1
 390 448 l 1
 390 674 369 895 331 1117 c 1
 362 1102 396 1093 433 1093 c 0
 499 1093 559 1113 603 1150 c 0
 629 1172 650 1199 666 1229 c 1
 682 1200 701 1173 727 1151 c 0
 770 1114 829 1093 894 1093 c 0
 959 1093 1018 1114 1061 1151 c 0
 1104 1188 1132 1238 1149 1292 c 0
 1184 1400 1186 1531 1186 1665 c 1
 1057 1665 l 1
 1057 1533 1051 1411 1026 1332 c 0
 1013 1293 997 1266 978 1249 c 0
 959 1232 935 1222 894 1222 c 0
 853 1222 830 1232 811 1249 c 0
 792 1266 775 1293 762 1332 c 0
 736 1411 731 1533 731 1665 c 1
 602 1665 l 1
 602 1533 596 1411 570 1332 c 0
 557 1293 540 1266 520 1249 c 0
 500 1232 476 1222 433 1222 c 0
 401 1222 383 1230 362 1249 c 0
 341 1268 321 1299 303 1342 c 0
 266 1427 238 1553 204 1682 c 1
 80 1648 l 1
EndSplineSet
Validated: 521
EndChar

StartChar: "+BmQA"
Encoding: 362 1636 140
Width: 794
Flags: HW
LayerCount: 2
Fore
SplineSet
612 1645 m 1
 481 1645 378 1618 304 1569 c 0
 230 1520 186 1443 186 1365 c 0
 186 1301 208 1224 276 1172 c 0
 288 1163 301 1155 315 1148 c 1
 195 1078 113 966 88 849 c 0
 67 752 86 648 155 571 c 0
 224 494 338 448 489 448 c 2
 715 448 l 1
 715 577 l 1
 489 577 l 2
 363 577 290 612 251 656 c 0
 212 700 200 757 214 822 c 0
 242 951 380 1094 600 1094 c 1
 600 1223 l 1
 461 1223 387 1250 354 1275 c 0
 321 1300 315 1325 315 1365 c 0
 315 1398 329 1431 375 1461 c 0
 421 1491 499 1516 612 1516 c 1
 612 1645 l 1
EndSplineSet
Validated: 553
EndChar

StartChar: "+BmUA"
Encoding: 363 1637 141
Width: 978
Flags: HW
LayerCount: 2
Fore
SplineSet
415 1704 m 1
 323 1612 l 1
 349 1586 374 1561 397 1536 c 1
 211 1333 94 1091 81 880 c 0
 74 767 98 659 167 579 c 0
 236 499 345 454 484 454 c 0
 621 454 733 494 806 571 c 0
 879 648 907 757 897 876 c 0
 876 1114 713 1406 415 1704 c 1
482 1438 m 1
 662 1218 756 1012 769 864 c 0
 777 771 756 705 713 659 c 0
 670 613 597 583 484 583 c 0
 372 583 306 615 265 663 c 0
 224 711 204 782 210 872 c 0
 220 1037 319 1255 482 1438 c 1
EndSplineSet
Validated: 553
EndChar

StartChar: "+BmYA"
Encoding: 364 1638 142
Width: 896
Flags: HW
LayerCount: 2
Fore
SplineSet
711 1664 m 1
 640 1657 l 2
 490 1643 245 1642 98 1663 c 1
 80 1536 l 1
 223 1516 425 1514 582 1524 c 1
 585 1124 614 810 691 435 c 1
 817 461 l 1
 738 849 711 1164 711 1593 c 2
 711 1664 l 1
EndSplineSet
Validated: 553
EndChar

StartChar: "+BmcA"
Encoding: 365 1639 143
Width: 1056
Flags: HW
LayerCount: 2
Fore
SplineSet
191 1666 m 1
 80 1600 l 1
 293 1237 411 874 465 457 c 1
 593 457 l 1
 647 874 765 1237 978 1600 c 1
 867 1666 l 1
 707 1395 598 1119 529 826 c 1
 460 1119 351 1395 191 1666 c 1
EndSplineSet
Validated: 521
EndChar

StartChar: "+BmgA"
Encoding: 366 1640 144
Width: 1056
Flags: HW
LayerCount: 2
Fore
SplineSet
465 1666 m 1
 411 1249 293 885 80 522 c 1
 191 457 l 1
 351 728 460 1004 529 1297 c 1
 598 1004 707 728 867 457 c 1
 978 522 l 1
 765 885 647 1249 593 1666 c 1
 465 1666 l 1
EndSplineSet
Validated: 521
EndChar

StartChar: "+BmkA"
Encoding: 367 1641 145
Width: 842
Flags: HW
LayerCount: 2
Fore
SplineSet
407 1665 m 0
 222 1665 64 1492 81 1301 c 0
 93 1167 216 1029 427 1029 c 0
 465 1029 501 1034 534 1042 c 1
 534 848 546 630 651 448 c 1
 762 513 l 1
 655 698 663 966 663 1197 c 0
 663 1312 662 1418 630 1506 c 0
 614 1550 590 1592 551 1621 c 0
 512 1650 462 1665 407 1665 c 0
407 1536 m 0
 441 1536 458 1529 472 1518 c 0
 486 1507 498 1491 508 1463 c 0
 528 1407 535 1310 535 1197 c 0
 535 1191 535 1183 535 1177 c 0
 504 1165 467 1158 427 1158 c 0
 267 1158 216 1243 210 1313 c 0
 200 1420 310 1536 407 1536 c 0
EndSplineSet
Validated: 553
EndChar

StartChar: "+BvAA"
Encoding: 368 1776 146
Width: 634
Flags: HW
LayerCount: 2
Fore
SplineSet
318 988 m 0
 187 988 80 881 80 750 c 0
 80 619 187 512 318 512 c 0
 449 512 556 619 556 750 c 0
 556 881 449 988 318 988 c 0
318 859 m 0
 379 859 427 811 427 750 c 0
 427 689 379 641 318 641 c 0
 257 641 209 689 209 750 c 0
 209 811 257 859 318 859 c 0
EndSplineSet
Validated: 521
EndChar

StartChar: "+BvEA"
Encoding: 369 1777 147
Width: 470
Flags: HW
LayerCount: 2
Fore
SplineSet
204 1682 m 1
 80 1648 l 1
 190 1238 261 849 261 448 c 1
 390 448 l 1
 390 865 315 1266 204 1682 c 1
EndSplineSet
Validated: 521
EndChar

StartChar: "+BvIA"
Encoding: 370 1778 148
Width: 886
Flags: HW
LayerCount: 2
Fore
SplineSet
205 1682 m 1
 80 1649 l 1
 91 1607 101 1565 112 1523 c 0
 203 1159 262 808 262 448 c 1
 391 448 l 1
 391 679 367 906 328 1133 c 1
 369 1108 415 1093 469 1093 c 0
 618 1093 720 1178 763 1288 c 0
 806 1398 808 1531 808 1665 c 1
 679 1665 l 1
 679 1534 673 1412 643 1335 c 0
 613 1258 577 1222 469 1222 c 0
 390 1222 351 1260 309 1344 c 0
 278 1405 255 1489 231 1580 c 0
 222 1616 213 1651 205 1682 c 1
EndSplineSet
Validated: 521
EndChar

StartChar: "+BvMA"
Encoding: 371 1779 149
Width: 1264
Flags: HW
LayerCount: 2
Fore
SplineSet
80 1648 m 1
 94 1595 106 1543 120 1491 c 0
 207 1138 261 798 261 448 c 1
 390 448 l 1
 390 674 369 895 331 1117 c 1
 362 1102 396 1093 433 1093 c 0
 499 1093 559 1113 603 1150 c 0
 629 1172 650 1199 666 1229 c 1
 682 1200 701 1173 727 1151 c 0
 770 1114 829 1093 894 1093 c 0
 959 1093 1018 1114 1061 1151 c 0
 1104 1188 1132 1238 1149 1292 c 0
 1184 1400 1186 1531 1186 1665 c 1
 1057 1665 l 1
 1057 1533 1051 1411 1026 1332 c 0
 1013 1293 997 1266 978 1249 c 0
 959 1232 935 1222 894 1222 c 0
 853 1222 830 1232 811 1249 c 0
 792 1266 775 1293 762 1332 c 0
 736 1411 731 1533 731 1665 c 1
 602 1665 l 1
 602 1533 596 1411 570 1332 c 0
 557 1293 540 1266 520 1249 c 0
 500 1232 476 1222 433 1222 c 0
 401 1222 383 1230 362 1249 c 0
 341 1268 321 1299 303 1342 c 0
 266 1427 238 1553 204 1682 c 1
 80 1648 l 1
EndSplineSet
Validated: 521
EndChar

StartChar: "+BvQA"
Encoding: 372 1780 150
Width: 906
Flags: HW
LayerCount: 2
Fore
SplineSet
204 1682 m 1
 80 1648 l 1
 190 1238 261 849 261 448 c 1
 390 448 l 1
 390 693 365 932 321 1172 c 1
 431 1077 586 1032 805 1029 c 0
 812 1029 820 1029 827 1029 c 2
 827 1158 l 1
 677 1157 464 1195 464 1348 c 0
 464 1534 695 1536 826 1536 c 1
 826 1665 l 1
 708 1665 594 1657 500 1610 c 0
 407 1563 337 1470 336 1349 c 1
 282 1429 242 1539 204 1682 c 1
EndSplineSet
Validated: 553
EndChar

StartChar: "+BvUA"
Encoding: 373 1781 151
Width: 978
Flags: HW
LayerCount: 2
Fore
SplineSet
415 1697 m 1
 323 1606 l 1
 349 1580 374 1554 397 1529 c 1
 169 1280 43 974 89 737 c 0
 105 652 136 582 181 531 c 0
 226 480 287 448 352 448 c 0
 405 448 452 463 491 487 c 1
 530 463 576 448 629 448 c 0
 694 448 756 480 801 531 c 0
 846 582 876 653 892 739 c 0
 938 996 770 1342 415 1697 c 1
490 1431 m 1
 673 1235 771 996 771 829 c 0
 771 724 730 581 602 581 c 0
 565 581 526 599 490 644 c 1
 454 599 415 581 378 581 c 0
 250 581 209 724 209 829 c 0
 209 996 307 1235 490 1431 c 1
EndSplineSet
Validated: 553
EndChar

StartChar: "+BvYA"
Encoding: 374 1782 152
Width: 896
Flags: HW
LayerCount: 2
Fore
SplineSet
453 1666 m 0
 373 1665 296 1633 234 1585 c 0
 144 1516 80 1411 80 1297 c 0
 80 1212 122 1139 184 1094 c 0
 246 1049 324 1029 406 1029 c 0
 430 1029 454 1030 479 1034 c 1
 339 858 253 701 145 511 c 1
 257 448 l 1
 410 717 509 901 777 1176 c 0
 791 1189 804 1203 817 1218 c 1
 723 1306 l 1
 711 1294 700 1281 688 1269 c 0
 604 1193 497 1157 406 1157 c 0
 345 1157 292 1174 259 1198 c 0
 226 1222 209 1251 209 1297 c 0
 209 1360 250 1435 313 1483 c 0
 376 1531 451 1552 518 1527 c 1
 563 1648 l 1
 527 1661 489 1667 453 1666 c 0
EndSplineSet
Validated: 553
EndChar

StartChar: "+BvcA"
Encoding: 375 1783 153
Width: 1056
Flags: HW
LayerCount: 2
Fore
SplineSet
191 1666 m 1
 80 1600 l 1
 293 1237 411 874 465 457 c 1
 593 457 l 1
 647 874 765 1237 978 1600 c 1
 867 1666 l 1
 707 1395 598 1119 529 826 c 1
 460 1119 351 1395 191 1666 c 1
EndSplineSet
Validated: 521
EndChar

StartChar: "+BvgA"
Encoding: 376 1784 154
Width: 1056
Flags: HW
LayerCount: 2
Fore
SplineSet
465 1666 m 1
 411 1249 293 885 80 522 c 1
 191 457 l 1
 351 728 460 1004 529 1297 c 1
 598 1004 707 728 867 457 c 1
 978 522 l 1
 765 885 647 1249 593 1666 c 1
 465 1666 l 1
EndSplineSet
Validated: 521
EndChar

StartChar: "+BvkA"
Encoding: 377 1785 155
Width: 842
Flags: HW
LayerCount: 2
Fore
SplineSet
407 1665 m 0
 222 1665 64 1492 81 1301 c 0
 93 1167 216 1029 427 1029 c 0
 465 1029 501 1034 534 1042 c 1
 534 848 546 630 651 448 c 1
 762 513 l 1
 655 698 663 966 663 1197 c 0
 663 1312 662 1418 630 1506 c 0
 614 1550 590 1592 551 1621 c 0
 512 1650 462 1665 407 1665 c 0
407 1536 m 0
 441 1536 458 1529 472 1518 c 0
 486 1507 498 1491 508 1463 c 0
 528 1407 535 1310 535 1197 c 0
 535 1191 535 1183 535 1177 c 0
 504 1165 467 1158 427 1158 c 0
 267 1158 216 1243 210 1313 c 0
 200 1420 310 1536 407 1536 c 0
EndSplineSet
Validated: 553
EndChar

StartChar: .
Encoding: 46 46 156
Width: 340
Flags: HW
LayerCount: 2
Fore
SplineSet
80 628 m 1
 80 448 l 1
 260 448 l 1
 260 628 l 1
 80 628 l 1
EndSplineSet
Validated: 9
EndChar

StartChar: "+Bh8A"
Encoding: 191 1567 157
Width: 908
Flags: HW
LayerCount: 2
Fore
SplineSet
453 1665 m 0
 299 1664 157 1568 103 1418 c 0
 88 1376 80 1333 80 1290 c 0
 80 1159 148 1033 267 964 c 0
 343 920 391 838 391 750 c 1
 519 750 l 1
 519 884 448 1009 332 1076 c 0
 254 1121 209 1203 209 1289 c 0
 209 1317 214 1346 224 1374 c 0
 260 1473 352 1536 454 1536 c 0
 468 1536 483 1535 498 1532 c 0
 616 1511 701 1409 701 1289 c 1
 830 1289 l 1
 830 1471 699 1627 520 1659 c 0
 498 1663 475 1665 453 1665 c 0
365 628 m 1
 365 448 l 1
 545 448 l 1
 545 628 l 1
 365 628 l 1
EndSplineSet
Validated: 521
EndChar

StartChar: !
Encoding: 33 33 158
Width: 340
Flags: HW
LayerCount: 2
Fore
SplineSet
106 1665 m 1
 106 750 l 1
 234 750 l 1
 234 1665 l 1
 106 1665 l 1
80 628 m 1
 80 448 l 1
 260 448 l 1
 260 628 l 1
 80 628 l 1
EndSplineSet
Validated: 521
EndChar

StartChar: %
Encoding: 37 37 159
Width: 1188
Flags: HW
LayerCount: 2
Fore
SplineSet
318 1708 m 0
 187 1708 80 1601 80 1470 c 0
 80 1339 187 1232 318 1232 c 0
 449 1232 556 1339 556 1470 c 0
 556 1601 449 1708 318 1708 c 0
794 1690 m 1
 277 473 l 1
 396 423 l 1
 913 1640 l 1
 794 1690 l 1
318 1579 m 0
 379 1579 427 1531 427 1470 c 0
 427 1409 379 1361 318 1361 c 0
 257 1361 209 1409 209 1470 c 0
 209 1531 257 1579 318 1579 c 0
872 881 m 0
 741 881 634 774 634 643 c 0
 634 512 741 405 872 405 c 0
 1003 405 1110 512 1110 643 c 0
 1110 774 1003 881 872 881 c 0
872 752 m 0
 933 752 981 704 981 643 c 0
 981 582 933 534 872 534 c 0
 811 534 763 582 763 643 c 0
 763 704 811 752 872 752 c 0
EndSplineSet
Validated: 521
EndChar

StartChar: )
Encoding: 41 41 160
Width: 418
Flags: HW
LayerCount: 2
Fore
SplineSet
196 1691 m 1
 292 1495 340 1283 340 1070 c 0
 340 857 292 644 196 448 c 1
 80 505 l 1
 167 683 211 877 211 1070 c 0
 211 1263 167 1457 80 1635 c 1
 196 1691 l 1
EndSplineSet
Validated: 513
EndChar

StartChar: (
Encoding: 40 40 161
Width: 418
Flags: HW
LayerCount: 2
Fore
SplineSet
224 1691 m 1
 128 1495 80 1283 80 1070 c 0
 80 857 128 644 224 448 c 1
 340 505 l 1
 253 683 209 877 209 1070 c 0
 209 1263 253 1457 340 1635 c 1
 224 1691 l 1
EndSplineSet
Validated: 521
EndChar

StartChar: }
Encoding: 125 125 162
Width: 428
Flags: HW
LayerCount: 2
Fore
SplineSet
115 1727 m 1
 115 1727 207 1711 250 1624 c 0
 293 1539 276 1451 263 1378 c 0
 250 1305 240 1242 254 1198 c 1
 254 1199 266 1176 279 1161 c 0
 292 1146 303 1134 303 1134 c 1
 349 1088 l 1
 303 1043 l 1
 303 1043 292 1031 279 1016 c 0
 266 1001 254 978 254 979 c 1
 240 935 250 872 263 799 c 0
 276 726 293 638 250 553 c 0
 207 466 115 450 115 450 c 1
 80 574 l 1
 80 574 128 597 135 611 c 2
 135 611 l 1
 135 611 l 1
 155 650 149 705 136 776 c 0
 123 847 103 930 131 1018 c 0
 141 1049 157 1070 172 1088 c 1
 157 1106 141 1127 131 1158 c 0
 103 1246 123 1330 136 1401 c 0
 149 1472 155 1527 135 1566 c 1
 135 1566 l 2
 128 1580 80 1603 80 1603 c 1
 115 1727 l 1
EndSplineSet
Validated: 545
EndChar

StartChar: {
Encoding: 123 123 163
Width: 428
Flags: HW
LayerCount: 2
Fore
SplineSet
314 1727 m 1
 314 1727 222 1711 179 1624 c 0
 136 1539 153 1451 166 1378 c 0
 179 1305 190 1242 176 1198 c 1
 176 1199 163 1176 150 1161 c 0
 137 1146 126 1134 126 1134 c 1
 80 1088 l 1
 126 1043 l 1
 126 1043 137 1031 150 1016 c 0
 163 1001 176 978 176 979 c 1
 190 935 179 872 166 799 c 0
 153 726 136 638 179 553 c 0
 222 466 314 450 314 450 c 1
 349 574 l 1
 349 574 302 597 295 611 c 2
 295 611 l 1
 295 611 l 1
 275 650 280 705 293 776 c 0
 306 847 326 930 298 1018 c 0
 288 1049 273 1070 258 1088 c 1
 273 1106 288 1127 298 1158 c 0
 326 1246 306 1330 293 1401 c 0
 280 1472 275 1527 295 1566 c 1
 295 1566 l 2
 302 1580 349 1603 349 1603 c 1
 314 1727 l 1
EndSplineSet
Validated: 553
EndChar

StartChar: :
Encoding: 58 58 164
Width: 340
Flags: HW
LayerCount: 2
Fore
SplineSet
80 988 m 1
 80 808 l 1
 260 808 l 1
 260 988 l 1
 80 988 l 1
80 628 m 1
 80 448 l 1
 260 448 l 1
 260 628 l 1
 80 628 l 1
EndSplineSet
Validated: 521
EndChar

StartChar: /
Encoding: 47 47 165
Width: 610
Flags: HW
LayerCount: 2
Fore
SplineSet
406 1682 m 1
 80 465 l 1
 204 431 l 1
 531 1648 l 1
 406 1682 l 1
EndSplineSet
Validated: 521
EndChar

StartChar: >
Encoding: 62 62 166
Width: 598
Flags: HW
LayerCount: 2
Fore
SplineSet
171 1324 m 1
 519 976 l 1
 171 628 l 1
 80 720 l 1
 337 976 l 1
 80 1233 l 1
 171 1324 l 1
EndSplineSet
Validated: 513
EndChar

StartChar: <
Encoding: 60 60 167
Width: 598
Flags: HW
LayerCount: 2
Fore
SplineSet
428 1324 m 1
 80 976 l 1
 428 628 l 1
 519 720 l 1
 262 976 l 1
 519 1233 l 1
 428 1324 l 1
EndSplineSet
Validated: 521
EndChar

StartChar: "+/vsA"
Encoding: 378 65275 168
Width: 854
Flags: HW
AnchorPoint: "Anchor-4" 121 1744 baselig 1
AnchorPoint: "Anchor-4" 708 1758 baselig 0
AnchorPoint: "Anchor-2" 308 158 baselig 1
AnchorPoint: "Anchor-2" 655 159 baselig 0
LayerCount: 2
Fore
SplineSet
204 1682 m 1
 80 1648 l 1
 178 1282 246 933 259 577 c 1
 80 577 l 1
 80 448 l 1
 452 448 l 2
 596 448 695 511 736 602 c 0
 777 693 774 795 774 897 c 2
 774 1665 l 1
 645 1665 l 1
 645 897 l 2
 645 795 641 706 618 655 c 0
 595 604 565 577 452 577 c 2
 388 577 l 1
 375 948 304 1309 204 1682 c 1
EndSplineSet
Validated: 553
LCarets2: 1 0
Ligature2: "'rlig' Required Ligatures in Arabic lookup 5-1" ﻟ ﺎ
EndChar

StartChar: =
Encoding: 61 61 169
Width: 674
Flags: HW
LayerCount: 2
Fore
SplineSet
80 1008 m 1
 80 879 l 1
 596 879 l 1
 596 1008 l 1
 80 1008 l 1
80 750 m 1
 80 622 l 1
 596 622 l 1
 596 750 l 1
 80 750 l 1
EndSplineSet
Validated: 521
EndChar

StartChar: -
Encoding: 45 45 170
Width: 674
Flags: HW
LayerCount: 2
Fore
SplineSet
596 750 m 1
 80 750 l 1
 80 879 l 1
 596 879 l 1
 596 750 l 1
EndSplineSet
Validated: 513
EndChar

StartChar: _
Encoding: 95 95 171
Width: 674
Flags: HW
LayerCount: 2
Fore
SplineSet
596 448 m 1
 80 448 l 1
 80 577 l 1
 596 577 l 1
 596 448 l 1
EndSplineSet
Validated: 1
EndChar

StartChar: *
Encoding: 42 42 172
Width: 766
Flags: HW
LayerCount: 2
Fore
SplineSet
348 1396 m 1
 348 1178 l 1
 194 1332 l 1
 144 1283 l 1
 299 1128 l 1
 80 1128 l 1
 80 1058 l 1
 299 1058 l 1
 144 904 l 1
 194 854 l 1
 348 1009 l 1
 348 790 l 1
 418 790 l 1
 418 1009 l 1
 573 854 l 1
 622 904 l 1
 468 1058 l 1
 686 1058 l 1
 686 1128 l 1
 468 1128 l 1
 622 1283 l 1
 573 1332 l 1
 418 1178 l 1
 418 1396 l 1
 348 1396 l 1
EndSplineSet
Validated: 521
EndChar

StartChar: "+/vgA"
Encoding: 379 65272 173
Width: 1220
Flags: HW
AnchorPoint: "Anchor-4" 148 2260 baselig 1
AnchorPoint: "Anchor-4" 905 1773 baselig 0
AnchorPoint: "Anchor-2" 522 184 baselig 1
AnchorPoint: "Anchor-2" 940 181 baselig 0
LayerCount: 2
Fore
SplineSet
311 2163 m 0
 259 2163 209 2144 170 2115 c 0
 118 2076 80 2020 80 1958 c 0
 80 1920 99 1886 127 1866 c 0
 155 1846 189 1835 226 1830 c 0
 240 1828 255 1826 270 1826 c 2
 124 1742 l 1
 159 1682 l 1
 468 1860 l 1
 438 1923 l 1
 375 1900 295 1891 236 1899 c 0
 206 1903 183 1912 169 1922 c 0
 155 1932 150 1941 150 1958 c 0
 150 1989 173 2030 211 2058 c 0
 249 2086 299 2101 347 2089 c 1
 364 2157 l 1
 346 2161 328 2163 311 2163 c 0
398 1682 m 1
 274 1648 l 1
 372 1282 440 933 453 577 c 1
 274 577 l 1
 274 448 l 1
 646 448 l 2
 780 448 875 503 921 584 c 1
 943 551 970 523 1006 501 c 0
 1064 467 1137 450 1225 450 c 1
 1225 579 l 1
 1153 579 1105 592 1072 612 c 0
 1039 632 1019 656 1003 694 c 0
 976 758 969 857 968 969 c 2
 968 1665 l 1
 839 1665 l 1
 839 897 l 2
 839 795 835 706 812 655 c 0
 789 604 759 577 646 577 c 2
 582 577 l 1
 569 948 498 1309 398 1682 c 1
EndSplineSet
Validated: 553
LCarets2: 1 0
Ligature2: "'liga' Standard Ligatures in Arabic lookup 6-1" ﻠ ﺄ
EndChar

StartChar: "+/vkA"
Encoding: 380 65273 174
Width: 854
Flags: HW
AnchorPoint: "Anchor-4" 118 1734 baselig 1
AnchorPoint: "Anchor-4" 709 1755 baselig 0
AnchorPoint: "Anchor-2" 277 -232 baselig 1
AnchorPoint: "Anchor-2" 700 58 baselig 0
LayerCount: 2
Fore
SplineSet
204 1682 m 1
 80 1648 l 1
 178 1282 246 933 259 577 c 1
 80 577 l 1
 80 448 l 1
 452 448 l 2
 596 448 695 511 736 602 c 0
 777 693 774 795 774 897 c 2
 774 1665 l 1
 645 1665 l 1
 645 897 l 2
 645 795 641 706 618 655 c 0
 595 604 565 577 452 577 c 2
 388 577 l 1
 375 948 304 1309 204 1682 c 1
324 350 m 0
 272 350 222 330 183 301 c 0
 131 262 93 206 93 144 c 0
 93 106 113 72 141 52 c 0
 169 32 203 21 240 16 c 0
 254 14 268 13 283 13 c 2
 137 -71 l 1
 172 -132 l 1
 481 46 l 1
 451 110 l 1
 388 87 308 78 249 86 c 0
 219 90 196 99 182 109 c 0
 168 119 163 127 163 144 c 0
 163 175 186 217 224 245 c 0
 262 273 312 287 360 275 c 1
 377 343 l 1
 359 347 341 350 324 350 c 0
EndSplineSet
Validated: 553
LCarets2: 1 0
Ligature2: "'liga' Standard Ligatures in Arabic lookup 6-1" ﻟ ﺈ
EndChar

StartChar: "+/voA"
Encoding: 381 65274 175
Width: 1026
Flags: HW
HStem: 16 70<170.395 281.09> 275 75<225.79 360> 448 129<452 595.332 865.304 1031>
VStem: 93 70<100.189 220.601> 259 129<577 1025.63> 645 129<675.857 969>
AnchorPoint: "Anchor-4" 113 1765 baselig 1
AnchorPoint: "Anchor-4" 707 1774 baselig 0
AnchorPoint: "Anchor-2" 292 -256 baselig 1
AnchorPoint: "Anchor-2" 928 118 baselig 0
LayerCount: 2
Fore
SplineSet
204 1682 m 1
 80 1648 l 1
 178 1282 246 933 259 577 c 1
 80 577 l 1
 80 448 l 1
 452 448 l 2
 586 448 681 503 727 584 c 1
 749 551 777 523 813 501 c 0
 871 467 943 450 1031 450 c 1
 1031 579 l 1
 959 579 912 592 879 612 c 0
 846 632 825 656 809 694 c 0
 782 758 775 857 774 969 c 2
 774 1665 l 1
 645 1665 l 1
 645 897 l 2
 645 795 641 706 618 655 c 0
 595 604 565 577 452 577 c 2
 388 577 l 1
 375 948 304 1309 204 1682 c 1
324 350 m 0
 272 350 222 330 183 301 c 0
 131 262 93 206 93 144 c 0
 93 106 113 72 141 52 c 0
 169 32 203 21 240 16 c 0
 254 14 268 13 283 13 c 2
 137 -71 l 1
 172 -132 l 1
 481 46 l 1
 451 110 l 1
 388 87 308 78 249 86 c 0
 219 90 196 99 182 109 c 0
 168 119 163 127 163 144 c 0
 163 175 186 217 224 245 c 0
 262 273 312 287 360 275 c 1
 377 343 l 1
 359 347 341 350 324 350 c 0
EndSplineSet
Validated: 553
LCarets2: 1 0
Ligature2: "'liga' Standard Ligatures in Arabic lookup 6-1" ﻠ ﺈ
EndChar

StartChar: "+BhUA"
Encoding: 382 1557 176
Width: 0
Flags: HW
AnchorPoint: "Anchor-5" 142 1549 mark 0
AnchorPoint: "Anchor-4" 142 1549 mark 0
AnchorPoint: "Anchor-1" 142 1549 mark 0
AnchorPoint: "Anchor-1" 116 2133 basemark 0
LayerCount: 2
Fore
SplineSet
162 2033 m 1
 92 2032 l 1
 96 1665 l 1
 20 1665 l 1
 20 1595 l 1
 176 1595 l 2
 227 1595 278 1602 327 1619 c 0
 355 1629 385 1641 411 1664 c 0
 424 1675 435 1690 444 1706 c 1
 444 1706 l 1
 453 1722 458 1740 458 1760 c 2
 458 1760 l 2
 458 1788 448 1815 429 1836 c 1
 429 1836 l 1
 410 1857 384 1869 356 1872 c 0
 327 1875 301 1868 278 1856 c 0
 256 1844 238 1829 223 1814 c 0
 201 1793 182 1769 165 1744 c 1
 162 2033 l 1
340 1803 m 0
 343 1803 346 1803 349 1803 c 0
 360 1802 370 1795 377 1788 c 2
 377 1788 l 2
 384 1780 388 1771 388 1761 c 0
 388 1754 386 1745 382 1738 c 2
 382 1738 l 1
 382 1738 l 2
 378 1730 371 1724 364 1717 c 0
 349 1704 328 1693 304 1685 c 1
 304 1685 l 1
 304 1685 l 1
 271 1674 236 1668 201 1666 c 1
 219 1702 243 1735 272 1764 c 0
 285 1777 298 1787 311 1794 c 1
 311 1794 l 1
 321 1799 331 1802 340 1803 c 0
EndSplineSet
Validated: 549
EndChar

StartChar: "+BksA"
Encoding: 235 1611 177
Width: 0
Flags: W
AnchorPoint: "Anchor-5" 241 1638 mark 0
AnchorPoint: "Anchor-4" 241 1638 mark 0
AnchorPoint: "Anchor-1" 241 1638 mark 0
AnchorPoint: "Anchor-1" 250 2279 basemark 0
LayerCount: 2
Fore
SplineSet
369 2201 m 1
 20 1908 l 1
 65 1854 l 1
 414 2147 l 1
 369 2201 l 1
460 2092 m 1
 111 1799 l 1
 156 1746 l 1
 505 2039 l 1
 460 2092 l 1
EndSplineSet
Validated: 521
LCarets2: 1 0
Ligature2: "'liga' Standard Ligatures in Arabic lookup 0 subtable" space ً
EndChar

StartChar: "+Bk0A"
Encoding: 237 1613 178
Width: 0
Flags: W
AnchorPoint: "Anchor-3" 264 520 mark 0
AnchorPoint: "Anchor-2" 264 520 mark 0
AnchorPoint: "Anchor-0" 264 520 mark 0
AnchorPoint: "Anchor-0" 267 -97 basemark 0
LayerCount: 2
Fore
SplineSet
369 448 m 1
 20 155 l 1
 65 102 l 1
 414 394 l 1
 369 448 l 1
460 339 m 1
 111 47 l 1
 156 -7 l 1
 505 286 l 1
 460 339 l 1
EndSplineSet
Validated: 521
LCarets2: 1 0
Ligature2: "'liga' Standard Ligatures in Arabic lookup 0 subtable" space ٍ
EndChar

StartChar: "+Bk4A"
Encoding: 238 1614 179
Width: 0
Flags: W
AnchorPoint: "Anchor-5" 238 1638 mark 0
AnchorPoint: "Anchor-4" 238 1638 mark 0
AnchorPoint: "Anchor-1" 238 1638 mark 0
AnchorPoint: "Anchor-1" 215 2199 basemark 0
LayerCount: 2
Fore
SplineSet
369 2092 m 1
 20 1799 l 1
 65 1746 l 1
 414 2039 l 1
 369 2092 l 1
EndSplineSet
Validated: 521
LCarets2: 1 0
Ligature2: "'liga' Standard Ligatures in Arabic lookup 0 subtable" space َ
EndChar

StartChar: "+BlAA"
Encoding: 240 1616 180
Width: 0
Flags: W
AnchorPoint: "Anchor-3" 231 316 mark 0
AnchorPoint: "Anchor-2" 231 316 mark 0
AnchorPoint: "Anchor-0" 231 316 mark 0
AnchorPoint: "Anchor-0" 241 -286 basemark 0
LayerCount: 2
Fore
SplineSet
369 215 m 1
 20 -78 l 1
 65 -132 l 1
 414 161 l 1
 369 215 l 1
EndSplineSet
Validated: 521
LCarets2: 1 0
Ligature2: "'liga' Standard Ligatures in Arabic lookup 0 subtable" space ِ
EndChar

StartChar: "+Bk8A"
Encoding: 239 1615 181
Width: 0
Flags: W
HStem: 2147 69<114.104 260.277>
VStem: 20 70<1975.17 2122.18> 285 70<1974.57 2122.18>
AnchorPoint: "Anchor-5" 200 1638 mark 0
AnchorPoint: "Anchor-4" 200 1638 mark 0
AnchorPoint: "Anchor-1" 200 1638 mark 0
AnchorPoint: "Anchor-1" 185 2306 basemark 0
LayerCount: 2
Fore
SplineSet
86 1746 m 1
 295 1921 l 2
 333 1953 355 1999 355 2049 c 0
 355 2141 279 2216 187 2216 c 0
 95 2216 20 2141 20 2049 c 0
 20 1973 72 1906 146 1887 c 1
 41 1799 l 1
 86 1746 l 1
187 1951 m 0
 133 1951 90 1995 90 2049 c 0
 90 2103 133 2147 187 2147 c 0
 241 2147 285 2103 285 2049 c 0
 285 1995 241 1951 187 1951 c 0
EndSplineSet
Validated: 521
LCarets2: 1 0
Ligature2: "'liga' Standard Ligatures in Arabic lookup 0 subtable" space ُ
EndChar

StartChar: "+BlEA"
Encoding: 241 1617 182
Width: 0
Flags: W
HStem: 1746 70<113.466 288.908 405.466 581.495>
VStem: 20 70<1838.02 2017> 312 70<1837.51 2017> 604 70<1836.74 2017>
CounterMasks: 1 70
AnchorPoint: "Anchor-5" 350 1638 mark 0
AnchorPoint: "Anchor-4" 350 1638 mark 0
AnchorPoint: "Anchor-1" 350 1638 mark 0
AnchorPoint: "Anchor-1" 349 2109 basemark 0
LayerCount: 2
Fore
SplineSet
20 2017 m 1
 20 1954 18 1892 41 1838 c 0
 52 1811 72 1786 99 1770 c 0
 126 1754 160 1746 201 1746 c 0
 242 1746 276 1754 303 1770 c 0
 321 1781 336 1796 347 1813 c 1
 358 1796 373 1781 391 1770 c 0
 418 1754 452 1746 493 1746 c 0
 534 1746 569 1754 596 1770 c 0
 623 1786 642 1811 653 1838 c 0
 676 1892 674 1954 674 2017 c 1
 604 2017 l 1
 604 1954 603 1898 589 1865 c 0
 582 1849 574 1838 560 1830 c 0
 546 1822 525 1816 493 1816 c 0
 461 1816 441 1822 427 1830 c 0
 413 1838 405 1849 398 1865 c 0
 384 1898 382 1954 382 2017 c 1
 312 2017 l 1
 312 1954 311 1898 297 1865 c 0
 290 1849 281 1838 267 1830 c 0
 253 1822 233 1816 201 1816 c 0
 169 1816 149 1822 135 1830 c 0
 121 1838 113 1849 106 1865 c 0
 92 1898 90 1954 90 2017 c 1
 20 2017 l 1
EndSplineSet
Validated: 553
LCarets2: 1 0
Ligature2: "'liga' Standard Ligatures in Arabic lookup 0 subtable" space ّ
EndChar

StartChar: "+BlIA"
Encoding: 242 1618 183
Width: 0
Flags: HW
AnchorPoint: "Anchor-5" 199 1638 mark 0
AnchorPoint: "Anchor-4" 199 1638 mark 0
AnchorPoint: "Anchor-1" 199 1638 mark 0
AnchorPoint: "Anchor-1" 189 2174 basemark 0
LayerCount: 2
Fore
SplineSet
187 2080 m 0
 95 2080 20 2005 20 1913 c 0
 20 1821 95 1746 187 1746 c 0
 279 1746 355 1821 355 1913 c 0
 355 2005 279 2080 187 2080 c 0
187 2011 m 0
 241 2011 285 1967 285 1913 c 0
 285 1859 241 1815 187 1815 c 0
 133 1815 90 1859 90 1913 c 0
 90 1967 133 2011 187 2011 c 0
EndSplineSet
Validated: 521
LCarets2: 1 0
Ligature2: "'liga' Standard Ligatures in Arabic lookup 0 subtable" space ْ
EndChar

StartChar: "+BkwA"
Encoding: 236 1612 184
Width: 0
Flags: W
HStem: 2147 69<229.723 375.896>
VStem: 135 70<1975.17 2122.18> 400 70<1974.57 2122.18>
AnchorPoint: "Anchor-5" 290 1638 mark 0
AnchorPoint: "Anchor-4" 290 1638 mark 0
AnchorPoint: "Anchor-1" 290 1638 mark 0
AnchorPoint: "Anchor-1" 301 2276 basemark 0
LayerCount: 2
Fore
SplineSet
303 2216 m 0
 211 2216 135 2141 135 2049 c 0
 135 1973 187 1906 261 1887 c 1
 210 1844 l 1
 168 1892 112 1934 55 1967 c 1
 20 1906 l 1
 104 1858 143 1815 201 1746 c 1
 410 1921 l 2
 448 1953 470 1999 470 2049 c 0
 470 2141 395 2216 303 2216 c 0
303 2147 m 0
 357 2147 400 2103 400 2049 c 0
 400 1995 357 1951 303 1951 c 0
 249 1951 205 1995 205 2049 c 0
 205 2103 249 2147 303 2147 c 0
EndSplineSet
Validated: 521
LCarets2: 1 0
Ligature2: "'liga' Standard Ligatures in Arabic lookup 0 subtable" space ٌ
EndChar

StartChar: "+BlUA"
Encoding: 383 1621 185
Width: 0
Flags: W
HStem: 16 70<96.3945 208.09> 275 75<152.79 287>
VStem: 20 70<100.189 220.601>
AnchorPoint: "Anchor-3" 165 447.8 mark 0
AnchorPoint: "Anchor-2" 165 447.8 mark 0
AnchorPoint: "Anchor-0" 165 447.8 mark 0
AnchorPoint: "Anchor-0" 185 -409 basemark 0
LayerCount: 2
Fore
SplineSet
251 350 m 0
 199 350 149 330 110 301 c 0
 58 262 20 206 20 144 c 0
 20 106 39 72 67 52 c 0
 95 32 129 21 166 16 c 0
 180 14 195 13 210 13 c 2
 64 -71 l 1
 99 -132 l 1
 408 46 l 1
 378 110 l 1
 315 87 235 78 176 86 c 0
 146 90 123 99 109 109 c 0
 95 119 90 127 90 144 c 0
 90 175 113 217 151 245 c 0
 189 273 239 287 287 275 c 1
 304 343 l 1
 286 347 268 350 251 350 c 0
EndSplineSet
Validated: 553
EndChar

StartChar: "+BlQA"
Encoding: 384 1620 186
Width: 0
Flags: W
HStem: 1890 73<96.3945 208.09> 2153 74<152.79 287>
VStem: 20 70<1977.69 2096.9>
AnchorPoint: "Anchor-5" 216 1638 mark 0
AnchorPoint: "Anchor-4" 216 1638 mark 0
AnchorPoint: "Anchor-1" 216 1638 mark 0
AnchorPoint: "Anchor-1" 189 2281 basemark 0
LayerCount: 2
Fore
SplineSet
251 2227 m 0
 199 2227 149 2208 110 2179 c 0
 58 2140 20 2084 20 2022 c 0
 20 1984 39 1950 67 1930 c 0
 95 1910 129 1899 166 1894 c 0
 180 1892 195 1890 210 1890 c 2
 64 1806 l 1
 99 1746 l 1
 408 1924 l 1
 378 1987 l 1
 315 1964 235 1955 176 1963 c 0
 146 1967 123 1976 109 1986 c 0
 95 1996 90 2005 90 2022 c 0
 90 2053 113 2094 151 2122 c 0
 189 2150 239 2165 287 2153 c 1
 304 2221 l 1
 286 2225 268 2227 251 2227 c 0
EndSplineSet
Validated: 553
LCarets2: 1 0
Ligature2: "'liga' Standard Ligatures in Arabic lookup 0 subtable" space ٔ
EndChar

StartChar: "+BlMA"
Encoding: 385 1619 187
Width: 0
Flags: W
HStem: 1772 70<245.499 369.57> 1830 70<110.888 234.501>
AnchorPoint: "Anchor-5" 241 1539 mark 0
AnchorPoint: "Anchor-4" 241 1539 mark 0
AnchorPoint: "Anchor-1" 241 1539 mark 0
AnchorPoint: "Anchor-1" 233 1975 basemark 0
LayerCount: 2
Fore
SplineSet
399 1914 m 1x80
 381 1881 337 1842 306 1842 c 0x80
 293 1842 280 1846 264 1861 c 0
 237 1887 205 1900 174 1900 c 0
 100 1900 47 1842 20 1791 c 1
 82 1758 l 1
 100 1791 143 1830 174 1830 c 0x40
 187 1830 200 1826 216 1811 c 0
 243 1785 275 1772 306 1772 c 0
 380 1772 434 1830 461 1881 c 1
 399 1914 l 1x80
EndSplineSet
Validated: 521
LCarets2: 1 0
Ligature2: "'liga' Standard Ligatures in Arabic lookup 0 subtable" space ٓ
EndChar

StartChar: "+BnAA"
Encoding: 386 1648 188
Width: 0
Flags: HW
AnchorPoint: "Anchor-5" 52 1500 mark 0
AnchorPoint: "Anchor-4" 52 1500 mark 0
AnchorPoint: "Anchor-1" 52 1500 mark 0
AnchorPoint: "Anchor-1" 54 2199 basemark 0
LayerCount: 2
Fore
SplineSet
20 2134 m 1
 20 1746 l 1
 90 1746 l 1
 90 2134 l 1
 20 2134 l 1
EndSplineSet
Validated: 521
LCarets2: 1 0
Ligature2: "'liga' Standard Ligatures in Arabic lookup 0 subtable" space ٰ
EndChar

StartChar: "+BlcA"
Encoding: 387 1623 189
Width: 0
Flags: HW
AnchorPoint: "Anchor-5" 185 1500 mark 0
AnchorPoint: "Anchor-4" 185 1500 mark 0
AnchorPoint: "Anchor-1" 185 1500 mark 0
AnchorPoint: "Anchor-1" 174 2322 basemark 0
LayerCount: 2
Fore
SplineSet
289 2216 m 1
 80 2041 l 2
 42 2009 20 1963 20 1913 c 0
 20 1821 95 1746 187 1746 c 0
 279 1746 355 1821 355 1913 c 0
 355 1989 303 2056 229 2075 c 1
 334 2163 l 1
 289 2216 l 1
187 2011 m 0
 241 2011 285 1967 285 1913 c 0
 285 1859 241 1815 187 1815 c 0
 133 1815 90 1859 90 1913 c 0
 90 1967 133 2011 187 2011 c 0
EndSplineSet
Validated: 521
LCarets2: 1 0
Ligature2: "'liga' Standard Ligatures in Arabic lookup 0 subtable" space ٗ
EndChar

StartChar: "+BloA"
Encoding: 388 1626 190
Width: 0
Flags: HW
AnchorPoint: "Anchor-5" 248 1638 mark 0
AnchorPoint: "Anchor-4" 248 1638 mark 0
AnchorPoint: "Anchor-1" 248 1638 mark 0
AnchorPoint: "Anchor-1" 242 2119 basemark 0
LayerCount: 2
Fore
SplineSet
273 1757 m 1
 469 2037 l 1
 412 2077 l 1
 244 1838 l 1
 77 2077 l 1
 20 2037 l 1
 216 1757 l 1
 273 1757 l 1
EndSplineSet
Validated: 521
LCarets2: 1 0
Ligature2: "'liga' Standard Ligatures in Arabic lookup 0 subtable" space ٚ
EndChar

StartChar: "+/nEA"
Encoding: 389 65137 191
Width: 856
Flags: HW
AnchorPoint: "Anchor-5" 370 2349 basechar 0
AnchorPoint: "Anchor-3" 430 168 basechar 0
LayerCount: 2
Fore
SplineSet
535 2201 m 1
 186 1908 l 1
 231 1854 l 1
 580 2147 l 1
 535 2201 l 1
626 2092 m 1
 277 1799 l 1
 322 1746 l 1
 671 2039 l 1
 626 2092 l 1
-4 577 m 1
 -4 448 l 1
 861 448 l 1
 861 577 l 1
 -4 577 l 1
EndSplineSet
Validated: 521
EndChar

StartChar: "+/ncA"
Encoding: 390 65143 192
Width: 856
Flags: HW
AnchorPoint: "Anchor-5" 370 2081 basechar 0
AnchorPoint: "Anchor-3" 426 140 basechar 0
LayerCount: 2
Fore
SplineSet
580 2092 m 1
 232 1799 l 1
 277 1746 l 1
 625 2039 l 1
 580 2092 l 1
-4 577 m 1
 -4 448 l 1
 861 448 l 1
 861 577 l 1
 -4 577 l 1
EndSplineSet
Validated: 521
EndChar

StartChar: "+/nkA"
Encoding: 391 65145 193
Width: 856
Flags: HW
AnchorPoint: "Anchor-5" 424 2346 basechar 0
AnchorPoint: "Anchor-3" 405 151 basechar 0
LayerCount: 2
Fore
SplineSet
428 2216 m 0
 336 2216 261 2141 261 2049 c 0
 261 1973 313 1906 387 1887 c 1
 282 1799 l 1
 327 1746 l 1
 536 1921 l 2
 574 1953 596 1999 596 2049 c 0
 596 2141 520 2216 428 2216 c 0
428 2147 m 0
 482 2147 526 2103 526 2049 c 0
 526 1995 482 1951 428 1951 c 0
 374 1951 331 1995 331 2049 c 0
 331 2103 374 2147 428 2147 c 0
-4 577 m 1
 -4 448 l 1
 861 448 l 1
 861 577 l 1
 -4 577 l 1
EndSplineSet
Validated: 521
EndChar

StartChar: "+/nsA"
Encoding: 392 65147 194
Width: 856
Flags: HW
AnchorPoint: "Anchor-5" 398 1784 basechar 0
AnchorPoint: "Anchor-3" 386 -266 basechar 0
LayerCount: 2
Fore
SplineSet
-4 577 m 1
 -4 448 l 1
 861 448 l 1
 861 577 l 1
 -4 577 l 1
580 215 m 1
 232 -78 l 1
 277 -132 l 1
 625 161 l 1
 580 215 l 1
EndSplineSet
Validated: 521
EndChar

StartChar: "+/n0A"
Encoding: 393 65149 195
Width: 856
Flags: HW
AnchorPoint: "Anchor-5" 426 2126 basechar 0
AnchorPoint: "Anchor-3" 405 154 basechar 0
LayerCount: 2
Fore
SplineSet
101 2017 m 1
 101 1954 99 1892 122 1838 c 0
 133 1811 153 1786 180 1770 c 0
 207 1754 241 1746 282 1746 c 0
 323 1746 358 1754 385 1770 c 0
 403 1781 417 1796 428 1813 c 1
 439 1796 454 1781 472 1770 c 0
 499 1754 534 1746 575 1746 c 0
 616 1746 650 1754 677 1770 c 0
 704 1786 723 1811 734 1838 c 0
 757 1892 756 1954 756 2017 c 1
 686 2017 l 1
 686 1954 684 1898 670 1865 c 0
 663 1849 655 1838 641 1830 c 0
 627 1822 607 1816 575 1816 c 0
 543 1816 522 1822 508 1830 c 0
 494 1838 486 1849 479 1865 c 0
 465 1898 463 1954 463 2017 c 1
 393 2017 l 1
 393 1954 392 1898 378 1865 c 0
 371 1849 363 1838 349 1830 c 0
 335 1822 314 1816 282 1816 c 0
 250 1816 230 1822 216 1830 c 0
 202 1838 194 1849 187 1865 c 0
 173 1898 171 1954 171 2017 c 1
 101 2017 l 1
-4 577 m 1
 -4 448 l 1
 861 448 l 1
 861 577 l 1
 -4 577 l 1
EndSplineSet
Validated: 553
EndChar

StartChar: "+/n8A"
Encoding: 394 65151 196
Width: 856
Flags: HW
AnchorPoint: "Anchor-5" 427 2218 basechar 0
AnchorPoint: "Anchor-3" 424 176 basechar 0
LayerCount: 2
Fore
SplineSet
428 2080 m 0
 336 2080 261 2005 261 1913 c 0
 261 1821 336 1746 428 1746 c 0
 520 1746 596 1821 596 1913 c 0
 596 2005 520 2080 428 2080 c 0
428 2011 m 0
 482 2011 526 1967 526 1913 c 0
 526 1859 482 1815 428 1815 c 0
 374 1815 331 1859 331 1913 c 0
 331 1967 374 2011 428 2011 c 0
-4 577 m 1
 -4 448 l 1
 861 448 l 1
 861 577 l 1
 -4 577 l 1
EndSplineSet
Validated: 521
EndChar

StartChar: "+/fwA"
Encoding: 395 65020 197
Width: 2728
Flags: HW
LayerCount: 2
Fore
SplineSet
1256 1665 m 1
 1256 473 l 2
 1256 195 910 -3 676 -3 c 0
 430 -3 209 122 209 341 c 0
 209 495 330 687 666 839 c 1
 613 956 l 1
 250 792 80 558 80 341 c 0
 80 36 383 -132 676 -132 c 0
 993 -132 1384 119 1384 473 c 2
 1384 1665 l 1
 1256 1665 l 1
1519 1665 m 1
 1519 897 l 2
 1519 795 1517 693 1558 602 c 0
 1599 511 1698 448 1841 448 c 0
 1921 448 2052 457 2143 555 c 0
 2188 604 2219 675 2223 763 c 0
 2227 851 2208 958 2159 1092 c 1
 2038 1048 l 1
 2083 925 2097 833 2094 769 c 0
 2091 705 2073 668 2049 642 c 0
 2001 590 1909 577 1841 577 c 0
 1728 577 1698 604 1675 655 c 0
 1652 706 1648 795 1648 897 c 2
 1648 1665 l 1
 1519 1665 l 1
2575 923 m 1
 2457 872 l 1
 2495 774 2520 677 2520 578 c 0
 2520 311 2325 151 2087 57 c 1
 2133 -64 l 1
 2444 57 2648 273 2648 582 c 0
 2648 701 2617 825 2575 923 c 1
1692 308 m 1
 1692 168 l 1
 2091 168 l 1
 2091 308 l 1
 1692 308 l 1
EndSplineSet
Validated: 553
EndChar

StartChar: "+/fIA"
Encoding: 396 -1 198
Width: 2218
Flags: HW
LayerCount: 2
Fore
SplineSet
1100 2320 m 1
 1100 2025 l 1
 1170 2025 l 1
 1170 2320 l 1
 1100 2320 l 1
1100 1936 m 1
 1102 1834 1096 1735 989 1735 c 0
 870 1735 889 1850 909 1927 c 1
 841 1945 l 1
 800 1810 838 1665 989 1665 c 0
 1052 1665 1101 1681 1135 1732 c 1
 1169 1681 1218 1665 1281 1665 c 0
 1432 1665 1470 1810 1429 1945 c 1
 1361 1927 l 1
 1381 1850 1400 1735 1281 1735 c 0
 1174 1735 1168 1834 1170 1936 c 1
 1100 1936 l 1
1650 1665 m 1
 1650 897 l 2
 1650 795 1646 706 1623 655 c 0
 1600 604 1570 577 1457 577 c 0
 1385 577 1337 590 1304 610 c 0
 1271 630 1250 655 1234 693 c 0
 1202 768 1199 890 1199 1025 c 2
 1199 1524 l 1
 1071 1524 l 1
 1071 1025 l 2
 1071 921 1069 824 1053 751 c 0
 1030 645 969 577 869 577 c 0
 769 577 710 656 685 753 c 0
 646 902 618 1092 447 1092 c 0
 257 1092 80 913 80 730 c 0
 80 559 256 448 447 448 c 1
 447 577 l 1
 344 577 209 619 209 730 c 0
 209 852 343 963 447 963 c 0
 502 963 516 862 543 750 c 0
 585 574 689 448 871 448 c 0
 1010 449 1071 495 1135 611 c 1
 1159 567 1191 527 1238 499 c 0
 1296 465 1369 448 1457 448 c 0
 1601 448 1699 511 1740 602 c 0
 1781 693 1779 795 1779 897 c 2
 1779 1665 l 1
 1650 1665 l 1
2011 1665 m 1
 2011 448 l 1
 2139 448 l 1
 2139 1665 l 1
 2011 1665 l 1
EndSplineSet
Validated: 553
Ligature2: "'liga' Standard Ligatures in Arabic lookup 0 subtable" ا ل ل ه
EndChar

StartChar: TF
Encoding: 397 -1 199
Width: 0
Flags: W
HStem: 1746 70<113.466 288.908 405.466 581.495>
VStem: 20 70<1838.02 2017> 312 70<1837.51 2017> 604 70<1836.74 2017>
CounterMasks: 1 70
LayerCount: 2
Fore
SplineSet
499 2448 m 5
 150 2155 l 5
 195 2101 l 5
 544 2394 l 5
 499 2448 l 5
20 2017 m 5
 20 1954 18 1892 41 1838 c 4
 52 1811 72 1786 99 1770 c 4
 126 1754 160 1746 201 1746 c 4
 242 1746 276 1754 303 1770 c 4
 321 1781 336 1796 347 1813 c 5
 358 1796 373 1781 391 1770 c 4
 418 1754 452 1746 493 1746 c 4
 534 1746 569 1754 596 1770 c 4
 623 1786 642 1811 653 1838 c 4
 676 1892 674 1954 674 2017 c 5
 604 2017 l 5
 604 1954 603 1898 589 1865 c 4
 582 1849 574 1838 560 1830 c 4
 546 1822 525 1816 493 1816 c 4
 461 1816 441 1822 427 1830 c 4
 413 1838 405 1849 398 1865 c 4
 384 1898 382 1954 382 2017 c 5
 312 2017 l 5
 312 1954 311 1898 297 1865 c 4
 290 1849 281 1838 267 1830 c 4
 253 1822 233 1816 201 1816 c 4
 169 1816 149 1822 135 1830 c 4
 121 1838 113 1849 106 1865 c 4
 92 1898 90 1954 90 2017 c 5
 20 2017 l 5
EndSplineSet
Validated: 41
Ligature2: "'rlig' Required Ligatures lookup 44-1" ّ َ
Ligature2: "'rlig' Required Ligatures lookup 44-1" َ ّ
LCarets2: 1 0
EndChar

StartChar: TK
Encoding: 398 -1 200
Width: 0
Flags: W
HStem: 2182 70<114.546 288.498 406.546 580.408>
VStem: 20 70<2275.02 2453> 312 70<2274.51 2453> 604 70<2273.74 2453>
CounterMasks: 1 70
LayerCount: 2
Fore
SplineSet
20 2453 m 1
 20 2390 18 2329 41 2275 c 0
 52 2248 72 2223 99 2207 c 0
 126 2191 160 2182 201 2182 c 0
 242 2182 276 2191 303 2207 c 0
 321 2218 336 2233 347 2250 c 1
 358 2233 373 2218 391 2207 c 0
 418 2191 452 2182 493 2182 c 0
 534 2182 569 2191 596 2207 c 0
 623 2223 642 2248 653 2275 c 0
 676 2329 674 2390 674 2453 c 1
 604 2453 l 1
 604 2390 603 2335 589 2302 c 0
 582 2286 574 2275 560 2267 c 0
 546 2259 525 2252 493 2252 c 0
 461 2252 441 2259 427 2267 c 0
 413 2275 405 2286 398 2302 c 0
 384 2335 382 2390 382 2453 c 1
 312 2453 l 1
 312 2390 311 2335 297 2302 c 0
 290 2286 281 2275 267 2267 c 0
 253 2259 233 2252 201 2252 c 0
 169 2252 149 2259 135 2267 c 0
 121 2275 113 2286 106 2302 c 0
 92 2335 90 2390 90 2453 c 1
 20 2453 l 1
499 2092 m 1
 150 1799 l 1
 195 1746 l 1
 544 2039 l 1
 499 2092 l 1
EndSplineSet
Validated: 41
Ligature2: "'rlig' Required Ligatures lookup 44-1" ّ ِ
Ligature2: "'rlig' Required Ligatures lookup 44-1" ِ ّ
Ligature2: "'rlig' Required Ligatures in Arabic lookup 7-1" ِ ّ
Ligature2: "'rlig' Required Ligatures in Arabic lookup 7-1" ّ ِ
LCarets2: 1 0
EndChar

StartChar: TZ
Encoding: 399 -1 201
Width: 0
Flags: HW
LayerCount: 2
Fore
SplineSet
347 2572 m 0
 255 2572 180 2497 180 2405 c 0
 180 2329 232 2262 306 2243 c 1
 201 2155 l 1
 246 2101 l 1
 455 2277 l 2
 493 2309 515 2355 515 2405 c 0
 515 2497 439 2572 347 2572 c 0
347 2503 m 0
 401 2503 445 2459 445 2405 c 0
 445 2351 401 2307 347 2307 c 0
 293 2307 249 2351 249 2405 c 0
 249 2459 293 2503 347 2503 c 0
20 2017 m 1
 20 1954 18 1892 41 1838 c 0
 52 1811 72 1786 99 1770 c 0
 126 1754 160 1746 201 1746 c 0
 242 1746 276 1754 303 1770 c 0
 321 1781 336 1796 347 1813 c 1
 358 1796 373 1781 391 1770 c 0
 418 1754 452 1746 493 1746 c 0
 534 1746 569 1754 596 1770 c 0
 623 1786 642 1811 653 1838 c 0
 676 1892 674 1954 674 2017 c 1
 604 2017 l 1
 604 1954 603 1898 589 1865 c 0
 582 1849 574 1838 560 1830 c 0
 546 1822 525 1816 493 1816 c 0
 461 1816 441 1822 427 1830 c 0
 413 1838 405 1849 398 1865 c 0
 384 1898 382 1954 382 2017 c 1
 312 2017 l 1
 312 1954 311 1898 297 1865 c 0
 290 1849 281 1838 267 1830 c 0
 253 1822 233 1816 201 1816 c 0
 169 1816 149 1822 135 1830 c 0
 121 1838 113 1849 106 1865 c 0
 92 1898 90 1954 90 2017 c 1
 20 2017 l 1
EndSplineSet
Validated: 41
Ligature2: "'rlig' Required Ligatures lookup 44-1" ّ ُ
Ligature2: "'rlig' Required Ligatures lookup 44-1" ُ ّ
LCarets2: 1 0
EndChar

StartChar: TF2
Encoding: 400 -1 202
Width: 0
Flags: W
HStem: 1746 70<113.466 288.908 405.466 581.495>
VStem: 20 70<1838.02 2017> 312 70<1837.51 2017> 604 70<1836.74 2017>
CounterMasks: 1 70
LayerCount: 2
Fore
SplineSet
454 2556 m 1
 105 2264 l 1
 150 2210 l 1
 499 2503 l 1
 454 2556 l 1
545 2448 m 1
 196 2155 l 1
 241 2101 l 1
 590 2394 l 1
 545 2448 l 1
20 2017 m 1
 20 1954 18 1892 41 1838 c 0
 52 1811 72 1786 99 1770 c 0
 126 1754 160 1746 201 1746 c 0
 242 1746 276 1754 303 1770 c 0
 321 1781 336 1796 347 1813 c 1
 358 1796 373 1781 391 1770 c 0
 418 1754 452 1746 493 1746 c 0
 534 1746 569 1754 596 1770 c 0
 623 1786 642 1811 653 1838 c 0
 676 1892 674 1954 674 2017 c 1
 604 2017 l 1
 604 1954 603 1898 589 1865 c 0
 582 1849 574 1838 560 1830 c 0
 546 1822 525 1816 493 1816 c 0
 461 1816 441 1822 427 1830 c 0
 413 1838 405 1849 398 1865 c 0
 384 1898 382 1954 382 2017 c 1
 312 2017 l 1
 312 1954 311 1898 297 1865 c 0
 290 1849 281 1838 267 1830 c 0
 253 1822 233 1816 201 1816 c 0
 169 1816 149 1822 135 1830 c 0
 121 1838 113 1849 106 1865 c 0
 92 1898 90 1954 90 2017 c 1
 20 2017 l 1
EndSplineSet
Validated: 41
Ligature2: "'rlig' Required Ligatures lookup 44-1" ّ ً
Ligature2: "'rlig' Required Ligatures lookup 44-1" ً ّ
LCarets2: 2 0 0
EndChar

StartChar: TK2
Encoding: 401 -1 203
Width: 0
Flags: W
HStem: 2286 70<113.466 288.908 405.466 581.495>
VStem: 20 70<2378.02 2556> 312 70<2377.51 2556> 604 70<2376.74 2556>
CounterMasks: 1 70
LayerCount: 2
Fore
SplineSet
20 2556 m 1
 20 2493 18 2432 41 2378 c 0
 52 2351 72 2326 99 2310 c 0
 126 2294 160 2286 201 2286 c 0
 242 2286 276 2294 303 2310 c 0
 321 2321 336 2336 347 2353 c 1
 358 2336 373 2321 391 2310 c 0
 418 2294 452 2286 493 2286 c 0
 534 2286 569 2294 596 2310 c 0
 623 2326 642 2351 653 2378 c 0
 676 2432 674 2493 674 2556 c 1
 604 2556 l 1
 604 2493 603 2438 589 2405 c 0
 582 2389 574 2378 560 2370 c 0
 546 2362 525 2356 493 2356 c 0
 461 2356 441 2362 427 2370 c 0
 413 2378 405 2389 398 2405 c 0
 384 2438 382 2493 382 2556 c 1
 312 2556 l 1
 312 2493 311 2438 297 2405 c 0
 290 2389 281 2378 267 2370 c 0
 253 2362 233 2356 201 2356 c 0
 169 2356 149 2362 135 2370 c 0
 121 2378 113 2389 106 2405 c 0
 92 2438 90 2493 90 2556 c 1
 20 2556 l 1
454 2201 m 1
 105 1908 l 1
 150 1854 l 1
 499 2147 l 1
 454 2201 l 1
545 2092 m 1
 196 1799 l 1
 241 1746 l 1
 590 2039 l 1
 545 2092 l 1
EndSplineSet
Validated: 41
Ligature2: "'rlig' Required Ligatures lookup 44-1" ّ ٍ
Ligature2: "'rlig' Required Ligatures lookup 44-1" ٍ ّ
Ligature2: "'rlig' Required Ligatures in Arabic lookup 7-1" ّ ٍ
Ligature2: "'rlig' Required Ligatures in Arabic lookup 7-1" ٍ ّ
LCarets2: 2 0 0
EndChar

StartChar: TZ2
Encoding: 402 -1 204
Width: 0
Flags: W
HStem: 1746 70<113.466 288.908 405.466 581.495> 2503 69<331.819 478.181>
VStem: 20 70<1838.02 2017> 238 69<2331.17 2478.18> 312 70<1837.51 2017> 503 69<2331.58 2478.18> 604 70<1836.74 2017>
LayerCount: 2
Fore
SplineSet
405 2572 m 0
 313 2572 238 2497 238 2405 c 0
 238 2329 289 2262 363 2243 c 1
 312 2200 l 1
 270 2248 214 2290 157 2323 c 1
 122 2262 l 1
 206 2214 246 2170 304 2101 c 1
 512 2277 l 2
 550 2309 572 2355 572 2405 c 0
 572 2497 497 2572 405 2572 c 0
405 2503 m 0
 459 2503 503 2459 503 2405 c 0
 503 2351 459 2307 405 2307 c 0
 351 2307 307 2351 307 2405 c 0
 307 2459 351 2503 405 2503 c 0
20 2017 m 1
 20 1954 18 1892 41 1838 c 0
 52 1811 72 1786 99 1770 c 0
 126 1754 160 1746 201 1746 c 0
 242 1746 276 1754 303 1770 c 0
 321 1781 336 1796 347 1813 c 1
 358 1796 373 1781 391 1770 c 0
 418 1754 452 1746 493 1746 c 0
 534 1746 569 1754 596 1770 c 0
 623 1786 642 1811 653 1838 c 0
 676 1892 674 1954 674 2017 c 1
 604 2017 l 1
 604 1954 603 1898 589 1865 c 0
 582 1849 574 1838 560 1830 c 0
 546 1822 525 1816 493 1816 c 0
 461 1816 441 1822 427 1830 c 0
 413 1838 405 1849 398 1865 c 0
 384 1898 382 1954 382 2017 c 1
 312 2017 l 1
 312 1954 311 1898 297 1865 c 0
 290 1849 281 1838 267 1830 c 0
 253 1822 233 1816 201 1816 c 0
 169 1816 149 1822 135 1830 c 0
 121 1838 113 1849 106 1865 c 0
 92 1898 90 1954 90 2017 c 1
 20 2017 l 1
EndSplineSet
Validated: 41
Ligature2: "'rlig' Required Ligatures lookup 44-1" ّ ٌ
Ligature2: "'rlig' Required Ligatures lookup 44-1" ٌ ّ
LCarets2: 2 0 0
EndChar

StartChar: HF
Encoding: 403 -1 205
Width: 0
Flags: W
HStem: 1890 73<99.6468 211.09> 2153 74<155.79 290>
VStem: 23 70<1977.69 2096.9>
LayerCount: 2
Fore
SplineSet
369 2572 m 1
 20 2279 l 1
 65 2226 l 1
 414 2519 l 1
 369 2572 l 1
254 2227 m 0
 202 2227 152 2208 113 2179 c 0
 61 2140 23 2084 23 2022 c 0
 23 1984 42 1950 70 1930 c 0
 98 1910 133 1899 170 1894 c 0
 184 1892 198 1890 213 1890 c 2
 67 1806 l 1
 102 1746 l 1
 411 1924 l 1
 381 1987 l 1
 318 1964 238 1955 179 1963 c 0
 149 1967 126 1976 112 1986 c 0
 98 1996 93 2005 93 2022 c 0
 93 2053 116 2094 154 2122 c 0
 192 2150 242 2165 290 2153 c 1
 307 2221 l 1
 289 2225 271 2227 254 2227 c 0
EndSplineSet
Validated: 41
Ligature2: "'rlig' Required Ligatures lookup 44-1" َ ٔ
Ligature2: "'rlig' Required Ligatures lookup 44-1" ٔ َ
LCarets2: 1 0
EndChar

StartChar: HZ
Encoding: 404 -1 206
Width: 0
Flags: W
HStem: 1890 73<96.3945 208.09> 2153 74<152.79 287> 2671 70<140.723 287.181>
VStem: 20 70<1977.69 2096.9> 46 70<2499.59 2646.28> 312 69<2499.86 2646.28>
LayerCount: 2
Fore
SplineSet
214 2741 m 0xec
 122 2741 46 2665 46 2573 c 0
 46 2497 98 2431 172 2412 c 1
 68 2324 l 1
 113 2270 l 1
 321 2445 l 2
 359 2477 381 2523 381 2573 c 0
 381 2665 306 2741 214 2741 c 0xec
214 2671 m 0
 268 2671 312 2627 312 2573 c 0
 312 2519 268 2476 214 2476 c 0
 160 2476 116 2519 116 2573 c 0
 116 2627 160 2671 214 2671 c 0
251 2227 m 0
 199 2227 149 2208 110 2179 c 0
 58 2140 20 2084 20 2022 c 0
 20 1984 39 1950 67 1930 c 0
 95 1910 129 1899 166 1894 c 0
 180 1892 195 1890 210 1890 c 2
 64 1806 l 1
 99 1746 l 1
 408 1924 l 1
 378 1987 l 1
 315 1964 235 1955 176 1963 c 0
 146 1967 123 1976 109 1986 c 0
 95 1996 90 2005 90 2022 c 0xf4
 90 2053 113 2094 151 2122 c 0
 189 2150 239 2165 287 2153 c 1
 304 2221 l 1
 286 2225 268 2227 251 2227 c 0
EndSplineSet
Validated: 41
Ligature2: "'rlig' Required Ligatures lookup 44-1" ُ ٔ
Ligature2: "'rlig' Required Ligatures lookup 44-1" ٔ ُ
LCarets2: 1 0
EndChar

StartChar: "+BhsA"
Encoding: 187 1563 208
Width: 502
Flags: HW
LayerCount: 2
Fore
SplineSet
263 1236 m 1
 111 1020 l 2
 91 990 81 961 80 925 c 0
 79 867 106 813 153 780 c 0
 212 739 291 739 350 780 c 0
 409 821 436 895 417 965 c 1
 159 965 l 1
 320 1196 l 1
 263 1236 l 1
165 628 m 1
 165 448 l 1
 345 448 l 1
 345 628 l 1
 165 628 l 1
EndSplineSet
Validated: 553
EndChar

StartChar: "+BkAA"
Encoding: 224 1600 209
Width: 512
Flags: HW
AnchorPoint: "Anchor-5" 125 1483 basechar 0
AnchorPoint: "Anchor-3" 119 -195 basechar 0
LayerCount: 2
Fore
SplineSet
514 448 m 1
 -2 448 l 1
 -2 577 l 1
 514 577 l 1
 514 448 l 1
EndSplineSet
Validated: 513
EndChar

StartChar: "+BmwA"
Encoding: 405 1644 210
Width: 502
Flags: HW
LayerCount: 2
Fore
SplineSet
350 760 m 0
 291 801 212 801 153 760 c 0
 94 719 67 645 86 575 c 1
 344 575 l 1
 183 344 l 1
 240 304 l 1
 391 520 l 2
 411 550 422 579 423 615 c 0
 424 673 397 727 350 760 c 0
EndSplineSet
Validated: 553
EndChar

StartChar: "+Bm0A"
Encoding: 406 1645 211
Width: 766
Flags: HW
LayerCount: 2
Fore
SplineSet
348 1396 m 1
 348 1178 l 1
 194 1332 l 1
 144 1283 l 1
 299 1128 l 1
 80 1128 l 1
 80 1058 l 1
 299 1058 l 1
 144 904 l 1
 194 854 l 1
 348 1009 l 1
 348 790 l 1
 418 790 l 1
 418 1009 l 1
 573 854 l 1
 622 904 l 1
 468 1058 l 1
 686 1058 l 1
 686 1128 l 1
 468 1128 l 1
 622 1283 l 1
 573 1332 l 1
 418 1178 l 1
 418 1396 l 1
 348 1396 l 1
EndSplineSet
Validated: 521
EndChar

StartChar: "+/vwA"
Encoding: 407 65276 212
Width: 1026
Flags: W
HStem: 448 129<452 595.332 865.304 1031>
VStem: 259 129<577 1025.63> 645 129<675.857 969>
AnchorPoint: "Anchor-4" 120 1750 baselig 1
AnchorPoint: "Anchor-4" 703 1755 baselig 0
AnchorPoint: "Anchor-2" 324 274 baselig 1
AnchorPoint: "Anchor-2" 717 275 baselig 0
LayerCount: 2
Fore
SplineSet
204 1682 m 1
 80 1648 l 1
 178 1282 246 933 259 577 c 1
 80 577 l 1
 80 448 l 1
 452 448 l 2
 586 448 681 503 727 584 c 1
 749 551 777 523 813 501 c 0
 871 467 943 450 1031 450 c 1
 1031 579 l 1
 959 579 912 592 879 612 c 0
 846 632 825 656 809 694 c 0
 782 758 775 857 774 969 c 2
 774 1665 l 1
 645 1665 l 1
 645 897 l 2
 645 795 641 706 618 655 c 0
 595 604 565 577 452 577 c 2
 388 577 l 1
 375 948 304 1309 204 1682 c 1
EndSplineSet
Validated: 521
LCarets2: 1 0
Ligature2: "'rlig' Required Ligatures in Arabic lookup 5-1" ﻠ ﺎ
EndChar

StartChar: "+/vUA"
Encoding: 408 65269 213
Width: 1018
Flags: HW
AnchorPoint: "Anchor-4" 267 2048 baselig 1
AnchorPoint: "Anchor-4" 871 1775 baselig 0
AnchorPoint: "Anchor-2" 426 241 baselig 1
AnchorPoint: "Anchor-2" 853 223 baselig 0
LayerCount: 2
Fore
SplineSet
459 1914 m 1
 441 1881 397 1842 366 1842 c 0
 353 1842 340 1846 324 1861 c 0
 297 1887 265 1900 234 1900 c 0
 160 1900 107 1842 80 1791 c 1
 142 1758 l 1
 160 1791 203 1830 234 1830 c 0
 247 1830 260 1826 276 1811 c 0
 303 1785 335 1772 366 1772 c 0
 440 1772 494 1830 521 1881 c 1
 459 1914 l 1
370 1682 m 1
 245 1648 l 1
 343 1282 411 933 424 577 c 1
 245 577 l 1
 245 448 l 1
 617 448 l 2
 761 448 860 511 901 602 c 0
 942 693 939 795 939 897 c 2
 939 1665 l 1
 810 1665 l 1
 810 897 l 2
 810 795 807 706 784 655 c 0
 761 604 730 577 617 577 c 2
 553 577 l 1
 540 948 470 1309 370 1682 c 1
EndSplineSet
Validated: 553
LCarets2: 1 0
Ligature2: "'liga' Standard Ligatures in Arabic lookup 6-1" ﻟ ﺂ
EndChar

StartChar: "+/vYA"
Encoding: 409 65270 214
Width: 1192
Flags: HW
AnchorPoint: "Anchor-4" 243 2046 baselig 1
AnchorPoint: "Anchor-4" 875 1789 baselig 0
AnchorPoint: "Anchor-2" 470 196 baselig 1
AnchorPoint: "Anchor-2" 909 195 baselig 0
LayerCount: 2
Fore
SplineSet
459 1914 m 1
 441 1881 397 1842 366 1842 c 0
 353 1842 340 1846 324 1861 c 0
 297 1887 265 1900 234 1900 c 0
 160 1900 107 1842 80 1791 c 1
 142 1758 l 1
 160 1791 203 1830 234 1830 c 0
 247 1830 260 1826 276 1811 c 0
 303 1785 335 1772 366 1772 c 0
 440 1772 494 1830 521 1881 c 1
 459 1914 l 1
370 1682 m 1
 245 1648 l 1
 343 1282 411 933 424 577 c 1
 245 577 l 1
 245 448 l 1
 617 448 l 2
 751 448 846 503 892 584 c 1
 914 551 942 523 978 501 c 0
 1036 467 1109 450 1197 450 c 1
 1197 579 l 1
 1125 579 1077 592 1044 612 c 0
 1011 632 990 656 974 694 c 0
 947 758 940 857 939 969 c 2
 939 1665 l 1
 810 1665 l 1
 810 897 l 2
 810 795 807 706 784 655 c 0
 761 604 730 577 617 577 c 2
 553 577 l 1
 540 948 470 1309 370 1682 c 1
EndSplineSet
Validated: 521
LCarets2: 1 0
Ligature2: "'liga' Standard Ligatures in Arabic lookup 6-1" ﻠ ﺂ
EndChar

StartChar: "+/vcA"
Encoding: 410 65271 215
Width: 1046
Flags: HW
AnchorPoint: "Anchor-4" 152 2280 baselig 1
AnchorPoint: "Anchor-4" 904 1772 baselig 0
AnchorPoint: "Anchor-2" 441 208 baselig 1
AnchorPoint: "Anchor-2" 859 208 baselig 0
LayerCount: 2
Fore
SplineSet
311 2163 m 0
 259 2163 209 2144 170 2115 c 0
 118 2076 80 2020 80 1958 c 0
 80 1920 99 1886 127 1866 c 0
 155 1846 189 1835 226 1830 c 0
 240 1828 255 1826 270 1826 c 2
 124 1742 l 1
 159 1682 l 1
 468 1860 l 1
 438 1923 l 1
 375 1900 295 1891 236 1899 c 0
 206 1903 183 1912 169 1922 c 0
 155 1932 150 1941 150 1958 c 0
 150 1989 173 2030 211 2058 c 0
 249 2086 299 2101 347 2089 c 1
 364 2157 l 1
 346 2161 328 2163 311 2163 c 0
398 1682 m 1
 274 1648 l 1
 372 1282 440 933 453 577 c 1
 274 577 l 1
 274 448 l 1
 646 448 l 2
 790 448 889 511 930 602 c 0
 971 693 968 795 968 897 c 2
 968 1665 l 1
 839 1665 l 1
 839 897 l 2
 839 795 835 706 812 655 c 0
 789 604 759 577 646 577 c 2
 582 577 l 1
 569 948 498 1309 398 1682 c 1
EndSplineSet
Validated: 553
LCarets2: 1 0
Ligature2: "'liga' Standard Ligatures in Arabic lookup 6-1" ﻟ ﺄ
EndChar

StartChar: uni0649
Encoding: 233 1609 216
Width: 1356
Flags: HW
AnchorPoint: "Anchor-5" 448 922 basechar 0
AnchorPoint: "Anchor-3" 671 -408 basechar 0
LayerCount: 2
Fore
SplineSet
372 657 m 5
 268 560 209 429 209 341 c 4
 209 131 414 -3 676 -3 c 4
 842 -3 963 41 1039 105 c 4
 1115 169 1151 251 1148 343 c 4
 1146 402 1131 424 1108 443 c 4
 1085 462 1047 476 997 485 c 4
 897 504 757 498 654 589 c 4
 597 640 585 720 602 787 c 4
 619 854 661 917 715 972 c 4
 797 1055 915 1122 1041 1125 c 4
 1110 1125 1172 1116 1231 1082 c 5
 1188 961 l 5
 1142 987 1101 996 1046 996 c 4
 962 996 872 948 807 882 c 4
 765 840 736 792 727 755 c 4
 718 718 722 702 740 686 c 4
 790 641 903 634 1020 612 c 4
 1078 601 1139 585 1190 543 c 4
 1241 501 1273 432 1276 347 c 6
 1280 217 1225 93 1121 6 c 4
 1017 -81 865 -132 676 -132 c 4
 388 -132 80 31 80 341 c 4
 80 467 144 626 285 750 c 5
 372 657 l 5
EndSplineSet
Validated: 33
EndChar

StartChar: uni0629
Encoding: 201 1577 217
Width: 658
Flags: HW
AnchorPoint: "Anchor-5" 336 1642 basechar 0
AnchorPoint: "Anchor-3" 327 189 basechar 0
LayerCount: 2
Fore
SplineSet
130 1373 m 1
 130 1233 l 1
 529 1233 l 1
 529 1373 l 1
 130 1373 l 1
250 1116 m 1
 185 1004 l 1
 213 988 l 1
 133 909 83 803 80 699 c 0
 78 637 94 573 138 524 c 0
 182 475 252 448 333 448 c 0
 415 448 484 476 528 528 c 0
 572 580 586 648 578 715 c 0
 562 849 466 990 306 1083 c 2
 250 1116 l 1
321 913 m 1
 399 844 443 762 450 700 c 0
 455 659 446 630 430 611 c 0
 414 592 388 577 333 577 c 0
 278 577 251 591 234 610 c 0
 217 629 208 658 209 696 c 0
 211 767 256 858 321 913 c 1
EndSplineSet
Validated: 41
Substitution2: "'fina' Terminal Forms in Arabic lookup 4-1" ﺔ
EndChar

StartChar: uni060C
Encoding: 172 1548 218
Width: 502
Flags: HW
LayerCount: 2
Fore
SplineSet
153 479 m 0
 212 438 291 438 350 479 c 0
 409 520 436 594 417 664 c 1
 159 664 l 1
 320 895 l 1
 263 935 l 1
 111 719 l 2
 91 689 81 660 80 624 c 0
 79 566 106 512 153 479 c 0
EndSplineSet
Validated: 41
EndChar

StartChar: .notdef
Encoding: 411 -1 219
Width: 948
GlyphClass: 2
Flags: W
LayerCount: 2
Fore
SplineSet
948 1786 m 1
 948 448 l 1
 0 448 l 1
 0 1786 l 1
 948 1786 l 1
855 539 m 1
 855 1695 l 1
 93 1695 l 1
 93 539 l 1
 855 539 l 1
363 672 m 1
 363 797 l 1
 485 797 l 1
 485 672 l 1
 363 672 l 1
715 1344 m 0
 715 1320.66666667 711.833333333 1300 705.5 1282 c 128
 699.166666667 1264 690.833333333 1247.5 680.5 1232.5 c 128
 670.166666667 1217.5 658.333333333 1203.83333333 645 1191.5 c 128
 631.666666667 1179.16666667 617.666666667 1167.33333333 603 1156 c 0
 587 1143.33333333 571 1130.5 555 1117.5 c 128
 539 1104.5 524.666666667 1090.5 512 1075.5 c 128
 499.333333333 1060.5 489 1043.5 481 1024.5 c 128
 473 1005.5 469 983.666666667 469 959 c 2
 469 948 l 1
 381 948 l 1
 380.333333333 952.666666667 379.833333333 957.666666667 379.5 963 c 128
 379.166666667 968.333333333 379 972.666666667 379 976 c 0
 379 1009.33333333 384 1037.83333333 394 1061.5 c 128
 404 1085.16666667 416.5 1105.83333333 431.5 1123.5 c 128
 446.5 1141.16666667 463.333333333 1157 482 1171 c 128
 500.666666667 1185 518.333333333 1198.66666667 535 1212 c 0
 556.333333333 1228.66666667 574.333333333 1246.66666667 589 1266 c 128
 603.666666667 1285.33333333 611 1309.66666667 611 1339 c 0
 611 1377 596.166666667 1406.5 566.5 1427.5 c 128
 536.833333333 1448.5 497.666666667 1459 449 1459 c 0
 415.666666667 1459 383.666666667 1455 353 1447 c 128
 322.333333333 1439 295 1429.66666667 271 1419 c 1
 271 1503 l 1
 294.333333333 1515.66666667 322.333333333 1525.83333333 355 1533.5 c 128
 387.666666667 1541.16666667 420.333333333 1545 453 1545 c 0
 493.666666667 1545 530.166666667 1540.16666667 562.5 1530.5 c 128
 594.833333333 1520.83333333 622.333333333 1507.16666667 645 1489.5 c 128
 667.666666667 1471.83333333 685 1450.66666667 697 1426 c 128
 709 1401.33333333 715 1374 715 1344 c 0
EndSplineSet
Validated: 1
EndChar

StartChar: quotedbl
Encoding: 34 34 222
Width: 742
GlyphClass: 2
Flags: W
LayerCount: 2
Fore
SplineSet
123 1786 m 1
 278 1786 l 1
 278 1292 l 1
 123 1292 l 1
 123 1786 l 1
464 1786 m 1
 619 1786 l 1
 619 1292 l 1
 464 1292 l 1
 464 1786 l 1
EndSplineSet
Validated: 1
EndChar

